<svg width="203" height="85" viewBox="0 0 203 85" fill="none" xmlns="http://www.w3.org/2000/svg">
<g clip-path="url(#clip0_3001_7006)">
<g clip-path="url(#clip1_3001_7006)">
<path d="M6 14V70.873L34 70.9047V55.3679H27.92L27.952 30.1723H34V14.0318L6 14Z" fill="#E2231A"/>
<path d="M37.264 14.0312V31.4744H29.328V54.1918H37.264V70.8724H65.04V14.0312H37.264Z" fill="#E2231A"/>
<path d="M76.176 44.6292H86.192V34.875L92.144 34.9068V60.2613L86.192 60.2295V49.8399H76.176L76.208 60.2295L70.256 60.2613L70.288 34.9068H76.208L76.176 44.6292Z" fill="black"/>
<path d="M132.336 34.938C136.784 34.9063 144.752 34.9062 144.752 34.9062V39.6404C144.752 39.6404 136.528 39.6404 132.304 39.6404C130 40.0216 128.048 40.7524 126.992 43.2307C125.872 46.4397 125.872 51.428 128.496 54.637C129.52 55.622 130.896 55.7808 132.4 55.7173C134.672 55.7173 139.248 55.7491 139.248 55.7491V49.8394H132.368L132.336 45.5501H144.752V60.2608H140.176C135.888 60.2608 134.288 60.2608 129.04 60.2608C125.904 60.1019 123.472 58.418 121.84 55.4631C119.024 49.8711 119.76 41.2925 124.56 37.0668C126.928 35.2558 129.04 34.9063 132.336 34.938Z" fill="black"/>
<path d="M158 34.9062C161.52 34.9062 168.24 34.9062 168.24 34.9062V39.6404C168.24 39.6404 161.424 39.6404 158.096 39.6404C155.952 39.7675 154.448 41.1972 153.84 43.0718C153.648 43.8026 153.648 44.5969 153.68 45.5183H168.208V49.8076H153.648V51.8728C153.648 53.4297 155.312 55.5584 157.616 55.7173C161.424 55.6855 168.24 55.7173 168.24 55.7173V60.2608C168.24 60.2608 160.176 60.2608 156.272 60.2608C152.848 60.2608 149.616 58.6404 148.368 55.1136C146.192 49.6805 146.448 42.0233 150.704 37.5434C152.912 35.4146 155.024 35.0333 158 34.9062Z" fill="black"/>
<path d="M186.352 39.6721H176.88V45.0735C180.208 45.0735 184.944 45.0735 186.352 45.0735C187.728 45.0735 189.072 44.6604 189.072 42.2457C189.072 40.4347 187.696 39.6404 186.352 39.6721ZM188.304 34.9062C193.072 35.1922 194.192 39.8628 194.064 42.5952C194.064 48.1554 189.68 49.8394 188.4 49.8394C190.096 53.1755 194.224 60.2608 194.224 60.2608H188.272L182.608 49.8394C180.88 49.8394 179.152 49.8394 176.912 49.8076L176.88 60.229H170.96V34.9062H188.304Z" fill="black"/>
<path d="M107.92 42.0233L104.272 49.8076H111.056L107.92 42.0233ZM121.808 60.229H115.632L113.296 54.8277L102.128 54.7959L99.76 60.229H93.584L104.688 34.9062H110.768L121.808 60.229Z" fill="black"/>
<path d="M73.68 70.9682C71.408 70.9682 70.0959 70.301 70.0959 69.1572V66.9331C70.0959 65.3127 72.24 65.1221 75.248 65.1221H76.4C78.992 65.1221 79.76 65.6304 79.76 66.7742V66.9649H78.352V66.806C78.352 66.0117 78 65.694 76.176 65.694H75.408C72.496 65.694 71.504 65.8528 71.504 66.9013V68.49C71.504 69.7926 71.6319 70.3646 73.968 70.3646H75.632C77.872 70.3646 78.576 70.2057 78.576 69.4114V68.9666H79.984V69.5067C79.984 70.8094 78.16 70.9682 75.6959 70.9682H73.68Z" fill="black"/>
<path d="M88.6239 65.7262C86.5439 65.7262 85.9999 65.9486 85.9999 67.0607V69.0941C85.9999 70.2379 86.7999 70.365 88.6239 70.365H90.2879C92.1119 70.365 92.9119 70.2061 92.9119 69.0941V67.0607C92.9119 65.9486 92.3679 65.7262 90.2879 65.7262H88.6239ZM90.2879 65.1543C93.3599 65.1543 94.2879 65.6309 94.2879 67.0924V69.1259C94.2879 70.4921 93.2319 70.9687 90.2879 70.9687H88.6239C85.6479 70.9687 84.6239 70.4603 84.6239 69.1259V67.0924C84.6239 65.6627 85.5519 65.1861 88.6239 65.1543H90.2879Z" fill="black"/>
<path d="M107.216 70.9368H105.84L101.168 65.6944H101.136V70.9368H99.7279V65.2178H102.16L106.512 70.1108L110.896 65.2178H113.328V70.9368H111.92V65.6944H111.888L107.216 70.9368Z" fill="black"/>
<path d="M120.464 65.7897V68.1409H124.08C125.936 68.1409 126.896 68.1409 126.896 67.0288C126.896 65.9168 126.48 65.7897 124.752 65.7897H120.464ZM119.056 65.2178H125.328C127.728 65.2178 128.272 65.9803 128.272 66.9653C128.272 67.4736 128.24 68.7128 125.264 68.7128H120.432V70.9368H119.024V65.2178H119.056Z" fill="black"/>
<path d="M138.192 65.7579L135.472 69.1893H140.944L138.192 65.7579ZM135.12 69.7295L134.16 70.9368H132.688L137.168 65.2178H139.152L143.76 70.9368H142.32L141.36 69.7295H135.12Z" fill="black"/>
<path d="M159.248 70.9368H156.976L150.032 65.7579H150V70.9368H148.592V65.2178H150.896L157.808 70.4285H157.84V65.2178H159.248V70.9368Z" fill="black"/>
<path d="M166.576 65.2178H165.168V70.9368H166.576V65.2178Z" fill="black"/>
<path d="M173.424 67.7278H179.696V68.2679H173.424V70.3649H179.984V70.9368H172.048V65.2178H179.984V65.7897H173.424V67.7278Z" fill="black"/>
<path d="M184.784 66.8377C184.784 65.3126 186.288 65.1855 189.328 65.1855C191.984 65.1855 193.904 65.2491 193.776 66.8059H192.368C192.304 65.821 191.888 65.7574 189.264 65.7574C186.544 65.7574 186.16 65.9163 186.16 66.7106C186.16 67.7909 187.28 67.6956 189.584 67.7274C192.528 67.7909 194 67.7591 194 69.316C194 70.9364 192.368 70.9999 189.232 70.9999C186.096 70.9999 184.464 70.8411 184.72 69.1571H186.128C186.096 70.428 186.608 70.428 189.232 70.428C191.856 70.428 192.592 70.428 192.592 69.316C192.592 68.2357 191.536 68.3946 189.296 68.331C186.896 68.2039 184.784 68.331 184.784 66.8377Z" fill="black"/>
<path d="M195.632 36.3043H195.888C196.176 36.3043 196.432 36.209 196.432 35.9231C196.432 35.7324 196.272 35.5418 195.888 35.5418C195.76 35.5418 195.696 35.5418 195.632 35.5736V36.3043ZM195.632 37.5435H195.28V35.2876C195.472 35.2558 195.632 35.2241 195.92 35.2241C196.272 35.2241 196.496 35.2876 196.624 35.3829C196.752 35.4782 196.848 35.6371 196.848 35.8595C196.848 36.1455 196.656 36.3361 196.4 36.3997V36.4314C196.592 36.4632 196.72 36.6538 196.784 36.9716C196.848 37.3211 196.88 37.4482 196.944 37.5117H196.56C196.496 37.4482 196.464 37.2257 196.4 36.9398C196.336 36.6538 196.208 36.5585 195.92 36.5585H195.664V37.5435H195.632ZM196.016 34.6839C195.12 34.6839 194.384 35.4465 194.384 36.3997C194.384 37.3528 195.12 38.1154 196.016 38.1154C196.912 38.1154 197.648 37.3528 197.648 36.3997C197.648 35.4465 196.912 34.6839 196.016 34.6839ZM196.016 34.3662C197.136 34.3662 198 35.2558 198 36.3679C198 37.5117 197.104 38.4013 195.984 38.4013C194.864 38.4013 193.968 37.5117 193.968 36.3679C194 35.2558 194.896 34.3662 196.016 34.3662Z" fill="black"/>
</g>
</g>
<defs>
<clipPath id="clip0_3001_7006">
<rect width="203" height="85" fill="white"/>
</clipPath>
<clipPath id="clip1_3001_7006">
<rect width="192" height="57" fill="white" transform="translate(6 14)"/>
</clipPath>
</defs>
</svg>
