<svg width="203" height="85" viewBox="0 0 203 85" fill="none" xmlns="http://www.w3.org/2000/svg">
<g clip-path="url(#clip0_3001_8932)">
<path d="M64.5673 57.967L61.413 65.3363H17.1133V57.967H64.5673ZM85.1121 15.3421H17.1133V22.7114H81.9578L85.1121 15.3421ZM78.4964 28.8805H17.1133V36.2498H75.3421L78.4964 28.8805ZM71.2108 43.5075H17.1133V50.8768H68.0565L71.2108 43.5075ZM126.76 33.5142C125.364 33.5142 123.717 34.6587 123.075 36.0544L111.044 62.7682C110.402 64.1639 111.044 65.3084 112.44 65.3084H136.139C137.535 65.3084 139.182 64.1639 139.824 62.7682L144.904 51.4351H135.33L135.106 51.8817C132.594 57.0458 128.993 60.4513 127.039 59.5022C125.113 58.5532 125.56 53.6124 128.072 48.4483C130.584 43.2841 134.185 39.8786 136.139 40.8277C137.591 41.5256 137.702 44.5124 136.586 48.1133H146.384L151.827 36.0265C152.469 34.6308 151.827 33.4863 150.431 33.4863H126.76M92.928 15.3421C91.5323 15.3421 89.8854 16.4866 89.2433 17.8823L83.9955 29.5504C83.3814 30.9461 83.9955 32.0906 85.3912 32.0906H98.2038C99.5995 32.0906 101.246 30.9461 101.888 29.5504L107.136 17.8823C107.778 16.4866 107.136 15.3421 105.741 15.3421H92.928ZM84.1351 33.6538C82.7394 33.6538 81.0924 34.7703 80.4504 36.194L68.5032 62.7682C67.8611 64.1639 68.5032 65.3084 69.8989 65.3084H83.5489C84.9446 65.3084 86.5915 64.1639 87.2335 62.7682L99.2087 36.1661C99.8507 34.7703 99.2087 33.6259 97.813 33.6259H84.1351M114.031 15.2305C112.635 15.2305 110.988 16.3749 110.346 17.7707L90.0249 62.9357C89.3829 64.3314 90.0249 65.4759 91.4206 65.4759H104.792C106.187 65.4759 107.834 64.3314 108.476 62.9357L128.798 17.7707C129.412 16.3749 128.798 15.2305 127.402 15.2305H114.031ZM160.341 48.4762C162.853 43.3121 166.454 39.9065 168.408 40.8556C170.362 41.8047 169.887 46.7455 167.375 51.9096C164.863 57.0737 161.262 60.4792 159.308 59.5302C157.382 58.5811 157.828 53.6403 160.341 48.4762ZM155.595 36.0544L143.564 62.7682C142.922 64.1639 143.564 65.3084 144.96 65.3084H168.659C170.055 65.3084 171.702 64.1639 172.344 62.7682L184.375 36.0544C184.989 34.6587 184.375 33.5142 182.979 33.5142H159.28C157.856 33.5142 156.209 34.6587 155.595 36.0544ZM179.322 63.494V62.6565C179.406 62.6565 179.49 62.6286 179.629 62.6286C180.076 62.6286 180.243 62.8519 180.243 63.0753C180.243 63.3823 179.964 63.494 179.629 63.494H179.322ZM179.322 63.8289H179.601C179.936 63.8289 180.076 63.9406 180.16 64.2756C180.215 64.6105 180.271 64.8338 180.327 64.9176H180.746C180.718 64.8338 180.634 64.6943 180.578 64.3035C180.522 63.9406 180.383 63.7173 180.16 63.6894V63.6614C180.439 63.5777 180.662 63.3823 180.662 63.0473C180.662 62.7961 180.578 62.6286 180.439 62.517C180.271 62.4053 180.048 62.3216 179.657 62.3216C179.35 62.3216 179.155 62.3495 178.931 62.3774V64.9176H179.35V63.8289H179.322ZM179.741 61.6795C180.746 61.6795 181.555 62.5449 181.555 63.6056C181.555 64.6664 180.746 65.5317 179.741 65.5317C178.736 65.5317 177.899 64.6943 177.899 63.6056C177.926 62.517 178.736 61.6795 179.741 61.6795ZM179.741 61.3167C178.485 61.3167 177.48 62.3216 177.48 63.5777C177.48 64.8618 178.485 65.8667 179.741 65.8667C180.997 65.8667 181.974 64.8618 181.974 63.5777C181.974 62.3216 180.997 61.3167 179.741 61.3167Z" fill="#002A58"/>
</g>
<defs>
<clipPath id="clip0_3001_8932">
<rect width="203" height="85" fill="white"/>
</clipPath>
</defs>
</svg>
