<svg width="203" height="85" viewBox="0 0 203 85" fill="none" xmlns="http://www.w3.org/2000/svg">
<g clip-path="url(#clip0_3001_8851)">
<g clip-path="url(#clip1_3001_8851)">
<path fill-rule="evenodd" clip-rule="evenodd" d="M87.3982 41.7491C88.6188 41.2794 89.6661 40.4502 90.3998 39.3724C91.1334 38.2946 91.5185 37.0196 91.5035 35.7182C91.5035 30.2903 87.6315 27.5996 82.3132 27.5996H68.3645V57.114H83.5262C88.1913 57.114 92.7631 53.8666 92.7631 48.9027C92.7631 43.0017 87.3982 41.8048 87.3982 41.7491ZM75.6421 33.7233H81.0537C81.4002 33.702 81.7475 33.7488 82.0758 33.8611C82.4041 33.9734 82.7069 34.1489 82.9669 34.3777C83.2269 34.6066 83.439 34.8841 83.591 35.1945C83.743 35.5049 83.8319 35.8421 83.8527 36.1867C83.8527 36.2919 83.8527 36.3986 83.8527 36.5068C83.838 37.2324 83.5356 37.9228 83.0113 38.4277C82.487 38.9325 81.7834 39.2109 81.0537 39.2022H75.5954L75.6421 33.7233ZM81.1003 50.9347H75.6888V45.1357H80.9603C83.6195 45.1357 84.8791 46.2955 84.8791 48.012C84.8791 50.1553 83.2929 50.9347 81.1003 50.9347Z" fill="#ED0007"/>
<path fill-rule="evenodd" clip-rule="evenodd" d="M108.811 26.8574C100.227 26.8574 95.189 33.677 95.189 42.3059C95.189 50.9347 100.227 57.7543 108.811 57.7543C117.395 57.7543 122.433 50.9811 122.433 42.3059C122.433 33.6306 117.442 26.8574 108.811 26.8574ZM108.811 50.7028C104.613 50.7028 102.513 46.9451 102.513 42.3059C102.513 37.6667 104.613 33.9554 108.811 33.9554C113.01 33.9554 115.156 37.7131 115.156 42.3059C115.156 46.9914 113.01 50.7028 108.811 50.7028Z" fill="#ED0007"/>
<path fill-rule="evenodd" clip-rule="evenodd" d="M138.248 39.1971L137.222 38.9652C134.703 38.4549 132.697 37.8054 132.697 35.9961C132.697 34.0477 134.609 33.259 136.289 33.259C137.435 33.276 138.564 33.5278 139.608 33.9988C140.652 34.4697 141.586 35.1497 142.353 35.9961L146.972 31.4497C144.873 29.0837 141.467 26.8105 136.149 26.8105C129.897 26.8105 125.139 30.2899 125.139 36.0889C125.139 41.3776 128.964 43.9755 133.63 44.9497L134.656 45.1817C138.528 45.9703 139.974 46.5734 139.974 48.4291C139.974 50.192 138.388 51.3518 135.962 51.3518C133.07 51.3518 130.457 50.0992 128.451 47.5477L123.74 52.1868C126.352 55.2951 129.664 57.7075 136.055 57.7075C141.607 57.7075 147.532 54.5528 147.532 48.1044C147.625 41.3776 142.493 40.0786 138.248 39.1971Z" fill="#ED0007"/>
<path fill-rule="evenodd" clip-rule="evenodd" d="M164.139 50.7023C160.874 50.7023 157.468 48.0116 157.468 42.1198C157.468 36.8775 160.641 33.9549 163.953 33.9549C166.565 33.9549 168.105 35.1611 169.318 37.2487L175.289 33.3054C172.303 28.8054 168.758 26.9033 163.86 26.9033C154.903 26.9033 150.051 33.8157 150.051 42.1662C150.051 50.9342 155.416 57.8002 163.766 57.8002C169.644 57.8002 172.443 55.759 175.476 51.3982L169.458 47.3714C168.245 49.3105 166.939 50.7023 164.139 50.7023Z" fill="#ED0007"/>
<path fill-rule="evenodd" clip-rule="evenodd" d="M195.209 27.5996V38.4553H186.206V27.5996H178.415V57.1048H186.206V45.4604H195.209V57.1048H203V27.5996H195.209Z" fill="#ED0007"/>
<path d="M23.4859 20.084C19.0386 20.084 14.6912 21.3954 10.9934 23.8525C7.29563 26.3095 4.41355 29.8018 2.71165 33.8877C1.00974 37.9736 0.564447 42.4696 1.43207 46.8072C2.29969 51.1448 4.44127 55.1291 7.58598 58.2563C10.7307 61.3835 14.7373 63.5132 19.0991 64.376C23.461 65.2388 27.9821 64.796 32.0909 63.1035C36.1997 61.4111 39.7115 58.545 42.1823 54.8678C44.6531 51.1906 45.9718 46.8674 45.9718 42.4448C45.9718 36.5143 43.6028 30.8268 39.3859 26.6333C35.1689 22.4399 29.4496 20.084 23.4859 20.084ZM23.4859 62.718C19.4538 62.718 15.5123 61.529 12.1597 59.3014C8.80717 57.0737 6.19417 53.9075 4.65116 50.203C3.10814 46.4986 2.70442 42.4223 3.49104 38.4897C4.27766 34.5571 6.2193 30.9448 9.07042 28.1095C11.9215 25.2742 15.5541 23.3434 19.5087 22.5612C23.4633 21.7789 27.5624 22.1804 31.2875 23.7148C35.0127 25.2492 38.1967 27.8477 40.4368 31.1816C42.6769 34.5155 43.8725 38.4352 43.8725 42.4448C43.8713 47.8212 41.723 52.9771 37.9001 56.7788C34.0771 60.5805 28.8924 62.7168 23.4859 62.718Z" fill="black"/>
<path d="M32.7695 28.4805H31.23V36.1351H15.7884V28.4805H14.2023C11.8791 30.0046 9.97249 32.0781 8.65329 34.5151C7.3341 36.9522 6.64355 39.6767 6.64355 42.4444C6.64355 45.2121 7.3341 47.9366 8.65329 50.3736C9.97249 52.8107 11.8791 54.8842 14.2023 56.4083H15.7884V48.7629H31.23V56.4176H32.7695C35.0937 54.8942 37.0013 52.821 38.3212 50.3838C39.6411 47.9467 40.3321 45.2218 40.3321 42.4537C40.3321 39.6855 39.6411 36.9607 38.3212 34.5235C37.0013 32.0864 35.0937 30.0131 32.7695 28.4897V28.4805ZM13.6425 53.4021C12.1957 52.1237 11.0162 50.5744 10.1715 48.8427C9.32686 47.111 8.83346 45.2308 8.71953 43.3095C8.6056 41.3881 8.87336 39.4633 9.50753 37.6449C10.1417 35.8264 11.1299 34.15 12.4156 32.7114C12.8009 32.2833 13.2106 31.8775 13.6425 31.4959V53.4021ZM31.23 46.6289H15.7884V38.2227H31.23V46.6289ZM33.3293 53.3557V48.7166V36.1351V31.4959C34.7726 32.7847 35.9464 34.3437 36.7836 36.0837C37.6208 37.8238 38.105 39.7109 38.2085 41.6371C38.312 43.5633 38.0329 45.4909 37.387 47.3098C36.7411 49.1287 35.7412 50.8032 34.4443 52.2377C34.0915 52.6256 33.7194 52.9956 33.3293 53.3464V53.3557Z" fill="black"/>
</g>
</g>
<defs>
<clipPath id="clip0_3001_8851">
<rect width="203" height="85" fill="white"/>
</clipPath>
<clipPath id="clip1_3001_8851">
<rect width="202" height="45" fill="white" transform="translate(1 20)"/>
</clipPath>
</defs>
</svg>
