<svg width="203" height="85" viewBox="0 0 203 85" fill="none" xmlns="http://www.w3.org/2000/svg">
<g clip-path="url(#clip0_3001_8763)">
<g clip-path="url(#clip1_3001_8763)">
<path d="M7.85123 49.3118C9.7969 50.3475 12.7559 51.3434 16.2014 51.3434C18.593 51.3434 21.3899 50.8654 21.3899 48.7541C21.3899 43.7747 7.04053 46.603 7.04053 36.4451C7.04053 29.7129 13.364 28 19.0794 28C22.768 28 25.6055 28.5975 27.7538 29.2747L27.0647 35.2898C25.0785 34.4931 22.5248 33.6566 19.6874 33.6566C17.7823 33.6566 14.8232 33.7761 14.8232 36.206C14.8232 40.6277 29.2536 38.3173 29.2536 48.1168C29.2536 55.3668 22.5654 57 16.2419 57C12.4317 57 8.90514 56.2431 7 55.6456L7.85123 49.3118Z" fill="black"/>
<path d="M55.0742 28.5176H31.1587V34.214H39.3467V56.4818H46.8862V34.214H55.0742V28.5176Z" fill="black"/>
<path d="M189.285 28.5176L183.772 39.7511L178.178 28.5176H169.464L179.962 45.9255V56.4818H187.542V45.9255L198 28.5176H189.285Z" fill="black"/>
<path d="M87.7048 28.5176V56.4818H95.0011V41.4242L107.364 56.4818H113.566V52.2593L93.9472 28.5176H87.7048Z" fill="black"/>
<path d="M113.566 42.6591V28.5176H101.973L113.566 42.6591Z" fill="black"/>
<path d="M153.047 45.1687H165.005V39.5917H153.047V34.0148H166.18V28.5176H145.264V56.4818H166.626V50.9049H153.047V45.1687Z" fill="black"/>
<path d="M128.28 28.5176H120.497V56.4818H140.684V50.7058H128.28V28.5176Z" fill="black"/>
<path d="M75.5849 56.482H83.5703L72.9907 28.5576H64.1947L53.7772 56.482H61.1546L63.1002 50.9051H73.7609L75.5849 56.482ZM64.8027 45.6071L68.4914 34.3735L72.0179 45.6071H64.8027Z" fill="black"/>
<path d="M193.46 51.0645C195.001 51.0645 196.257 52.2595 196.257 53.7732C196.257 55.287 195.001 56.482 193.46 56.482C191.879 56.482 190.623 55.287 190.623 53.7732C190.623 52.2595 191.879 51.0645 193.46 51.0645ZM193.42 51.6221C192.244 51.6221 191.312 52.5782 191.312 53.7732C191.312 54.9683 192.244 55.9243 193.46 55.9243C194.636 55.9243 195.568 54.9683 195.568 53.7732C195.527 52.5782 194.636 51.6221 193.42 51.6221ZM193.014 55.1675H192.366V52.4587C192.609 52.4188 192.974 52.379 193.42 52.379C193.947 52.379 194.149 52.4587 194.352 52.5782C194.514 52.6977 194.636 52.8969 194.636 53.1359C194.636 53.4546 194.393 53.6936 194.068 53.7732V53.8131C194.352 53.8927 194.474 54.0919 194.555 54.4903C194.636 54.8886 194.717 55.048 194.757 55.1276H194.109C194.028 55.048 193.987 54.8089 193.906 54.4903C193.866 54.2114 193.703 54.0919 193.339 54.0919H193.055V55.1675H193.014ZM193.014 53.6537H193.298C193.663 53.6537 193.947 53.5342 193.947 53.2554C193.947 53.0164 193.744 52.857 193.379 52.857C193.217 52.857 193.095 52.857 193.014 52.8969V53.6537Z" fill="black"/>
</g>
</g>
<defs>
<clipPath id="clip0_3001_8763">
<rect width="203" height="85" fill="white"/>
</clipPath>
<clipPath id="clip1_3001_8763">
<rect width="191" height="29" fill="white" transform="translate(7 28)"/>
</clipPath>
</defs>
</svg>
