<svg width="203" height="85" viewBox="0 0 203 85" fill="none" xmlns="http://www.w3.org/2000/svg">
<g clip-path="url(#clip0_3001_9237)">
<path d="M176.846 52.9782H199.94V37.3125L176.846 52.9782ZM187.061 37.3125L173.467 52.9782L190.596 41.3702L187.061 37.3125ZM173.466 37.3125V50.1046L180.461 42.0478L173.466 37.3125Z" fill="#FE3D40"/>
<path d="M44.2129 38.6462V37.3121H40.4823V52.9778H44.244V44.3813C44.244 42.0175 45.5998 40.4902 47.6978 40.4902C48.5313 40.4902 49.4536 40.6867 50.0804 40.9913L50.9716 37.3021C50.236 37.0373 49.4548 36.9137 48.4668 36.9137C46.6799 36.9137 45.2208 37.5096 44.2129 38.6462ZM88.5126 49.8316C85.9033 49.8316 84.0808 47.9049 84.0808 45.146C84.0808 42.385 85.9033 40.4582 88.5126 40.4582C91.123 40.4582 92.9432 42.385 92.9432 45.146C92.9432 47.9049 91.123 49.8316 88.5126 49.8316ZM92.7354 38.9497C91.7175 37.6807 90.3028 36.9137 88.1125 36.9137C83.6141 36.9137 80.2236 40.4527 80.2236 45.146C80.2236 49.8372 83.6141 53.3762 88.1125 53.3762C90.2917 53.3762 91.7008 52.6236 92.7354 51.3037V52.9778H96.4982V37.3121H92.7354V38.9497ZM122.566 49.8316C119.958 49.8316 118.137 47.9049 118.137 45.146C118.137 42.385 119.958 40.4582 122.566 40.4582C125.176 40.4582 126.998 42.385 126.998 45.146C126.998 47.9049 125.176 49.8316 122.566 49.8316ZM126.789 38.9497C125.771 37.6807 124.356 36.9137 122.165 36.9137C117.67 36.9137 114.277 40.4527 114.277 45.146C114.277 49.8372 117.67 53.3762 122.165 53.3762C124.344 53.3762 125.753 52.6236 126.789 51.3037V52.9778H130.552V37.3121H126.789V38.9497ZM159.838 49.8316C157.23 49.8316 155.408 47.9049 155.408 45.146C155.408 42.385 157.23 40.4582 159.838 40.4582C162.448 40.4582 164.27 42.385 164.27 45.146C164.27 47.9049 162.448 49.8316 159.838 49.8316ZM164.06 38.9497C163.043 37.6807 161.629 36.9137 159.437 36.9137C154.941 36.9137 151.549 40.4527 151.549 45.146C151.549 49.8372 154.941 53.3762 159.437 53.3762C161.618 53.3762 163.026 52.6236 164.06 51.3037V52.9778H167.823V37.3121H164.06V38.9497ZM141.859 49.8316C139.25 49.8316 137.427 47.9049 137.427 45.146C137.427 42.3861 139.25 40.4582 141.859 40.4582C144.467 40.4582 146.29 42.3861 146.29 45.146C146.29 47.9049 144.467 49.8316 141.859 49.8316ZM142.26 36.9137C140.397 36.9137 138.815 37.5582 137.652 38.7842V32.6221H133.89V52.9778H137.652V51.3049C138.68 52.6666 140.297 53.3784 142.26 53.3784C146.757 53.3784 150.146 49.8383 150.146 45.146C150.146 40.4538 146.757 36.9137 142.26 36.9137ZM114.833 37.3132H110.065L104.995 43.1111H103.61V32.6221H99.832V52.9767H103.61V46.5431H104.975L110.092 52.9767H114.865L108.211 44.7057L114.833 37.3132ZM71.8491 36.9148C70.0666 36.9148 67.6785 37.3673 66.2327 39.4706C65.0826 37.8418 63.1689 36.9148 60.9253 36.9148C59.5662 36.9148 57.7371 37.2525 56.4146 38.7809V37.3121H52.6685V52.9778H56.4469V44.3173C56.4469 41.6743 58.3416 40.4902 60.2196 40.4902C62.3633 40.4902 63.5923 41.8741 63.5923 44.2853V52.9789H67.3695V44.3162C67.3695 41.6743 69.2654 40.4902 71.1434 40.4902C73.2871 40.4902 74.5161 41.8741 74.5161 44.2853V52.9789H78.2933V43.1862C78.2933 39.4927 75.6441 36.9137 71.848 36.9137M29.8408 49.8316C27.1715 49.8316 25.2346 47.8607 25.2346 45.146C25.2346 42.4303 27.1715 40.4582 29.8408 40.4582C32.5201 40.4582 34.4648 42.4303 34.4648 45.146C34.4648 47.8607 32.519 49.8316 29.8408 49.8316ZM29.8419 36.9137C25.0157 36.9137 21.3763 40.4527 21.3763 45.146C21.3763 49.8372 25.0157 53.3762 29.8408 53.3762C34.676 53.3762 38.3232 49.8372 38.3232 45.146C38.3232 40.4527 34.6771 36.9137 29.8419 36.9137ZM11.3482 49.8316C8.74001 49.8316 6.91864 47.9049 6.91864 45.146C6.91864 42.3861 8.74112 40.4582 11.3493 40.4582C13.9574 40.4582 15.7799 42.3861 15.7799 45.146C15.7799 47.9049 13.9563 49.8316 11.3482 49.8316ZM15.5721 38.8118C14.4053 37.567 12.8184 36.9137 10.9481 36.9137C6.44968 36.9137 3.0603 40.4527 3.0603 45.146C3.0603 49.8372 6.45079 53.3773 10.9481 53.3773C13.2818 53.3773 14.4664 52.5905 15.571 51.3026V52.9778H19.3338V32.6221H15.5721V38.8118Z" fill="#003596"/>
</g>
<defs>
<clipPath id="clip0_3001_9237">
<rect width="203" height="85" fill="white"/>
</clipPath>
</defs>
</svg>
