<svg width="32" height="32" viewBox="0 0 32 32" fill="none" xmlns="http://www.w3.org/2000/svg">
<path fill-rule="evenodd" clip-rule="evenodd" d="M5.45127 4C7.20728 4 8.75796 5.14529 9.27438 6.82366L9.32864 7H25.4014C27.2059 7 28.6021 8.58155 28.3783 10.3721L27.8514 14.5868C27.6818 15.9442 26.6153 17.015 25.2585 17.19L11.9142 18.9119C11.756 19.15 11.5598 19.3664 11.3286 19.5514C10.7281 20.0317 11.0678 21 11.8367 21H25.667C26.2193 21 26.667 21.4477 26.667 22C26.667 22.5523 26.2193 23 25.667 23H11.8367C9.17723 23 8.00246 19.651 10.0792 17.9896C10.3399 17.7811 10.4467 17.4343 10.3485 17.1152L7.36282 7.41183C7.10461 6.57264 6.32928 6 5.45127 6H3.66699C3.11471 6 2.66699 5.55228 2.66699 5C2.66699 4.44772 3.11471 4 3.66699 4H5.45127ZM12.3372 16.8407L25.0026 15.2065C25.4548 15.1481 25.8103 14.7912 25.8669 14.3387L26.3937 10.124C26.4683 9.52718 26.0029 9 25.4014 9H9.94399L12.2601 16.5271C12.292 16.6309 12.3177 16.7356 12.3372 16.8407Z" fill="#51801A"/>
<path d="M8.66699 26C8.66699 24.8954 9.56242 24 10.667 24C11.7716 24 12.667 24.8954 12.667 26C12.667 27.1046 11.7716 28 10.667 28C9.56242 28 8.66699 27.1046 8.66699 26Z" fill="#51801A"/>
<path d="M22.667 24C21.5624 24 20.667 24.8954 20.667 26C20.667 27.1046 21.5624 28 22.667 28C23.7716 28 24.667 27.1046 24.667 26C24.667 24.8954 23.7716 24 22.667 24Z" fill="#51801A"/>
</svg>
