<svg width="49" height="48" viewBox="0 0 49 48" fill="none" xmlns="http://www.w3.org/2000/svg">
<path d="M24.5002 44.6172C24.432 44.6172 24.364 44.6098 24.2974 44.595C19.2767 43.482 15.2935 41.0932 12.4587 37.4949C10.2035 34.6324 8.68171 31.0158 7.93527 26.7453C6.67902 19.5596 8.03839 13.0665 8.0968 12.7936C8.13546 12.6131 8.22657 12.448 8.35869 12.319C8.49082 12.1901 8.65807 12.103 8.83949 12.0687C19.8687 9.98513 23.6614 3.89663 23.6979 3.83541C23.7814 3.69729 23.8991 3.58306 24.0397 3.50377C24.1802 3.42447 24.3389 3.38281 24.5003 3.38281C24.6617 3.38281 24.8203 3.42447 24.9609 3.50377C25.1015 3.58306 25.2192 3.69729 25.3026 3.83541C25.3103 3.84798 26.27 5.3882 28.5675 7.1627C30.691 8.80276 34.426 10.9854 40.161 12.0687C40.3424 12.103 40.5097 12.1901 40.6418 12.319C40.7739 12.448 40.865 12.6131 40.9037 12.7936C40.9621 13.0665 42.3211 19.5596 41.0652 26.7453C40.3189 31.0158 38.797 34.6324 36.5419 37.4949C33.7071 41.0932 29.7239 43.482 24.7032 44.595C24.6366 44.6098 24.5685 44.6172 24.5002 44.6172ZM9.81983 13.7861C9.52367 15.5344 8.79927 20.8534 9.79086 26.4719C10.4881 30.4222 11.8868 33.7476 13.9481 36.3556C16.4692 39.5454 20.019 41.6856 24.5002 42.7186C28.9815 41.6856 32.5313 39.5454 35.0524 36.3556C37.1136 33.7476 38.5123 30.4222 39.2095 26.4719C40.2012 20.8534 39.4769 15.5343 39.1806 13.7861C30.5101 11.9939 26.1513 7.86395 24.5002 5.88798C22.8496 7.86376 18.4909 11.9937 9.81983 13.7861Z" fill="#51801A"/>
<path d="M24.5006 35.0699C22.5336 35.0699 20.6109 34.4866 18.9755 33.3939C17.34 32.3011 16.0654 30.7479 15.3127 28.9307C14.56 27.1134 14.363 25.1138 14.7468 23.1847C15.1305 21.2556 16.0777 19.4836 17.4685 18.0927C18.8594 16.7019 20.6314 15.7547 22.5605 15.371C24.4897 14.9873 26.4893 15.1842 28.3065 15.937C30.1237 16.6897 31.6769 17.9644 32.7696 19.5998C33.8624 21.2352 34.4457 23.158 34.4457 25.1249C34.4427 27.7616 33.3939 30.2895 31.5295 32.1539C29.6651 34.0183 27.1373 35.067 24.5006 35.0699ZM24.5006 17.0549C22.9045 17.055 21.3442 17.5283 20.0171 18.415C18.6901 19.3018 17.6557 20.5621 17.0449 22.0367C16.4341 23.5113 16.2743 25.134 16.5857 26.6994C16.8971 28.2648 17.6657 29.7027 18.7943 30.8313C19.923 31.9599 21.3609 32.7285 22.9263 33.0399C24.4917 33.3513 26.1144 33.1914 27.5889 32.5806C29.0635 31.9698 30.3239 30.9355 31.2106 29.6084C32.0974 28.2813 32.5707 26.721 32.5707 25.1249C32.5682 22.9854 31.7172 20.9342 30.2043 19.4213C28.6914 17.9084 26.6401 17.0574 24.5006 17.0549Z" fill="#82252F"/>
<path d="M23.4786 29.5364C23.2415 29.5367 23.0132 29.4468 22.8398 29.285L19.0242 25.7318C18.9341 25.6479 18.8614 25.5471 18.8103 25.4351C18.7591 25.3231 18.7306 25.2021 18.7262 25.0791C18.7218 24.956 18.7417 24.8333 18.7847 24.718C18.8278 24.6026 18.8931 24.4969 18.977 24.4068C19.0609 24.3167 19.1618 24.244 19.2738 24.1929C19.3858 24.1417 19.5068 24.1132 19.6298 24.1088C19.7528 24.1044 19.8755 24.1243 19.9909 24.1673C20.1062 24.2104 20.212 24.2757 20.3021 24.3596L23.4553 27.2962L29.3367 21.4148C29.5125 21.2389 29.751 21.1401 29.9996 21.1401C30.2483 21.1401 30.4867 21.2389 30.6625 21.4147C30.8384 21.5905 30.9372 21.829 30.9372 22.0776C30.9372 22.3263 30.8384 22.5647 30.6626 22.7406L24.1413 29.2617C24.0544 29.3489 23.9511 29.418 23.8374 29.4652C23.7237 29.5123 23.6017 29.5365 23.4786 29.5364Z" fill="#51801A"/>
</svg>
