<svg width="49" height="48" viewBox="0 0 49 48" fill="none" xmlns="http://www.w3.org/2000/svg">
<g clip-path="url(#clip0_476_16649)">
<path d="M34.43 36.4377C34.376 35.7284 33.8123 35.1647 33.1029 35.1106C32.3094 35.1711 31.7153 35.8632 31.7757 36.6566C31.8297 37.3659 32.3934 37.9296 33.1029 37.9837C33.8963 37.9233 34.4904 37.2311 34.43 36.4377Z" fill="#82252F"/>
<path d="M37.9456 35.2051C37.8916 34.4958 37.3279 33.9321 36.6185 33.8779C35.825 33.9384 35.231 34.6306 35.2913 35.4239C35.3454 36.1332 35.9091 36.6969 36.6185 36.751C37.4119 36.6907 38.006 35.9984 37.9456 35.2051Z" fill="#82252F"/>
<path d="M48.4934 13.2917V13.225C48.4752 13.1787 48.4529 13.1342 48.4268 13.0918L48.3769 13.0252L48.2769 12.9169L48.2186 12.8669L48.1104 12.817H48.0687L29.9806 5.42183C29.7803 5.34084 29.5563 5.34084 29.356 5.42183L11.3096 12.692H11.2679L11.1597 12.742L11.1014 12.792L11.0014 12.9002L10.9515 12.9669C10.9253 13.0092 10.9031 13.0538 10.8848 13.1001V13.1667C10.8761 13.2359 10.8761 13.3058 10.8848 13.3749V20.0372H1.33279C0.87288 20.0372 0.5 20.4101 0.5 20.87C0.5 21.3299 0.87288 21.7028 1.33279 21.7028V21.811H10.7849V24.6592H7.54537C7.08546 24.6592 6.71258 25.0321 6.71258 25.492C6.71258 25.9519 7.08546 26.3247 7.54537 26.3247H10.7849V29.1729H3.10662C2.64671 29.1729 2.27383 29.5458 2.27383 30.0057C2.27383 30.4656 2.64671 30.8384 3.10662 30.8384H10.7849V34.3195C10.7866 34.6557 10.9903 34.9579 11.3012 35.0857L29.356 42.5807C29.4463 42.6165 29.5422 42.6362 29.6392 42.639C29.7362 42.6362 29.8321 42.6165 29.9223 42.5807L47.9771 35.0857C48.2881 34.9579 48.4918 34.6557 48.4934 34.3195V13.4998C48.5022 13.4307 48.5022 13.3608 48.4934 13.2917ZM29.6642 7.11238L36.5097 9.85224L20.9366 16.4396L13.8162 13.4749L29.6642 7.11238ZM28.8064 40.5737L12.4505 33.7615V30.8301H15.9065C16.3664 30.8301 16.7393 30.4572 16.7393 29.9973C16.7393 29.5374 16.3664 29.1645 15.9065 29.1645H12.4505V26.3164H20.3619C20.8218 26.3164 21.1947 25.9435 21.1947 25.4836C21.1947 25.0237 20.8218 24.6508 20.3619 24.6508H12.4505V21.811H14.116C14.576 21.811 14.9488 21.4382 14.9488 20.9783C14.9488 20.5184 14.576 20.1455 14.116 20.1455H12.4505V14.7157L18.813 17.3473L28.8064 21.5112V40.5737ZM29.6725 20.1038L23.0935 17.3473L38.6832 10.735L45.5037 13.4832L35.5686 17.6471L29.6725 20.1038ZM30.4969 40.5737V21.5112L35.1855 19.5625L46.8445 14.6991L46.8862 33.7615L30.4969 40.5737Z" fill="#51801A"/>
</g>
<defs>
<clipPath id="clip0_476_16649">
<rect width="48" height="48" fill="white" transform="translate(0.5)"/>
</clipPath>
</defs>
</svg>
