<svg width="49" height="48" viewBox="0 0 49 48" fill="none" xmlns="http://www.w3.org/2000/svg">
<path d="M24.2207 4C17.8787 4 12.8052 9.07357 12.8052 15.4155V20.4891C10.6489 20.4891 9 22.138 9 24.2943V40.7834C9 42.9396 10.6489 44.5885 12.8052 44.5885H35.6362C37.7925 44.5885 39.4414 42.9396 39.4414 40.7834V24.2943C39.4414 22.138 37.7925 20.4891 35.6362 20.4891V15.4155C35.6362 9.07357 30.5627 4 24.2207 4ZM36.9046 24.2943V40.7834C36.9046 41.5444 36.3973 42.0518 35.6362 42.0518H12.8052C12.0441 42.0518 11.5368 41.5444 11.5368 40.7834V24.2943C11.5368 23.5332 12.0441 23.0259 12.8052 23.0259H14.0736H34.3678H35.6362C36.3973 23.0259 36.9046 23.5332 36.9046 24.2943ZM15.342 20.4891V15.4155C15.342 10.4688 19.274 6.53678 24.2207 6.53678C29.1674 6.53678 33.0994 10.4688 33.0994 15.4155V20.4891H15.342Z" fill="#51801A"/>
<path d="M24.2212 26.8311C22.0649 26.8311 20.416 28.48 20.416 30.6362C20.416 32.2851 21.4307 33.6804 22.9528 34.1877V36.9782C22.9528 37.7392 23.4602 38.2466 24.2212 38.2466C24.9822 38.2466 25.4896 37.7392 25.4896 36.9782V34.1877C27.0117 33.6804 28.0264 32.2851 28.0264 30.6362C28.0264 28.48 26.3775 26.8311 24.2212 26.8311ZM24.2212 31.9046C23.4602 31.9046 22.9528 31.3973 22.9528 30.6362C22.9528 29.8752 23.4602 29.3678 24.2212 29.3678C24.9822 29.3678 25.4896 29.8752 25.4896 30.6362C25.4896 31.3973 24.9822 31.9046 24.2212 31.9046Z" fill="#82252F"/>
</svg>
