<svg width="20" height="21" viewBox="0 0 20 21" fill="none" xmlns="http://www.w3.org/2000/svg">
<path d="M9.16602 14.6667H10.8327V9.66666H9.16602V14.6667ZM9.99935 7.99999C10.2355 7.99999 10.4335 7.91999 10.5935 7.75999C10.7535 7.59999 10.8332 7.40221 10.8327 7.16666C10.8321 6.9311 10.7521 6.73332 10.5927 6.57332C10.4332 6.41332 10.2355 6.33332 9.99935 6.33332C9.76324 6.33332 9.56546 6.41332 9.40602 6.57332C9.24657 6.73332 9.16657 6.9311 9.16602 7.16666C9.16546 7.40221 9.24546 7.60027 9.40602 7.76082C9.56657 7.92138 9.76435 8.0011 9.99935 7.99999ZM9.99935 18.8333C8.84657 18.8333 7.76324 18.6144 6.74935 18.1767C5.73546 17.7389 4.85352 17.1453 4.10352 16.3958C3.35352 15.6464 2.75991 14.7644 2.32268 13.75C1.88546 12.7355 1.66657 11.6522 1.66602 10.5C1.66546 9.34777 1.88435 8.26443 2.32268 7.24999C2.76102 6.23555 3.35463 5.3536 4.10352 4.60416C4.85241 3.85471 5.73435 3.2611 6.74935 2.82332C7.76435 2.38555 8.84768 2.16666 9.99935 2.16666C11.151 2.16666 12.2343 2.38555 13.2493 2.82332C14.2643 3.2611 15.1463 3.85471 15.8952 4.60416C16.6441 5.3536 17.238 6.23555 17.6768 7.24999C18.1157 8.26443 18.3344 9.34777 18.3327 10.5C18.331 11.6522 18.1121 12.7355 17.676 13.75C17.2399 14.7644 16.6463 15.6464 15.8952 16.3958C15.1441 17.1453 14.2621 17.7392 13.2493 18.1775C12.2366 18.6158 11.1532 18.8344 9.99935 18.8333ZM9.99935 17.1667C11.8605 17.1667 13.4368 16.5208 14.7285 15.2292C16.0202 13.9375 16.666 12.3611 16.666 10.5C16.666 8.63888 16.0202 7.06249 14.7285 5.77082C13.4368 4.47916 11.8605 3.83332 9.99935 3.83332C8.13824 3.83332 6.56185 4.47916 5.27018 5.77082C3.97852 7.06249 3.33268 8.63888 3.33268 10.5C3.33268 12.3611 3.97852 13.9375 5.27018 15.2292C6.56185 16.5208 8.13824 17.1667 9.99935 17.1667Z" fill="#51801A"/>
</svg>
