<svg width="48" height="48" viewBox="0 0 48 48" fill="none" xmlns="http://www.w3.org/2000/svg">
<path d="M39.586 26.292L40.294 25.584L41 26.292L40.294 27L39.586 26.292ZM6.586 10.292C6.586 10.0268 6.69135 9.77242 6.87889 9.58489C7.06643 9.39735 7.32078 9.292 7.586 9.292C7.85121 9.292 8.10557 9.39735 8.2931 9.58489C8.48064 9.77242 8.586 10.0268 8.586 10.292L6.586 10.292ZM30.294 15.584L40.294 25.584L38.878 27L28.878 17L30.294 15.584ZM40.294 27L30.294 37L28.878 35.584L38.878 25.584L40.294 27ZM39.586 27.292L19.586 27.292L19.586 25.292L39.586 25.292L39.586 27.292ZM6.586 14.292L6.586 10.292L8.586 10.292L8.586 14.292L6.586 14.292ZM19.586 27.292C16.1382 27.292 12.8316 25.9224 10.3936 23.4844C7.95564 21.0464 6.586 17.7398 6.586 14.292L8.586 14.292C8.586 17.2094 9.74492 20.0073 11.8078 22.0702C13.8707 24.1331 16.6686 25.292 19.586 25.292L19.586 27.292Z" fill="#CECBCB"/>
</svg>
