<svg width="8" height="14" viewBox="0 0 8 14" fill="none" xmlns="http://www.w3.org/2000/svg">
<path d="M8.00073 7.0318C8.00149 6.90025 7.97627 6.76984 7.92653 6.64806C7.87679 6.52627 7.80349 6.4155 7.71085 6.3221L1.71337 0.324623C1.52515 0.136399 1.26986 0.030655 1.00367 0.030655C0.73748 0.0306549 0.482193 0.136398 0.293968 0.324623C0.105744 0.512848 -3.22363e-08 0.768135 -4.38718e-08 1.03432C-5.55073e-08 1.30051 0.105743 1.5558 0.293968 1.74403L5.59174 7.0318L0.303964 12.3196C0.140206 12.5108 0.0546355 12.7568 0.0643525 13.0083C0.0740696 13.2599 0.178359 13.4986 0.356378 13.6766C0.534398 13.8546 0.773037 13.9589 1.02461 13.9686C1.27618 13.9783 1.52215 13.8927 1.71337 13.729L7.71085 7.73151C7.89552 7.54533 7.99962 7.29403 8.00073 7.0318Z" fill="#3A2C2A"/>
</svg>
