<svg width="8" height="14" viewBox="0 0 8 14" fill="none" xmlns="http://www.w3.org/2000/svg">
<path d="M-0.000727347 7.0318C-0.00148839 6.90025 0.0237263 6.76984 0.0734699 6.64806C0.123214 6.52627 0.196508 6.4155 0.28915 6.3221L6.28663 0.324623C6.47485 0.136399 6.73014 0.030655 6.99633 0.030655C7.26252 0.0306549 7.51781 0.136398 7.70603 0.324623C7.89426 0.512848 8 0.768135 8 1.03432C8 1.30051 7.89426 1.5558 7.70603 1.74403L2.40826 7.0318L7.69604 12.3196C7.85979 12.5108 7.94536 12.7568 7.93565 13.0083C7.92593 13.2599 7.82164 13.4986 7.64362 13.6766C7.4656 13.8546 7.22696 13.9589 6.97539 13.9686C6.72382 13.9783 6.47785 13.8927 6.28663 13.729L0.28915 7.73151C0.104483 7.54533 0.000376542 7.29403 -0.000727347 7.0318Z" fill="#3A2C2A"/>
</svg>
