<svg width="80" height="80" viewBox="0 0 80 80" fill="none" xmlns="http://www.w3.org/2000/svg">
<g clip-path="url(#clip0_505_24831)">
<g clip-path="url(#clip1_505_24831)">
<path d="M37.5 53.3333C36.8833 53.3333 36.2767 53.1067 35.8033 52.67L25.69 43.3333H9.16667C4.11 43.3333 0 39.2233 0 34.1667V9.16667C0 4.11 4.11 0 9.16667 0H40.8333C45.89 0 50 4.11 50 9.16667V34.1667C50 39.2233 45.89 43.3333 40.8333 43.3333H40V50.8333C40 51.8267 39.41 52.7233 38.5033 53.1233C38.18 53.2633 37.84 53.3333 37.5 53.3333Z" fill="#FFC107"/>
<path d="M61.666 58.3333C67.1889 58.3333 71.666 53.8562 71.666 48.3333C71.666 42.8105 67.1889 38.3333 61.666 38.3333C56.1432 38.3333 51.666 42.8105 51.666 48.3333C51.666 53.8562 56.1432 58.3333 61.666 58.3333Z" fill="#2196F3"/>
<path d="M70.834 63.3333H52.5007C47.444 63.3333 43.334 67.4433 43.334 72.5V77.5C43.334 78.88 44.454 80 45.834 80H77.5007C78.8807 80 80.0007 78.88 80.0007 77.5V72.5C80.0007 67.4433 75.8907 63.3333 70.834 63.3333Z" fill="#2196F3"/>
<path d="M13.3327 63.3333C17.0146 63.3333 19.9993 60.3486 19.9993 56.6667C19.9993 52.9848 17.0146 50 13.3327 50C9.65078 50 6.66602 52.9848 6.66602 56.6667C6.66602 60.3486 9.65078 63.3333 13.3327 63.3333Z" fill="#4CAF50"/>
<path d="M17.5 66.6667H9.16667C4.11 66.6667 0 70.7767 0 75.8333V77.5C0 78.88 1.12 80 2.5 80H24.1667C25.5467 80 26.6667 78.88 26.6667 77.5V75.8333C26.6667 70.7767 22.5567 66.6667 17.5 66.6667Z" fill="#4CAF50"/>
<path d="M25 26.6667C23.62 26.6667 22.5 25.5467 22.5 24.1667V12.5C22.5 11.12 23.62 10 25 10C26.38 10 27.5 11.12 27.5 12.5V24.1667C27.5 25.5467 26.38 26.6667 25 26.6667Z" fill="#FAFAFA"/>
<path d="M25 35C26.3807 35 27.5 33.8807 27.5 32.5C27.5 31.1193 26.3807 30 25 30C23.6193 30 22.5 31.1193 22.5 32.5C22.5 33.8807 23.6193 35 25 35Z" fill="#FAFAFA"/>
</g>
</g>
<defs>
<clipPath id="clip0_505_24831">
<rect width="80" height="80" fill="white"/>
</clipPath>
<clipPath id="clip1_505_24831">
<rect width="80" height="80" fill="white"/>
</clipPath>
</defs>
</svg>
