<svg width="16" height="16" viewBox="0 0 16 16" fill="none" xmlns="http://www.w3.org/2000/svg">
<g clip-path="url(#clip0_505_24994)">
<path d="M8.08914 1.06372L9.91107 4.66976C10.042 4.92886 10.2898 5.10893 10.5767 5.15336L14.5692 5.77179C14.6502 5.78433 14.6825 5.88363 14.6243 5.94135L11.7578 8.78843C11.5518 8.99301 11.4572 9.28436 11.5036 9.57092L12.1492 13.5592C12.1622 13.64 12.0778 13.7014 12.0049 13.664L8.41138 11.8175C8.15317 11.6848 7.84683 11.6848 7.58862 11.8175L3.99507 13.664C3.92222 13.7014 3.83775 13.64 3.85084 13.5592L4.49645 9.57092C4.54284 9.28436 4.44817 8.99301 4.2422 8.78843L1.37566 5.94135C1.31754 5.88363 1.3498 5.78433 1.43075 5.77179L5.42331 5.15336C5.71018 5.10893 5.95802 4.92886 6.08893 4.66976L7.91086 1.06372C7.9478 0.99061 8.0522 0.99061 8.08914 1.06372Z" stroke="#CECBCB" stroke-width="0.800255"/>
</g>
<defs>
<clipPath id="clip0_505_24994">
<rect width="16" height="16" fill="white"/>
</clipPath>
</defs>
</svg>
