<svg width="80" height="80" viewBox="0 0 80 80" fill="none" xmlns="http://www.w3.org/2000/svg">
<g clip-path="url(#clip0_505_28320)">
<g clip-path="url(#clip1_505_28320)">
<path d="M39.9987 34.22L26.6087 43.3333L30.712 27.1267L18.332 16.55L34.2587 15.65L39.9987 0L45.7387 15.65L61.6654 16.55L49.2854 27.1267L53.3887 43.3333L39.9987 34.22Z" fill="#FFC107"/>
<path d="M39.9987 63.3333C36.322 63.3333 33.332 60.3433 33.332 56.6667C33.332 52.99 36.322 50 39.9987 50C43.6754 50 46.6654 52.99 46.6654 56.6667C46.6654 60.3433 43.6754 63.3333 39.9987 63.3333Z" fill="#2196F3"/>
<path d="M50.8346 80H29.168C27.788 80 26.668 78.88 26.668 77.5V74.7233C26.668 70.28 30.5646 66.6667 35.358 66.6667H44.6446C49.438 66.6667 53.3346 70.28 53.3346 74.7233V77.5C53.3346 78.88 52.2146 80 50.8346 80Z" fill="#2196F3"/>
<path d="M39.9987 0L34.2587 15.65L18.332 16.55L30.712 27.1267L26.6087 43.3333L39.9987 34.22V0Z" fill="#DEA806"/>
<path d="M39.9987 50C36.322 50 33.332 52.99 33.332 56.6667C33.332 60.3433 36.322 63.3333 39.9987 63.3333V50Z" fill="#1D83D4"/>
<path d="M40.0013 66.6667H35.358C30.5646 66.6667 26.668 70.28 26.668 74.7233V77.5C26.668 78.88 27.788 80 29.168 80H40.0013V66.6667Z" fill="#1D83D4"/>
<path d="M8.33333 36.4933L3.18333 40L4.76333 33.7667L0 29.7L6.12667 29.3533L8.33333 23.3333L10.54 29.3533L16.6667 29.7L11.9033 33.7667L13.4833 40L8.33333 36.4933Z" fill="#FFC107"/>
<path d="M71.6654 36.4933L66.5154 40L68.0954 33.7667L63.332 29.7L69.4587 29.3533L71.6654 23.3333L73.872 29.3533L79.9987 29.7L75.2354 33.7667L76.8154 40L71.6654 36.4933Z" fill="#FFC107"/>
<path d="M8.33333 23.3333L6.12667 29.3533L0 29.7L4.76333 33.7667L3.18333 40L8.33333 36.4933V23.3333Z" fill="#DEA806"/>
<path d="M71.6654 23.3333L69.4587 29.3533L63.332 29.7L68.0954 33.7667L66.5154 40L71.6654 36.4933V23.3333Z" fill="#DEA806"/>
</g>
</g>
<defs>
<clipPath id="clip0_505_28320">
<rect width="80" height="80" fill="white"/>
</clipPath>
<clipPath id="clip1_505_28320">
<rect width="80" height="80" fill="white"/>
</clipPath>
</defs>
</svg>
