<svg width="25" height="25" viewBox="0 0 25 25" fill="none" xmlns="http://www.w3.org/2000/svg">
<g clip-path="url(#clip0_3003_10401)">
<path d="M0.774969 11.8364C0.775249 11.8361 0.775484 11.8358 0.775812 11.8355L5.67444 6.9605C6.04142 6.59529 6.635 6.59665 7.0003 6.96368C7.36555 7.33067 7.36414 7.92425 6.99716 8.2895L3.70822 11.5625H23.5625C24.0803 11.5625 24.5 11.9822 24.5 12.5C24.5 13.0178 24.0803 13.4375 23.5625 13.4375H3.70827L6.99711 16.7105C7.36409 17.0757 7.3655 17.6693 7.00025 18.0363C6.63495 18.4034 6.04133 18.4047 5.67439 18.0395L0.775764 13.1645C0.775484 13.1642 0.775249 13.1639 0.774921 13.1636C0.407749 12.7971 0.408922 12.2016 0.774969 11.8364Z" fill="#51801A"/>
</g>
<defs>
<clipPath id="clip0_3003_10401">
<rect width="24" height="24" fill="white" transform="translate(0.5 0.5)"/>
</clipPath>
</defs>
</svg>
