<svg width="48" height="48" viewBox="0 0 48 48" fill="none" xmlns="http://www.w3.org/2000/svg">
<path d="M16 38C17.0609 38 18.0783 37.5786 18.8284 36.8284C19.5786 36.0783 20 35.0609 20 34C20 32.9391 19.5786 31.9217 18.8284 31.1716C18.0783 30.4214 17.0609 30 16 30C14.9391 30 13.9217 30.4214 13.1716 31.1716C12.4214 31.9217 12 32.9391 12 34C12 35.0609 12.4214 36.0783 13.1716 36.8284C13.9217 37.5786 14.9391 38 16 38ZM36 38C37.0609 38 38.0783 37.5786 38.8284 36.8284C39.5786 36.0783 40 35.0609 40 34C40 32.9391 39.5786 31.9217 38.8284 31.1716C38.0783 30.4214 37.0609 30 36 30C34.9391 30 33.9217 30.4214 33.1716 31.1716C32.4214 31.9217 32 32.9391 32 34C32 35.0609 32.4214 36.0783 33.1716 36.8284C33.9217 37.5786 34.9391 38 36 38Z" stroke="#82252F" stroke-width="1.5" stroke-miterlimit="1.5" stroke-linecap="round" stroke-linejoin="round"/>
<path d="M20.1 34H30V13.2C30 12.8817 29.8736 12.5765 29.6485 12.3515C29.4235 12.1264 29.1183 12 28.8 12H2M11.3 34H7.2C7.04241 34 6.88637 33.969 6.74078 33.9087C6.59519 33.8484 6.4629 33.76 6.35147 33.6485C6.24004 33.5371 6.15165 33.4048 6.09134 33.2592C6.03104 33.1136 6 32.9576 6 32.8V23" stroke="#82252F" stroke-width="1.5" stroke-linecap="round"/>
<path d="M4 18H12" stroke="#82252F" stroke-width="1.5" stroke-linecap="round" stroke-linejoin="round"/>
<path d="M30 18H41.22C41.452 18.0001 41.6789 18.0673 41.8734 18.1937C42.0679 18.3201 42.2217 18.5001 42.316 18.712L45.896 26.768C45.9642 26.921 45.9996 27.0865 46 27.254V32.8C46 32.9576 45.969 33.1136 45.9087 33.2592C45.8484 33.4048 45.76 33.5371 45.6485 33.6485C45.5371 33.76 45.4048 33.8484 45.2592 33.9087C45.1136 33.969 44.9576 34 44.8 34H41M30 34H32" stroke="#82252F" stroke-width="1.5" stroke-linecap="round"/>
</svg>
