<svg width="52" height="52" viewBox="0 0 52 52" fill="none" xmlns="http://www.w3.org/2000/svg">
<path d="M14.0832 37H9.74984C9.15184 37 8.6665 36.5147 8.6665 35.9167C8.6665 35.3187 9.15184 34.8334 9.74984 34.8334H14.0832C14.6812 34.8334 15.1665 35.3187 15.1665 35.9167C15.1665 36.5147 14.6812 37 14.0832 37Z" fill="#51801A"/>
<path d="M49.2919 37H46.5835C45.9855 37 45.5002 36.5147 45.5002 35.9167C45.5002 35.3187 45.9855 34.8333 46.5835 34.8333H48.3927L49.853 27.0507C49.8335 23.0683 46.4319 19.6667 42.2502 19.6667H35.137L31.6899 34.8333H37.9169C38.5149 34.8333 39.0002 35.3187 39.0002 35.9167C39.0002 36.5147 38.5149 37 37.9169 37H30.3335C30.0042 37 29.6922 36.8505 29.4864 36.5927C29.2805 36.337 29.2025 35.999 29.2762 35.6783L33.2152 18.345C33.3279 17.8488 33.7655 17.5 34.2725 17.5H42.2502C47.6257 17.5 52.0002 21.8745 52.0002 27.25L50.3557 36.116C50.2604 36.6295 49.814 37 49.2919 37Z" fill="#51801A"/>
<path d="M42.2502 41.3333C39.2645 41.3333 36.8335 38.9045 36.8335 35.9167C36.8335 32.9288 39.2645 30.5 42.2502 30.5C45.2358 30.5 47.6668 32.9288 47.6668 35.9167C47.6668 38.9045 45.2358 41.3333 42.2502 41.3333ZM42.2502 32.6667C40.4583 32.6667 39.0002 34.1248 39.0002 35.9167C39.0002 37.7085 40.4583 39.1667 42.2502 39.1667C44.042 39.1667 45.5002 37.7085 45.5002 35.9167C45.5002 34.1248 44.042 32.6667 42.2502 32.6667Z" fill="#51801A"/>
<path d="M18.4167 41.3333C15.431 41.3333 13 38.9045 13 35.9167C13 32.9288 15.431 30.5 18.4167 30.5C21.4023 30.5 23.8333 32.9288 23.8333 35.9167C23.8333 38.9045 21.4023 41.3333 18.4167 41.3333ZM18.4167 32.6667C16.6248 32.6667 15.1667 34.1248 15.1667 35.9167C15.1667 37.7085 16.6248 39.1667 18.4167 39.1667C20.2085 39.1667 21.6667 37.7085 21.6667 35.9167C21.6667 34.1248 20.2085 32.6667 18.4167 32.6667Z" fill="#51801A"/>
<path d="M14.0835 17.5H5.41683C4.81883 17.5 4.3335 17.0147 4.3335 16.4167C4.3335 15.8187 4.81883 15.3334 5.41683 15.3334H14.0835C14.6815 15.3334 15.1668 15.8187 15.1668 16.4167C15.1668 17.0147 14.6815 17.5 14.0835 17.5Z" fill="#51801A"/>
<path d="M14.0832 24H3.24984C2.65184 24 2.1665 23.5147 2.1665 22.9167C2.1665 22.3187 2.65184 21.8334 3.24984 21.8334H14.0832C14.6812 21.8334 15.1665 22.3187 15.1665 22.9167C15.1665 23.5147 14.6812 24 14.0832 24Z" fill="#51801A"/>
<path d="M14.0833 30.5H1.08333C0.485333 30.5 0 30.0147 0 29.4167C0 28.8187 0.485333 28.3334 1.08333 28.3334H14.0833C14.6813 28.3334 15.1667 28.8187 15.1667 29.4167C15.1667 30.0147 14.6813 30.5 14.0833 30.5Z" fill="#51801A"/>
<path d="M30.3332 37H22.7498C22.1518 37 21.6665 36.5147 21.6665 35.9167C21.6665 35.3187 22.1518 34.8333 22.7498 34.8333H29.4687L34.3913 13.1667H9.74984C9.15184 13.1667 8.6665 12.6813 8.6665 12.0833C8.6665 11.4853 9.15184 11 9.74984 11H35.7498C36.0792 11 36.3912 11.1495 36.597 11.4073C36.8028 11.663 36.8808 12.001 36.8072 12.3217L31.3905 36.155C31.2778 36.6512 30.838 37 30.3332 37Z" fill="#51801A"/>
</svg>
