<svg width="36" height="36" viewBox="0 0 36 36" fill="none" xmlns="http://www.w3.org/2000/svg">
<path fill-rule="evenodd" clip-rule="evenodd" d="M6.13231 4.5C8.10783 4.5 9.85234 5.78845 10.4333 7.67662L10.4944 7.875H28.5762C30.6063 7.875 32.177 9.65424 31.9252 11.6686L31.3325 16.4101C31.1417 17.9372 29.9418 19.1419 28.4154 19.3388L13.4031 21.2759C13.2251 21.5437 13.0044 21.7872 12.7443 21.9953C12.0687 22.5357 12.4509 23.625 13.3159 23.625H28.875C29.4963 23.625 30 24.1287 30 24.75C30 25.3713 29.4963 25.875 28.875 25.875H13.3159C10.324 25.875 9.0024 22.1074 11.3387 20.2383C11.632 20.0037 11.7522 19.6136 11.6417 19.2546L8.28281 8.33831C7.99232 7.39422 7.12008 6.75 6.13231 6.75H4.125C3.50368 6.75 3 6.24632 3 5.625C3 5.00368 3.50368 4.5 4.125 4.5H6.13231ZM13.879 18.9458L28.1276 17.1073C28.6363 17.0416 29.0362 16.6401 29.0999 16.131L29.6925 11.3895C29.7765 10.7181 29.2529 10.125 28.5762 10.125H11.1866L13.7922 18.593C13.8281 18.7098 13.857 18.8275 13.879 18.9458Z" fill="#51801A"/>
<path d="M9.75 29.25C9.75 28.0073 10.7574 27 12 27C13.2427 27 14.25 28.0073 14.25 29.25C14.25 30.4927 13.2427 31.5 12 31.5C10.7574 31.5 9.75 30.4927 9.75 29.25Z" fill="#51801A"/>
<path d="M25.5 27C24.2573 27 23.25 28.0073 23.25 29.25C23.25 30.4927 24.2573 31.5 25.5 31.5C26.7427 31.5 27.75 30.4927 27.75 29.25C27.75 28.0073 26.7427 27 25.5 27Z" fill="#51801A"/>
</svg>
