<svg width="24" height="25" viewBox="0 0 24 25" fill="none" xmlns="http://www.w3.org/2000/svg">
<path fill-rule="evenodd" clip-rule="evenodd" d="M16.246 7.5C16.246 9.98528 14.2313 12 11.746 12C9.26075 12 7.24603 9.98528 7.24603 7.5C7.24603 5.01472 9.26075 3 11.746 3C14.2313 3 16.246 5.01472 16.246 7.5ZM17.746 7.5C17.746 10.8137 15.0597 13.5 11.746 13.5C8.43232 13.5 5.74603 10.8137 5.74603 7.5C5.74603 4.18629 8.43232 1.5 11.746 1.5C15.0597 1.5 17.746 4.18629 17.746 7.5ZM3.49243 22.5747L3.49238 22.5752C3.45095 22.9871 3.08354 23.2876 2.67153 23.2464C2.25937 23.2052 1.95866 22.8376 1.99987 22.4255L2.74615 22.5001C1.99987 22.4255 1.9999 22.4252 1.99993 22.4249L2 22.4242L2.00017 22.4225L2.00067 22.4177L2.00229 22.4028C2.00366 22.3905 2.00563 22.3735 2.00826 22.3521C2.01352 22.3095 2.02148 22.2492 2.03277 22.174C2.05531 22.0237 2.0913 21.8123 2.14596 21.56C2.25459 21.0586 2.44031 20.3798 2.74969 19.6922C3.35667 18.3434 4.55122 16.7499 6.74617 16.75H16.7461C18.9411 16.7499 20.1356 18.3434 20.7426 19.6922C21.052 20.3798 21.2377 21.0586 21.3463 21.56C21.401 21.8123 21.437 22.0237 21.4595 22.174C21.4708 22.2492 21.4788 22.3095 21.484 22.3521C21.4867 22.3735 21.4886 22.3905 21.49 22.4028L21.4916 22.4177L21.4921 22.4225L21.4923 22.4242L21.4924 22.4249C21.4924 22.4252 21.4924 22.4255 20.7461 22.5001L21.4924 22.4255C21.5336 22.8376 21.2329 23.2052 20.8208 23.2464C20.4089 23.2876 20.0416 22.9873 20 22.5756L19.9999 22.5752L19.9999 22.5747L19.9992 22.5687L19.9953 22.5357C19.9915 22.5052 19.9853 22.458 19.9761 22.3965C19.9577 22.2734 19.9272 22.0941 19.8803 21.8776C19.7858 21.4415 19.6278 20.8703 19.3747 20.3078C18.8567 19.1566 18.0512 18.25 16.7462 18.25H6.74613C5.44105 18.25 4.6356 19.1566 4.11758 20.3078C3.86447 20.8703 3.70645 21.4415 3.61195 21.8776C3.56505 22.0941 3.53464 22.2734 3.51617 22.3965C3.50695 22.458 3.50075 22.5052 3.49698 22.5357L3.49309 22.5687L3.49243 22.5747Z" fill="#3A2C2A"/>
</svg>
