<svg width="24" height="25" viewBox="0 0 24 25" fill="none" xmlns="http://www.w3.org/2000/svg">
<path fill-rule="evenodd" clip-rule="evenodd" d="M4.08821 3.5C5.40522 3.5 6.56823 4.35897 6.95554 5.61774L6.99624 5.75H19.0508C20.4042 5.75 21.4513 6.93616 21.2835 8.27907L20.8883 11.4401C20.7611 12.4581 19.9612 13.2613 18.9436 13.3925L8.9354 14.6839C8.81675 14.8625 8.6696 15.0248 8.4962 15.1635C8.04583 15.5238 8.3006 16.25 8.87727 16.25H19.25C19.6642 16.25 20 16.5858 20 17C20 17.4142 19.6642 17.75 19.25 17.75H8.87727C6.88268 17.75 6.0016 15.2382 7.55915 13.9922C7.75467 13.8358 7.83478 13.5757 7.76113 13.3364L5.52187 6.05887C5.32821 5.42948 4.74672 5 4.08821 5H2.75C2.33579 5 2 4.66421 2 4.25C2 3.83579 2.33579 3.5 2.75 3.5H4.08821ZM9.25265 13.1305L18.7517 11.9049C19.0909 11.8611 19.3575 11.5934 19.3999 11.254L19.795 8.093C19.851 7.64538 19.5019 7.25 19.0508 7.25H7.45775L9.19482 12.8953C9.21875 12.9732 9.23803 13.0517 9.25265 13.1305Z" fill="black"/>
<path d="M6.5 20C6.5 19.1716 7.17157 18.5 8 18.5C8.82845 18.5 9.5 19.1716 9.5 20C9.5 20.8284 8.82845 21.5 8 21.5C7.17157 21.5 6.5 20.8284 6.5 20Z" fill="black"/>
<path d="M17 18.5C16.1716 18.5 15.5 19.1716 15.5 20C15.5 20.8284 16.1716 21.5 17 21.5C17.8284 21.5 18.5 20.8284 18.5 20C18.5 19.1716 17.8284 18.5 17 18.5Z" fill="black"/>
</svg>
