<svg width="21" height="20" viewBox="0 0 21 20" fill="none" xmlns="http://www.w3.org/2000/svg">
<path fill-rule="evenodd" clip-rule="evenodd" d="M4.5 7.66667V4H8.16667V7.66667H4.5ZM3 3.5C3 2.94771 3.44772 2.5 4 2.5H8.66667C9.21895 2.5 9.66667 2.94772 9.66667 3.5V8.16667C9.66667 8.71895 9.21895 9.16667 8.66667 9.16667H4C3.44771 9.16667 3 8.71895 3 8.16667V3.5ZM13.6667 7.66667V4H17.3333V7.66667H13.6667ZM12.1667 3.5C12.1667 2.94771 12.6144 2.5 13.1667 2.5H17.8333C18.3856 2.5 18.8333 2.94772 18.8333 3.5V8.16667C18.8333 8.71895 18.3856 9.16667 17.8333 9.16667H13.1667C12.6144 9.16667 12.1667 8.71895 12.1667 8.16667V3.5ZM4.5 13.1667V16.8333H8.16667V13.1667H4.5ZM4 11.6667C3.44772 11.6667 3 12.1144 3 12.6667V17.3333C3 17.8856 3.44771 18.3333 4 18.3333H8.66667C9.21895 18.3333 9.66667 17.8856 9.66667 17.3333V12.6667C9.66667 12.1144 9.21895 11.6667 8.66667 11.6667H4ZM13.6667 16.8333V13.1667H17.3333V16.8333H13.6667ZM12.1667 12.6667C12.1667 12.1144 12.6144 11.6667 13.1667 11.6667H17.8333C18.3856 11.6667 18.8333 12.1144 18.8333 12.6667V17.3333C18.8333 17.8856 18.3856 18.3333 17.8333 18.3333H13.1667C12.6144 18.3333 12.1667 17.8856 12.1667 17.3333V12.6667Z" fill="#3A2C2A"/>
</svg>
