<svg width="16" height="17" viewBox="0 0 16 17" fill="none" xmlns="http://www.w3.org/2000/svg">
<path d="M7.99996 11.1667C7.91222 11.1672 7.82525 11.1503 7.74402 11.1172C7.6628 11.084 7.58892 11.0351 7.52663 10.9733L3.52663 6.97332C3.40109 6.84779 3.33057 6.67753 3.33057 6.49999C3.33057 6.32246 3.40109 6.15219 3.52663 6.02666C3.65216 5.90112 3.82243 5.8306 3.99996 5.8306C4.1775 5.8306 4.34776 5.90112 4.47329 6.02666L7.99996 9.55999L11.5266 6.03332C11.6542 5.92411 11.8182 5.86704 11.986 5.87352C12.1538 5.88 12.3129 5.94955 12.4317 6.06828C12.5504 6.18701 12.62 6.34617 12.6264 6.51396C12.6329 6.68174 12.5758 6.84579 12.4666 6.97332L8.46663 10.9733C8.34245 11.0965 8.17485 11.1659 7.99996 11.1667Z" fill="#3A2C2A"/>
</svg>
