<svg width="134" height="37" viewBox="0 0 134 37" fill="none" xmlns="http://www.w3.org/2000/svg">
<path d="M33.7603 31.5413H43.9758V34.7273H33.7603V31.5413Z" fill="#51801A"/>
<path d="M15.4724 20.1389H31.0228V23.5877H15.4724V20.1389Z" fill="#51801A"/>
<path d="M33.7605 31.5414L33.7605 0.318615L36.9528 0.318615L36.9528 31.5414L33.7605 31.5414Z" fill="#51801A"/>
<path d="M33.7603 14.6556L33.7603 0.318608L37.2718 0.318608L37.2718 14.6556L33.7603 14.6556Z" fill="#51801A"/>
<path d="M0.785589 34.7961L33.7607 0.318565L33.7605 5.4162L5.20051 34.7977L0.785589 34.7961Z" fill="#51801A"/>
<path d="M33.7603 31.5413H43.9758V34.7273H33.7603V31.5413Z" fill="#82252F"/>
<path d="M33.7603 31.5413L33.7603 14.6556L37.2718 14.6556L37.2718 31.5413L33.7603 31.5413Z" fill="#82252F"/>
<path d="M121.083 14.6617V0.244049H123.63L124.73 3.19265V14.6617H121.083ZM131.046 14.6617L122.611 3.96539L123.63 0.244049L132.085 10.9404L131.046 14.6617ZM131.046 14.6617L130.109 11.6318V0.244049H133.756V14.6617H131.046Z" fill="#51801A"/>
<path d="M105.06 14.6617L110.663 0.244049H114.188L119.73 14.6617H115.92L111.743 2.54193H113.068L108.789 14.6617H105.06ZM108.463 12.1401V9.25255H116.429V12.1401H108.463Z" fill="#51801A"/>
<path d="M99.3795 14.8854C98.2793 14.8854 97.2606 14.7024 96.3233 14.3363C95.3861 13.9567 94.5643 13.4348 93.858 12.7705C93.1652 12.0927 92.6219 11.2996 92.228 10.3913C91.8476 9.48299 91.6575 8.50012 91.6575 7.44269C91.6575 6.3717 91.8476 5.38883 92.228 4.49408C92.6219 3.58578 93.1652 2.79948 93.858 2.1352C94.5643 1.47091 95.3793 0.948976 96.3029 0.569386C97.2402 0.189795 98.2521 0 99.3388 0C100.48 0 101.505 0.183017 102.415 0.549051C103.325 0.901527 104.127 1.39635 104.82 2.03352L102.375 4.47375C102.035 4.09415 101.614 3.79591 101.111 3.579C100.609 3.36209 100.018 3.25363 99.3388 3.25363C98.7547 3.25363 98.2182 3.34853 97.7292 3.53833C97.2538 3.72812 96.8395 4.01281 96.4863 4.39241C96.1332 4.75844 95.8547 5.19904 95.6509 5.71419C95.4608 6.22935 95.3657 6.80552 95.3657 7.44269C95.3657 8.07986 95.4608 8.65602 95.6509 9.17118C95.8547 9.68634 96.1332 10.1337 96.4863 10.5133C96.8395 10.8793 97.2538 11.164 97.7292 11.3674C98.2182 11.5572 98.7547 11.6521 99.3388 11.6521C100.018 11.6521 100.616 11.5504 101.132 11.347C101.648 11.1301 102.089 10.8251 102.456 10.432L104.901 12.8722C104.195 13.5094 103.393 14.0042 102.497 14.3567C101.614 14.7091 100.575 14.8854 99.3795 14.8854Z" fill="#51801A"/>
<path d="M86.1628 14.6617V0.244049H89.8099V14.6617H86.1628Z" fill="#51801A"/>
<path d="M75.8241 8.82551V6.2226H78.5748C79.1724 6.2226 79.6275 6.08026 79.9399 5.79556C80.2659 5.49731 80.4289 5.09739 80.4289 4.59578C80.4289 4.10774 80.2659 3.71459 79.9399 3.41634C79.6275 3.10454 79.1724 2.94863 78.5748 2.94863H75.8241V0.244049H79.0841C80.0621 0.244049 80.9179 0.427066 81.6514 0.7931C82.3984 1.15913 82.9825 1.66074 83.4036 2.29791C83.8247 2.93508 84.0352 3.6807 84.0352 4.53478C84.0352 5.38886 83.8179 6.14126 83.3832 6.79199C82.9621 7.42916 82.3713 7.93076 81.6106 8.29679C80.8499 8.64927 79.9602 8.82551 78.9415 8.82551H75.8241ZM72.9309 14.6617V0.244049H76.578V14.6617H72.9309ZM80.7549 14.6617L76.5576 8.47981L79.838 7.68674L84.9725 14.6617H80.7549Z" fill="#51801A"/>
<path d="M60.1567 14.6617V0.244049H63.8038V14.6617H60.1567ZM63.05 14.6617V11.5911H70.8739V14.6617H63.05ZM63.05 8.80517V5.8159H70.1404V8.80517H63.05ZM63.05 3.31467V0.244049H70.7517V3.31467H63.05Z" fill="#51801A"/>
<path d="M42.5083 14.6617V0.244049H45.1367L50.6786 8.60182H49.4358L54.9574 0.244049H57.5857V14.6617H53.9794V6.26327L54.5499 6.42595L51.2288 11.4081H48.8653L45.5645 6.42595L46.135 6.26327V14.6617H42.5083Z" fill="#51801A"/>
<path d="M128.565 35.4157C127.425 35.4157 126.433 35.2526 125.588 34.9266C124.755 34.6005 123.994 34.0873 123.302 33.3869L125.472 31.3219C125.946 31.7929 126.452 32.1551 126.99 32.4087C127.527 32.6503 128.136 32.771 128.814 32.771C129.39 32.771 129.832 32.6805 130.139 32.4993C130.46 32.3061 130.62 32.0465 130.62 31.7204C130.62 31.4185 130.504 31.171 130.274 30.9777C130.043 30.7724 129.736 30.5973 129.352 30.4524C128.981 30.2954 128.565 30.1505 128.104 30.0177C127.656 29.8728 127.201 29.7037 126.74 29.5105C126.292 29.3052 125.876 29.0577 125.492 28.7678C125.12 28.478 124.819 28.1157 124.589 27.681C124.359 27.2463 124.243 26.7089 124.243 26.0688C124.243 25.2477 124.448 24.5473 124.858 23.9676C125.28 23.388 125.863 22.9412 126.606 22.6272C127.348 22.3132 128.212 22.1562 129.198 22.1562C130.184 22.1562 131.093 22.3132 131.926 22.6272C132.758 22.9412 133.443 23.3759 133.981 23.9314L131.791 25.9783C131.381 25.5918 130.965 25.302 130.543 25.1088C130.12 24.9156 129.659 24.819 129.16 24.819C128.686 24.819 128.315 24.8975 128.046 25.0545C127.777 25.2114 127.643 25.4349 127.643 25.7247C127.643 26.0145 127.758 26.25 127.988 26.4311C128.219 26.6123 128.52 26.7753 128.891 26.9202C129.275 27.053 129.691 27.1919 130.139 27.3368C130.6 27.4817 131.055 27.6508 131.503 27.844C131.951 28.0372 132.361 28.2848 132.732 28.5867C133.116 28.8886 133.424 29.269 133.654 29.7279C133.885 30.1868 134 30.7423 134 31.3944C134 32.6744 133.52 33.6646 132.559 34.3651C131.612 35.0655 130.28 35.4157 128.565 35.4157Z" fill="#82252F"/>
<path d="M115.807 35.2164V22.4641H119.245V35.2164H115.807ZM111.639 25.1631V22.3736H123.412V25.1631H111.639Z" fill="#82252F"/>
<path d="M100.838 35.2164V22.3736H104.275V35.2164H100.838ZM103.565 35.2164V32.4812H110.94V35.2164H103.565ZM103.565 29.9996V27.3368H110.248V29.9996H103.565ZM103.565 25.1088V22.3736H110.825V25.1088H103.565Z" fill="#82252F"/>
<path d="M93.661 35.4157C92.5215 35.4157 91.5292 35.2526 90.6841 34.9266C89.8519 34.6005 89.0901 34.0873 88.3987 33.3869L90.5689 31.3219C91.0427 31.7929 91.5484 32.1551 92.0862 32.4087C92.6239 32.6503 93.2321 32.771 93.9107 32.771C94.4869 32.771 94.9286 32.6805 95.2359 32.4993C95.556 32.3061 95.716 32.0465 95.716 31.7204C95.716 31.4185 95.6008 31.171 95.3703 30.9777C95.1399 30.7724 94.8326 30.5973 94.4484 30.4524C94.0771 30.2954 93.661 30.1505 93.2001 30.0177C92.752 29.8728 92.2974 29.7037 91.8365 29.5105C91.3884 29.3052 90.9722 29.0577 90.5881 28.7678C90.2168 28.478 89.9159 28.1157 89.6855 27.681C89.455 27.2463 89.3398 26.7089 89.3398 26.0688C89.3398 25.2477 89.5446 24.5473 89.9543 23.9676C90.3769 23.388 90.9594 22.9412 91.702 22.6272C92.4447 22.3132 93.3089 22.1562 94.2948 22.1562C95.2807 22.1562 96.1898 22.3132 97.022 22.6272C97.8542 22.9412 98.5392 23.3759 99.077 23.9314L96.8876 25.9783C96.4778 25.5918 96.0617 25.302 95.6392 25.1088C95.2167 24.9156 94.7557 24.819 94.2564 24.819C93.7827 24.819 93.4113 24.8975 93.1425 25.0545C92.8736 25.2114 92.7392 25.4349 92.7392 25.7247C92.7392 26.0145 92.8544 26.25 93.0849 26.4311C93.3153 26.6123 93.6162 26.7753 93.9875 26.9202C94.3716 27.053 94.7878 27.1919 95.2359 27.3368C95.6968 27.4817 96.1513 27.6508 96.5995 27.844C97.0476 28.0372 97.4573 28.2848 97.8286 28.5867C98.2127 28.8886 98.52 29.269 98.7505 29.7279C98.981 30.1868 99.0962 30.7423 99.0962 31.3944C99.0962 32.6744 98.6161 33.6646 97.6558 34.3651C96.7083 35.0655 95.3767 35.4157 93.661 35.4157Z" fill="#82252F"/>
<path d="M84.5633 35.2164L79.4162 28.5142L84.3521 22.3736H88.5389L82.9117 29.0395V27.8983L88.7502 35.2164H84.5633ZM76.3049 35.2164V22.3736H79.7427V35.2164H76.3049Z" fill="#82252F"/>
<path d="M69.6151 35.4157C68.578 35.4157 67.6177 35.2526 66.7343 34.9266C65.8508 34.5885 65.0762 34.1235 64.4104 33.5318C63.7574 32.928 63.2452 32.2216 62.8739 31.4125C62.5154 30.6034 62.3362 29.7279 62.3362 28.7859C62.3362 27.8319 62.5154 26.9564 62.8739 26.1594C63.2452 25.3503 63.7574 24.6499 64.4104 24.0582C65.0762 23.4665 65.8444 23.0015 66.7151 22.6634C67.5985 22.3253 68.5524 22.1562 69.5767 22.1562C70.6522 22.1562 71.6189 22.3192 72.4767 22.6453C73.3346 22.9593 74.09 23.4 74.743 23.9676L72.4383 26.1413C72.1182 25.8032 71.7213 25.5375 71.2476 25.3443C70.7738 25.1511 70.2169 25.0545 69.5767 25.0545C69.0261 25.0545 68.5204 25.139 68.0595 25.3081C67.6113 25.4771 67.2208 25.7307 66.8879 26.0688C66.555 26.3949 66.2925 26.7874 66.1005 27.2463C65.9212 27.7051 65.8316 28.2184 65.8316 28.7859C65.8316 29.3535 65.9212 29.8667 66.1005 30.3256C66.2925 30.7845 66.555 31.183 66.8879 31.5212C67.2208 31.8472 67.6113 32.1008 68.0595 32.2819C68.5204 32.451 69.0261 32.5355 69.5767 32.5355C70.2169 32.5355 70.7803 32.445 71.2668 32.2638C71.7533 32.0706 72.1695 31.7989 72.5152 31.4487L74.8198 33.6224C74.154 34.19 73.3986 34.6307 72.5536 34.9447C71.7213 35.2587 70.7418 35.4157 69.6151 35.4157Z" fill="#82252F"/>
<path d="M53.8415 35.4519C52.7916 35.4519 51.8249 35.2828 50.9415 34.9447C50.058 34.6066 49.2834 34.1356 48.6176 33.5318C47.9646 32.928 47.4524 32.2216 47.0811 31.4125C46.7098 30.5913 46.5242 29.7097 46.5242 28.7678C46.5242 27.8259 46.7034 26.9564 47.0619 26.1594C47.4332 25.3503 47.9454 24.6439 48.5984 24.0401C49.2514 23.4363 50.0196 22.9713 50.9031 22.6453C51.7865 22.3072 52.7532 22.1381 53.8031 22.1381C54.853 22.1381 55.8197 22.3072 56.7031 22.6453C57.5866 22.9713 58.3548 23.4363 59.0078 24.0401C59.6608 24.6439 60.1666 25.3503 60.5251 26.1594C60.8964 26.9685 61.082 27.844 61.082 28.7859C61.082 29.7279 60.8964 30.6034 60.5251 31.4125C60.1666 32.2216 59.6608 32.934 59.0078 33.5499C58.3548 34.1537 57.5866 34.6247 56.7031 34.9628C55.8325 35.2889 54.8786 35.4519 53.8415 35.4519ZM53.8031 32.5536C54.5713 32.5536 55.2371 32.3967 55.8005 32.0827C56.3638 31.7687 56.7992 31.3279 57.1065 30.7604C57.4138 30.1928 57.5674 29.5286 57.5674 28.7678C57.5674 28.2123 57.4778 27.7051 57.2985 27.2462C57.1321 26.7874 56.8824 26.3949 56.5495 26.0688C56.2166 25.7307 55.8197 25.4711 55.3588 25.2899C54.8978 25.1088 54.3793 25.0182 53.8031 25.0182C53.0349 25.0182 52.3691 25.1752 51.8057 25.4892C51.2424 25.7911 50.807 26.2258 50.4997 26.7934C50.1924 27.361 50.0388 28.0191 50.0388 28.7678C50.0388 29.3475 50.122 29.8728 50.2885 30.3437C50.4677 30.8026 50.7238 31.2011 51.0567 31.5393C51.3896 31.8653 51.7865 32.1189 52.2474 32.3C52.7084 32.4691 53.2269 32.5536 53.8031 32.5536Z" fill="#82252F"/>
</svg>
