<svg width="154" height="43" viewBox="0 0 154 43" fill="none" xmlns="http://www.w3.org/2000/svg">
<path d="M38.7991 36.6561H50.5393V40.3588H38.7991V36.6561Z" fill="#51801A"/>
<path d="M17.7817 23.4047H35.6531V27.4127H17.7817V23.4047Z" fill="#51801A"/>
<path d="M38.7993 36.6561L38.7993 0.370247L42.4681 0.370247L42.4681 36.6561L38.7993 36.6561Z" fill="#51801A"/>
<path d="M38.7991 17.0321L38.7991 0.37022L42.8348 0.37022L42.8348 17.0321L38.7991 17.0321Z" fill="#51801A"/>
<path d="M0.902841 40.4388L38.7996 0.370221L38.7994 6.29449L5.97671 40.4406L0.902841 40.4388Z" fill="#51801A"/>
<path d="M38.7991 36.6561H50.5393V40.3588H38.7991V36.6561Z" fill="#82252F"/>
<path d="M38.7991 36.6561L38.7991 17.0321L42.8348 17.0321L42.8348 36.6561L38.7991 36.6561Z" fill="#82252F"/>
<path d="M139.155 17.0394V0.283691H142.082L143.346 3.71045V17.0394H139.155ZM150.605 17.0394L140.911 4.6085L142.082 0.283691L151.8 12.7146L150.605 17.0394ZM150.605 17.0394L149.528 13.5181V0.283691H153.72V17.0394H150.605Z" fill="#51801A"/>
<path d="M120.741 17.0394L127.18 0.283691H131.231L137.6 17.0394H133.222L128.421 2.9542H129.943L125.026 17.0394H120.741ZM124.651 14.1089V10.753H133.807V14.1089H124.651Z" fill="#51801A"/>
<path d="M114.212 17.2992C112.948 17.2992 111.777 17.0865 110.7 16.6611C109.623 16.22 108.678 15.6134 107.867 14.8414C107.07 14.0536 106.446 13.132 105.993 12.0764C105.556 11.0208 105.338 9.87852 105.338 8.64961C105.338 7.40495 105.556 6.2627 105.993 5.22285C106.446 4.16725 107.07 3.25345 107.867 2.48145C108.678 1.70944 109.615 1.10286 110.676 0.661719C111.754 0.220573 112.917 0 114.165 0C115.477 0 116.655 0.212695 117.701 0.638086C118.747 1.04772 119.668 1.62279 120.464 2.36328L117.654 5.19922C117.264 4.75807 116.78 4.41146 116.203 4.15938C115.625 3.90729 114.946 3.78125 114.165 3.78125C113.494 3.78125 112.878 3.89154 112.316 4.11211C111.769 4.33268 111.293 4.66354 110.887 5.10469C110.481 5.53008 110.161 6.04212 109.927 6.64082C109.709 7.23952 109.599 7.90911 109.599 8.64961C109.599 9.39011 109.709 10.0597 109.927 10.6584C110.161 11.2571 110.481 11.777 110.887 12.2182C111.293 12.6436 111.769 12.9744 112.316 13.2107C112.878 13.4313 113.494 13.5416 114.165 13.5416C114.946 13.5416 115.633 13.4234 116.226 13.1871C116.819 12.935 117.327 12.5805 117.748 12.1236L120.558 14.9596C119.746 15.7001 118.825 16.2751 117.795 16.6848C116.78 17.0944 115.586 17.2992 114.212 17.2992Z" fill="#51801A"/>
<path d="M99.0229 17.0394V0.283691H103.214V17.0394H99.0229Z" fill="#51801A"/>
<path d="M87.1412 10.2567V7.23174H90.3024C90.9892 7.23174 91.5122 7.06631 91.8712 6.73545C92.2459 6.38883 92.4332 5.92406 92.4332 5.34111C92.4332 4.77393 92.2459 4.31702 91.8712 3.97041C91.5122 3.60804 90.9892 3.42686 90.3024 3.42686H87.1412V0.283691H90.8878C92.0117 0.283691 92.9952 0.496387 93.8382 0.921778C94.6968 1.34717 95.368 1.93011 95.8519 2.67061C96.3359 3.4111 96.5778 4.27764 96.5778 5.27021C96.5778 6.26279 96.3281 7.13721 95.8285 7.89346C95.3446 8.63395 94.6655 9.21689 93.7913 9.64228C92.9171 10.0519 91.8947 10.2567 90.7239 10.2567H87.1412ZM83.8162 17.0394V0.283691H88.0076V17.0394H83.8162ZM92.8079 17.0394L87.9842 9.85498L91.7542 8.9333L97.655 17.0394H92.8079Z" fill="#51801A"/>
<path d="M69.1353 17.0394V0.283691H73.3267V17.0394H69.1353ZM72.4603 17.0394V13.4708H81.452V17.0394H72.4603ZM72.4603 10.2331V6.75908H80.609V10.2331H72.4603ZM72.4603 3.85225V0.283691H81.3115V3.85225H72.4603Z" fill="#51801A"/>
<path d="M48.8528 17.0394V0.283691H51.8734L58.2426 9.99678H56.8142L63.1599 0.283691H66.1806V17.0394H62.0359V7.279L62.6916 7.46807L58.8748 13.2581H56.1585L52.3652 7.46807L53.0208 7.279V17.0394H48.8528Z" fill="#51801A"/>
<path d="M147.754 41.1588C146.444 41.1588 145.304 40.9693 144.332 40.5904C143.376 40.2115 142.5 39.615 141.706 38.801L144.2 36.4012C144.744 36.9485 145.326 37.3695 145.944 37.6642C146.562 37.9449 147.261 38.0853 148.041 38.0853C148.703 38.0853 149.21 37.98 149.563 37.7695C149.931 37.5449 150.115 37.2432 150.115 36.8643C150.115 36.5134 149.983 36.2257 149.718 36.0012C149.453 35.7626 149.1 35.5591 148.659 35.3907C148.232 35.2082 147.754 35.0398 147.224 34.8855C146.709 34.717 146.186 34.5206 145.657 34.296C145.142 34.0574 144.663 33.7697 144.222 33.4329C143.795 33.0961 143.45 32.6751 143.185 32.1698C142.92 31.6646 142.787 31.0401 142.787 30.2962C142.787 29.3419 143.023 28.5279 143.494 27.8543C143.979 27.1806 144.649 26.6614 145.502 26.2965C146.356 25.9316 147.349 25.7491 148.482 25.7491C149.615 25.7491 150.66 25.9316 151.616 26.2965C152.573 26.6614 153.36 27.1666 153.978 27.8122L151.462 30.191C150.991 29.7419 150.513 29.4051 150.027 29.1805C149.541 28.956 149.012 28.8437 148.438 28.8437C147.893 28.8437 147.467 28.9349 147.158 29.1174C146.849 29.2998 146.694 29.5594 146.694 29.8963C146.694 30.2331 146.827 30.5068 147.091 30.7173C147.356 30.9278 147.702 31.1173 148.129 31.2857C148.57 31.44 149.048 31.6014 149.563 31.7698C150.093 31.9383 150.616 32.1347 151.131 32.3593C151.646 32.5838 152.116 32.8715 152.543 33.2224C152.985 33.5733 153.338 34.0153 153.603 34.5486C153.868 35.0819 154 35.7275 154 36.4854C154 37.973 153.448 39.1238 152.345 39.9378C151.256 40.7518 149.725 41.1588 147.754 41.1588Z" fill="#82252F"/>
<path d="M133.091 40.9272V26.107H137.042V40.9272H133.091ZM128.302 29.2436V26.0017H141.832V29.2436H128.302Z" fill="#82252F"/>
<path d="M115.888 40.9272V26.0017H119.839V40.9272H115.888ZM119.022 40.9272V37.7484H127.498V40.9272H119.022ZM119.022 34.8644V31.7698H126.704V34.8644H119.022ZM119.022 29.1805V26.0017H127.366V29.1805H119.022Z" fill="#82252F"/>
<path d="M107.641 41.1588C106.331 41.1588 105.191 40.9693 104.219 40.5904C103.263 40.2115 102.387 39.615 101.593 38.801L104.087 36.4012C104.631 36.9485 105.213 37.3695 105.831 37.6642C106.449 37.9449 107.148 38.0853 107.927 38.0853C108.59 38.0853 109.097 37.98 109.45 37.7695C109.818 37.5449 110.002 37.2432 110.002 36.8643C110.002 36.5134 109.87 36.2257 109.605 36.0012C109.34 35.7626 108.987 35.5591 108.545 35.3907C108.119 35.2082 107.641 35.0398 107.111 34.8855C106.596 34.717 106.073 34.5206 105.544 34.296C105.029 34.0574 104.55 33.7697 104.109 33.4329C103.682 33.0961 103.336 32.6751 103.072 32.1698C102.807 31.6646 102.674 31.0401 102.674 30.2962C102.674 29.3419 102.91 28.5279 103.381 27.8543C103.866 27.1806 104.536 26.6614 105.389 26.2965C106.243 25.9316 107.236 25.7491 108.369 25.7491C109.502 25.7491 110.547 25.9316 111.503 26.2965C112.46 26.6614 113.247 27.1666 113.865 27.8122L111.349 30.191C110.878 29.7419 110.4 29.4051 109.914 29.1805C109.428 28.956 108.899 28.8437 108.325 28.8437C107.78 28.8437 107.354 28.9349 107.045 29.1174C106.736 29.2998 106.581 29.5594 106.581 29.8963C106.581 30.2331 106.714 30.5068 106.978 30.7173C107.243 30.9278 107.589 31.1173 108.016 31.2857C108.457 31.44 108.935 31.6014 109.45 31.7698C109.98 31.9383 110.503 32.1347 111.018 32.3593C111.533 32.5838 112.003 32.8715 112.43 33.2224C112.872 33.5733 113.225 34.0153 113.49 34.5486C113.755 35.0819 113.887 35.7275 113.887 36.4854C113.887 37.973 113.335 39.1238 112.232 39.9378C111.143 40.7518 109.612 41.1588 107.641 41.1588Z" fill="#82252F"/>
<path d="M97.1849 40.9272L91.2695 33.1381L96.9421 26.0017H101.754L95.2867 33.7486V32.4224L101.997 40.9272H97.1849ZM87.6938 40.9272V26.0017H91.6448V40.9272H87.6938Z" fill="#82252F"/>
<path d="M80.0055 41.1588C78.8136 41.1588 77.71 40.9693 76.6947 40.5904C75.6793 40.1974 74.7891 39.6571 74.0239 38.9694C73.2735 38.2677 72.6849 37.4467 72.2582 36.5064C71.8461 35.5661 71.6401 34.5486 71.6401 33.454C71.6401 32.3453 71.8461 31.3278 72.2582 30.4015C72.6849 29.4612 73.2735 28.6472 74.0239 27.9595C74.7891 27.2719 75.672 26.7315 76.6726 26.3386C77.6879 25.9456 78.7841 25.7491 79.9613 25.7491C81.1974 25.7491 82.3083 25.9386 83.2942 26.3175C84.2801 26.6824 85.1483 27.1947 85.8987 27.8543L83.2501 30.3805C82.8822 29.9875 82.426 29.6787 81.8816 29.4542C81.3372 29.2296 80.6971 29.1174 79.9613 29.1174C79.3286 29.1174 78.7474 29.2156 78.2176 29.4121C77.7026 29.6086 77.2538 29.9033 76.8712 30.2962C76.4886 30.6752 76.187 31.1313 75.9663 31.6646C75.7603 32.1979 75.6573 32.7943 75.6573 33.454C75.6573 34.1136 75.7603 34.71 75.9663 35.2433C76.187 35.7766 76.4886 36.2398 76.8712 36.6327C77.2538 37.0116 77.7026 37.3064 78.2176 37.5169C78.7474 37.7134 79.3286 37.8116 79.9613 37.8116C80.6971 37.8116 81.3445 37.7063 81.9037 37.4958C82.4628 37.2713 82.9411 36.9555 83.3384 36.5485L85.987 39.0747C85.2218 39.7343 84.3537 40.2465 83.3825 40.6114C82.426 40.9763 81.3004 41.1588 80.0055 41.1588Z" fill="#82252F"/>
<path d="M61.8777 41.2008C60.6711 41.2008 59.5602 41.0043 58.5448 40.6114C57.5295 40.2184 56.6393 39.6711 55.8741 38.9694C55.1237 38.2677 54.5351 37.4466 54.1084 36.5064C53.6816 35.552 53.4683 34.5275 53.4683 33.4328C53.4683 32.3382 53.6743 31.3277 54.0863 30.4014C54.513 29.4611 55.1016 28.6401 55.8521 27.9384C56.6025 27.2367 57.4854 26.6964 58.5007 26.3175C59.516 25.9245 60.627 25.728 61.8336 25.728C63.0402 25.728 64.1512 25.9245 65.1665 26.3175C66.1818 26.6964 67.0647 27.2367 67.8151 27.9384C68.5656 28.6401 69.1468 29.4611 69.5588 30.4014C69.9856 31.3417 70.1989 32.3592 70.1989 33.4539C70.1989 34.5486 69.9856 35.5661 69.5588 36.5064C69.1468 37.4466 68.5656 38.2747 67.8151 38.9904C67.0647 39.6921 66.1818 40.2395 65.1665 40.6324C64.1659 41.0113 63.0696 41.2008 61.8777 41.2008ZM61.8336 37.8326C62.7165 37.8326 63.4816 37.6501 64.1291 37.2853C64.7765 36.9204 65.2768 36.4081 65.63 35.7485C65.9832 35.0889 66.1597 34.317 66.1597 33.4328C66.1597 32.7873 66.0567 32.1978 65.8507 31.6645C65.6594 31.1312 65.3725 30.6751 64.9899 30.2962C64.6073 29.9032 64.1512 29.6015 63.6214 29.391C63.0917 29.1805 62.4958 29.0752 61.8336 29.0752C60.9507 29.0752 60.1855 29.2576 59.5381 29.6225C58.8906 29.9734 58.3903 30.4786 58.0372 31.1382C57.684 31.7979 57.5075 32.5627 57.5075 33.4328C57.5075 34.1065 57.6031 34.717 57.7944 35.2643C58.0004 35.7976 58.2947 36.2607 58.6773 36.6537C59.0599 37.0326 59.516 37.3274 60.0458 37.5379C60.5755 37.7343 61.1714 37.8326 61.8336 37.8326Z" fill="#82252F"/>
</svg>
