<svg width="24" height="24" viewBox="0 0 24 24" fill="none" xmlns="http://www.w3.org/2000/svg">
<g clip-path="url(#clip0_605_33268)">
<path d="M18.2812 0.703125C18.2812 0.314812 17.9664 0 17.5781 0H0.703125C0.314812 0 0 0.314812 0 0.703125V23.2969C0 23.6852 0.314812 24 0.703125 24H13.3617C13.5444 24 13.7249 23.9288 13.8618 23.7912L18.0549 19.5491C18.2075 19.4093 18.2958 19.2082 18.2812 18.985V0.703125ZM1.40625 1.40625H16.875V18.3281H13.3617C12.9734 18.3281 12.6586 18.6429 12.6586 19.0312V22.5938H1.40625V1.40625ZM15.8945 19.7344L14.0648 21.5854V19.7344H15.8945Z" fill="#82252F"/>
<path d="M8.78779 7.78126H9.49326C9.68775 7.78126 9.846 7.93951 9.846 8.13399C9.846 8.32847 9.68779 8.48668 9.49326 8.48668H7.73662C7.34831 8.48668 7.0335 8.80149 7.0335 9.1898C7.0335 9.57811 7.34831 9.89293 7.73662 9.89293H8.43975V10.5961C8.43975 10.9844 8.75456 11.2992 9.14287 11.2992C9.53118 11.2992 9.846 10.9844 9.846 10.5961V9.85735C10.6475 9.69357 11.2522 8.98308 11.2522 8.13394C11.2522 7.16405 10.4632 6.37496 9.49326 6.37496H8.78779C8.59331 6.37496 8.43506 6.21671 8.43506 6.02222C8.43506 5.82774 8.59326 5.66954 8.78779 5.66954H10.5491C10.9374 5.66954 11.2522 5.35472 11.2522 4.96641C11.2522 4.5781 10.9374 4.26329 10.5491 4.26329H9.846V3.56485C9.846 3.17654 9.53118 2.86172 9.14287 2.86172C8.75456 2.86172 8.43975 3.17654 8.43975 3.56485V4.29802C7.63598 4.46002 7.02881 5.17149 7.02881 6.02227C7.02881 6.99216 7.8179 7.78126 8.78779 7.78126Z" fill="#82252F"/>
<path d="M3.51807 14.1094H14.7681C15.1564 14.1094 15.4712 13.7946 15.4712 13.4062C15.4712 13.0179 15.1564 12.7031 14.7681 12.7031H3.51807C3.12975 12.7031 2.81494 13.0179 2.81494 13.4062C2.81494 13.7946 3.12975 14.1094 3.51807 14.1094Z" fill="#82252F"/>
<path d="M3.51807 16.9219H14.7681C15.1564 16.9219 15.4712 16.6071 15.4712 16.2188C15.4712 15.8304 15.1564 15.5156 14.7681 15.5156H3.51807C3.12975 15.5156 2.81494 15.8304 2.81494 16.2188C2.81494 16.6071 3.12975 16.9219 3.51807 16.9219Z" fill="#82252F"/>
<path d="M9.14307 18.3281H3.51807C3.12975 18.3281 2.81494 18.6429 2.81494 19.0312C2.81494 19.4196 3.12975 19.7344 3.51807 19.7344H9.14307C9.53138 19.7344 9.84619 19.4196 9.84619 19.0312C9.84619 18.6429 9.53138 18.3281 9.14307 18.3281Z" fill="#82252F"/>
<path d="M23.2968 5.66129H22.5456V4.26797C22.5456 3.87966 22.2308 3.56485 21.8425 3.56485C21.4542 3.56485 21.1394 3.87966 21.1394 4.26797V5.66133H20.4819C20.0936 5.66133 19.7788 5.97615 19.7788 6.36446V19.7986C19.7788 21.6593 20.6101 22.683 21.311 23.6967C21.5903 24.1007 22.1884 24.1007 22.4677 23.6967C23.1765 22.6715 23.9999 21.6616 23.9999 19.7986V6.36441C23.9999 5.9761 23.6851 5.66129 23.2968 5.66129ZM21.1851 19.0699V11.2992H22.5937V19.0699H21.1851ZM22.5937 9.89297H21.1851V7.06758H22.5937V9.89297ZM21.8894 22.0605C21.5586 21.5808 21.3404 21.0421 21.2433 20.4762H22.5355C22.4383 21.0421 22.2202 21.5808 21.8894 22.0605Z" fill="#82252F"/>
</g>
<defs>
<clipPath id="clip0_605_33268">
<rect width="24" height="24" fill="white"/>
</clipPath>
</defs>
</svg>
