<svg width="16" height="16" viewBox="0 0 16 16" fill="none" xmlns="http://www.w3.org/2000/svg">
<path d="M10.6466 7.97743C10.6471 8.06516 10.6303 8.15214 10.5971 8.23336C10.5639 8.31459 10.5151 8.38847 10.4533 8.45076L6.45327 12.4508C6.32774 12.5763 6.15748 12.6468 5.97994 12.6468C5.80241 12.6468 5.63214 12.5763 5.50661 12.4508C5.38107 12.3252 5.31055 12.155 5.31055 11.9774C5.31055 11.7999 5.38107 11.6296 5.50661 11.5041L9.03994 7.97743L5.51327 4.45076C5.40406 4.32322 5.34699 4.15917 5.35347 3.99139C5.35995 3.82361 5.4295 3.66445 5.54823 3.54572C5.66696 3.42699 5.82612 3.35743 5.99391 3.35095C6.16169 3.34447 6.32574 3.40154 6.45327 3.51076L10.4533 7.51076C10.5764 7.63493 10.6459 7.80253 10.6466 7.97743Z" fill="#82252F"/>
</svg>
