<svg width="24" height="24" viewBox="0 0 24 24" fill="none" xmlns="http://www.w3.org/2000/svg">
<path fill-rule="evenodd" clip-rule="evenodd" d="M19.5 6.5H9.5V21.5H19.5V6.5ZM21 21.5V6.5V5H19.5H9.5H8V6.5V21.5H6V23H8H9.5H19.5H21H23V21.5H21ZM13 14.5C13 15.3284 12.3284 16 11.5 16C10.6716 16 10 15.3284 10 14.5C10 13.6716 10.6716 13 11.5 13C12.3284 13 13 13.6716 13 14.5Z" fill="#82252F"/>
<path fill-rule="evenodd" clip-rule="evenodd" d="M1 5H2H3.5H5V6.5H3.5L3.5 21.5386H5V23.0386H1V21.5386H2L2 6.5H1V5Z" fill="#82252F"/>
<path fill-rule="evenodd" clip-rule="evenodd" d="M8 4V3V1.5V0H9.5V1.5H19.5556V0H21.0556V4H19.5556V3H9.5V4H8Z" fill="#82252F"/>
</svg>
