<svg width="20" height="21" viewBox="0 0 20 21" fill="none" xmlns="http://www.w3.org/2000/svg">
<path d="M9.99983 13.8332C9.89016 13.8338 9.78144 13.8128 9.67991 13.7713C9.57838 13.7298 9.48603 13.6687 9.40816 13.5915L4.40816 8.5915C4.25124 8.43458 4.16309 8.22175 4.16309 7.99983C4.16309 7.77791 4.25124 7.56508 4.40816 7.40816C4.56508 7.25124 4.77791 7.16309 4.99983 7.16309C5.22175 7.16309 5.43458 7.25124 5.5915 7.40816L9.99983 11.8248L14.4082 7.4165C14.5676 7.27997 14.7726 7.20864 14.9824 7.21674C15.1921 7.22484 15.3911 7.31178 15.5395 7.46019C15.6879 7.60861 15.7748 7.80755 15.7829 8.01728C15.791 8.22701 15.7197 8.43208 15.5832 8.5915L10.5832 13.5915C10.4279 13.7454 10.2184 13.8322 9.99983 13.8332Z" fill="#3A2C2A"/>
</svg>
