<svg width="20" height="20" viewBox="0 0 20 20" fill="none" xmlns="http://www.w3.org/2000/svg">
<path d="M6.84935 10.5992C6.73211 10.4821 6.66616 10.3233 6.66602 10.1576V9.84089C6.66794 9.67555 6.73361 9.51733 6.84935 9.39923L11.1327 5.12423C11.2109 5.04535 11.3174 5.00098 11.4285 5.00098C11.5396 5.00098 11.6461 5.04535 11.7243 5.12423L12.316 5.71589C12.3944 5.7927 12.4386 5.89782 12.4386 6.00756C12.4386 6.1173 12.3944 6.22242 12.316 6.29923L8.60768 9.99923L12.316 13.6992C12.3949 13.7775 12.4393 13.884 12.4393 13.9951C12.4393 14.1062 12.3949 14.2127 12.316 14.2909L11.7243 14.8742C11.6461 14.9531 11.5396 14.9975 11.4285 14.9975C11.3174 14.9975 11.2109 14.9531 11.1327 14.8742L6.84935 10.5992Z" fill="#51801A"/>
</svg>
