<svg width="55" height="40" viewBox="0 0 55 40" fill="none" xmlns="http://www.w3.org/2000/svg">
<path d="M41.5959 15.5532C40.3193 15.5532 39.298 15.8936 38.4469 16.0638L38.1916 18.0213C38.6172 17.8511 39.8086 17.5106 40.8299 17.4255C41.8512 17.4255 42.447 17.5957 42.2767 18.5319C39.2129 18.5319 37.1703 19.1277 36.7448 21.1702C36.1491 24.5745 39.8938 24.6596 41.3406 23.1277L41.1704 24.0638H43.8938L45.0853 18.5319C45.5108 16.234 43.4682 15.4681 41.5959 15.5532ZM41.7661 21.2553C41.5959 21.9362 41.0001 22.1915 40.3193 22.2766C39.7235 22.2766 39.2129 21.9362 39.5533 21.2553C39.8938 20.7447 40.6597 20.7447 41.2555 20.7447C41.4257 20.7447 41.681 20.7447 41.9363 20.7447C41.8512 20.6596 41.7661 21 41.7661 21.2553Z" fill="#139AD6"/>
<path d="M38.1916 18.0213C38.6172 17.851 39.8086 17.5106 40.8299 17.4255C41.8512 17.4255 42.447 17.5957 42.2767 18.5319C39.2129 18.5319 37.1703 19.1276 36.7448 21.1702C36.1491 24.5745 39.8938 24.6596 41.3406 23.1277L41.1704 24.0638H43.8938L45.0853 18.5319C45.5959 16.234 43.4682 15.6383 41.5959 15.6383M41.7661 21.2553C41.5959 21.9362 41.0001 22.1915 40.3193 22.2766C39.7235 22.2766 39.2129 21.9362 39.5533 21.2553C39.8938 20.7447 40.6597 20.7447 41.2555 20.7447C41.4257 20.7447 41.681 20.7447 41.9363 20.7447C41.8512 20.6596 41.7661 21 41.7661 21.2553Z" fill="#139AD6"/>
<path d="M47.3832 13L45.1704 24.0639H47.8938L50.1917 13H47.3832Z" fill="#139AD6"/>
<path d="M49.3406 13L45.1704 24.0639H47.8938L50.1917 13H47.3832H49.3406Z" fill="#139AD6"/>
<path d="M34.7023 13H29.681L27.4683 24.0639H30.447L31.213 20.6596H33.3406C35.3832 20.6596 37.0853 19.4681 37.5108 17.3405C37.9364 14.8724 36.1491 13 34.7023 13ZM34.6172 16.8298C34.447 17.5958 33.681 18.1064 32.9151 18.1064H31.5534L32.1491 15.5532H33.5959C34.3619 15.5532 34.7874 16.0639 34.6172 16.8298Z" fill="#139AD6"/>
<path d="M34.7025 13H31.2982L27.3833 24.0639H30.362L31.128 20.6596H33.2557C35.2982 20.6596 37.0003 19.4681 37.4259 17.3405C37.9365 14.8724 36.1493 13 34.7025 13ZM34.6174 16.8298C34.4471 17.5958 33.6812 18.1064 32.9152 18.1064H31.5535L32.1493 15.5532H33.5961C34.362 15.5532 34.7876 16.0639 34.6174 16.8298Z" fill="#139AD6"/>
<path d="M15.0427 15.5532C13.7661 15.5532 12.7448 15.8936 11.9789 16.0638L11.7236 18.0213C12.064 17.8511 13.3406 17.5106 14.3619 17.4255C15.3831 17.4255 15.9789 17.5957 15.8087 18.5319C12.8299 18.5319 10.7874 19.1277 10.3618 21.1702C9.7661 24.5745 13.4257 24.6596 14.8725 23.1277L14.7023 24.0638H17.4257L18.6172 18.5319C19.0427 16.234 16.9151 15.4681 15.0427 15.5532ZM15.298 21.2553C15.1278 21.9362 14.5321 22.1915 13.8512 22.2766C13.2555 22.2766 12.7448 21.9362 13.1704 21.2553C13.5108 20.7447 14.2767 20.7447 14.7874 20.7447C15.0427 20.7447 15.2129 20.7447 15.4682 20.7447C15.3831 20.6596 15.298 21 15.298 21.2553Z" fill="#263B80"/>
<path d="M11.8085 18.0213C12.1489 17.851 13.4255 17.5106 14.4468 17.4255C15.4681 17.4255 16.0638 17.5957 15.8936 18.5319C12.9149 18.5319 10.8723 19.1276 10.4468 21.1702C9.85106 24.5745 13.5106 24.6596 14.9575 23.1277L14.7021 24.0638H17.4255L18.617 18.5319C19.1277 16.234 17 15.6383 15.1277 15.6383M15.2979 21.2553C15.1277 21.9362 14.5319 22.1915 13.8511 22.2766C13.2553 22.2766 12.7447 21.9362 13.1702 21.2553C13.5106 20.7447 14.2766 20.7447 14.7872 20.7447C15.0426 20.7447 15.2128 20.7447 15.4681 20.7447C15.383 20.6596 15.2979 21 15.2979 21.2553Z" fill="#263B80"/>
<path d="M19.7236 15.5532H22.447L22.8726 20.3192L25.596 15.5532H28.4045L21.9364 27.4681H18.8726L20.83 23.8937L19.7236 15.5532Z" fill="#263B80"/>
<path d="M22.447 15.7234L22.8726 20.4043L25.596 15.5532H28.4045L21.9364 27.4681H18.8726L20.83 23.9788" fill="#263B80"/>
<path d="M8.31916 13H3.21277L1 24.0639H3.97873L4.74469 20.6596H6.87235C8.91491 20.6596 10.617 19.4681 11.0426 17.3405C11.5532 14.8724 9.76598 13 8.31916 13ZM8.23406 16.8298C8.06384 17.5958 7.29789 18.1064 6.53193 18.1064H5.17022L5.76597 15.5532H7.21278C7.97874 15.5532 8.40427 16.0639 8.23406 16.8298Z" fill="#263B80"/>
<path d="M8.31916 13H6.02129L1 24.0639H3.97873L4.74469 20.6596H6.87235C8.91491 20.6596 10.617 19.4681 11.0426 17.3405C11.5532 14.8724 9.76598 13 8.31916 13ZM8.23406 16.8298C8.06384 17.5958 7.29789 18.1064 6.53193 18.1064H5.17022L5.76597 15.5532H7.21278C7.97874 15.5532 8.40427 16.0639 8.23406 16.8298Z" fill="#263B80"/>
<path d="M14.5321 18.532C12.2342 18.7022 10.7023 19.383 10.3618 21.0851C9.7661 24.4894 13.4257 24.5745 14.8725 23.0426L14.7023 24.0639H17.4257L17.8512 22.0213L14.5321 18.532ZM15.298 21.2554C15.1278 21.9362 14.5321 22.1915 13.8512 22.2766C13.2555 22.2766 12.7448 21.9362 13.1704 21.2554C13.5108 20.7447 14.2767 20.7447 14.7874 20.7447C15.0427 20.7447 15.2129 20.7447 15.4682 20.7447C15.3831 20.6596 15.298 21 15.298 21.2554Z" fill="#263B80"/>
<path d="M23.0428 20.2341L22.8726 20.4894L24.6598 22.1915L28.4045 15.5532H25.596L23.0428 20.2341Z" fill="#263B80"/>
<path d="M3.97878 24.0639L4.74474 20.6596L1.25537 24.0639H3.97878Z" fill="#263B80"/>
<path d="M30.3616 24.0639L31.1276 20.4894V20.5745L27.6382 24.0639H30.3616Z" fill="#139AD6"/>
<path d="M41 18.532C38.7021 18.7022 37.1702 19.383 36.8298 21.0852C36.234 24.4894 39.9787 24.5745 41.4255 23.0426L41.1702 24.0639H43.8936L44.3192 22.0214L41 18.532ZM41.766 21.2554C41.5957 21.9362 41 22.1916 40.3191 22.2767C39.7234 22.2767 39.2128 21.9362 39.5532 21.2554C39.8936 20.7448 40.6596 20.7448 41.2553 20.7448C41.4255 20.7448 41.6808 20.7448 41.9362 20.7448C41.8511 20.6596 41.766 21.0001 41.766 21.2554Z" fill="#139AD6"/>
<path d="M47.1274 19.0426L45.1699 24.0639H47.8933L48.6593 20.6597L47.1274 19.0426Z" fill="#139AD6"/>
<path d="M50.7873 14.7873V13.5958H50.3618V13.4256H51.4682V13.5958H51.0427V14.7873H50.7873Z" fill="#139AD6"/>
<path d="M51.6382 14.7873V13.4256H51.8935L52.2339 14.3617C52.2339 14.4468 52.319 14.5319 52.319 14.5319C52.319 14.4468 52.319 14.4468 52.4041 14.2766L52.7446 13.3405H52.9999V14.7022H52.8297V13.5107L52.4041 14.7022H52.1488L51.7233 13.5107V14.7022H51.6382V14.7873Z" fill="#139AD6"/>
</svg>
