<svg width="40" height="40" viewBox="0 0 40 40" fill="none" xmlns="http://www.w3.org/2000/svg">
<path d="M18.6691 19.7859V24.413H17.2007V12.9866H21.0936C22.0802 12.9866 22.9215 13.3155 23.6098 13.9733C24.3135 14.631 24.6653 15.4341 24.6653 16.3824C24.6653 17.3537 24.3135 18.1568 23.6098 18.8069C22.9291 19.4569 22.0879 19.7782 21.0936 19.7782H18.6691V19.7859ZM18.6691 14.3939V18.3786H21.1242C21.7054 18.3786 22.195 18.1798 22.5773 17.7897C22.9674 17.3996 23.1662 16.9255 23.1662 16.3901C23.1662 15.8623 22.9674 15.3958 22.5773 15.0058C22.1949 14.6004 21.7131 14.4016 21.1242 14.4016H18.6691V14.3939Z" fill="white"/>
<path d="M28.5048 16.3365C29.5909 16.3365 30.4475 16.6272 31.0746 17.2084C31.7018 17.7897 32.0153 18.5851 32.0153 19.5947V24.413H30.6157V23.327H30.5545C29.9503 24.2219 29.1396 24.6655 28.1301 24.6655C27.2659 24.6655 26.5469 24.413 25.9656 23.9006C25.3844 23.3882 25.0938 22.7533 25.0938 21.9886C25.0938 21.1779 25.3997 20.5355 26.0116 20.0612C26.6234 19.5794 27.4418 19.3423 28.459 19.3423C29.3309 19.3423 30.0498 19.503 30.6081 19.8241V19.4876C30.6081 18.9752 30.4093 18.5469 30.0039 18.1875C29.5985 17.828 29.1244 17.6521 28.5813 17.6521C27.763 17.6521 27.1129 17.9962 26.6387 18.6923L25.3461 17.8815C26.0574 16.849 27.1129 16.3365 28.5048 16.3365ZM26.6081 22.0115C26.6081 22.3939 26.7687 22.7151 27.0976 22.9675C27.4188 23.2199 27.8012 23.3499 28.2372 23.3499C28.8567 23.3499 29.4073 23.1205 29.8892 22.6615C30.3711 22.2026 30.6158 21.6672 30.6158 21.0478C30.1569 20.6883 29.5221 20.5048 28.7038 20.5048C28.1072 20.5048 27.6101 20.6501 27.2123 20.933C26.807 21.2313 26.6081 21.5908 26.6081 22.0115Z" fill="white"/>
<path d="M40.0001 16.5889L35.1052 27.847H33.5909L35.4111 23.9082L32.1836 16.5889H33.782L36.1071 22.2026H36.1377L38.4016 16.5889H40.0001Z" fill="white"/>
<path d="M12.706 17.4753H6.55078V19.9992L10.0957 20C9.95195 20.8398 9.48922 21.5556 8.78023 22.0329V22.0334C8.78047 22.0332 8.78078 22.033 8.78102 22.0329L8.71719 23.5414L10.8912 23.6696C10.8909 23.6698 10.8905 23.6702 10.8903 23.6704C12.1224 22.5301 12.8284 20.8444 12.8284 18.8528C12.8284 18.374 12.7855 17.9159 12.706 17.4753Z" fill="#0085F7"/>
<path d="M8.78102 22.0329C8.78078 22.033 8.78047 22.0332 8.78024 22.0333C8.19297 22.4292 7.4368 22.6608 6.55234 22.6608C4.84297 22.6608 3.39289 21.509 2.87359 19.9564H2.87336C2.87344 19.9566 2.87352 19.9569 2.87359 19.9572L1.05867 19.6697L0.697266 21.6456C1.77578 23.7853 3.99203 25.2535 6.55242 25.2535C8.32172 25.2535 9.8082 24.6718 10.8904 23.6703C10.8907 23.6701 10.891 23.6698 10.8913 23.6695L8.78102 22.0329Z" fill="#00A94B"/>
<path d="M2.66844 18.7036C2.66844 18.2677 2.74109 17.8462 2.87344 17.4501L2.30672 15.7613H0.696719C0.250859 16.6462 0 17.6451 0 18.7036C0 19.7621 0.251641 20.7609 0.696719 21.6459L0.697031 21.6456L2.87344 19.9571C2.87336 19.9569 2.87328 19.9566 2.8732 19.9563C2.74102 19.5605 2.66844 19.1393 2.66844 18.7036Z" fill="#FFBB00"/>
<path d="M6.55225 12.153C3.9924 12.153 1.77521 13.6214 0.696777 15.7614L2.87342 17.4501C3.39271 15.8976 4.84279 14.7458 6.55217 14.7458C7.51811 14.7458 8.38318 15.0785 9.06615 15.7286L10.9362 13.8601C9.80045 12.8023 8.31975 12.153 6.55225 12.153Z" fill="#FF4031"/>
</svg>
