<svg width="40" height="40" viewBox="0 0 40 40" fill="none" xmlns="http://www.w3.org/2000/svg">
<path d="M8.7694 12.1591C9.3157 11.4758 9.68637 10.5583 9.58867 9.62079C8.78897 9.66057 7.81309 10.1484 7.24812 10.8322C6.74079 11.4178 6.29182 12.3737 6.40891 13.2719C7.30648 13.3498 8.20343 12.8232 8.7694 12.1591Z" fill="black"/>
<path d="M9.57875 13.4473C8.27507 13.3696 7.1666 14.1872 6.54399 14.1872C5.92111 14.1872 4.9677 13.4865 3.93654 13.5053C2.59443 13.5251 1.34912 14.2839 0.668052 15.4908C-0.73278 17.9052 0.298382 21.4866 1.66061 23.453C2.3221 24.4258 3.11944 25.497 4.16991 25.4585C5.16246 25.4195 5.55153 24.8157 6.75796 24.8157C7.96358 24.8157 8.31404 25.4585 9.36469 25.439C10.4543 25.4195 11.1355 24.4656 11.797 23.4919C12.5559 22.3828 12.8665 21.3121 12.886 21.2533C12.8665 21.2338 10.785 20.4353 10.7657 18.041C10.746 16.0362 12.3999 15.0825 12.4777 15.0234C11.5439 13.6423 10.0846 13.4865 9.57875 13.4473Z" fill="black"/>
<path d="M19.2141 13.8758C21.4431 13.8758 22.9952 15.4123 22.9952 17.6493C22.9952 19.8943 21.4111 21.4387 19.1582 21.4387H16.6903V25.3634H14.9072V13.8758H19.2141ZM16.6902 19.942H18.7362C20.2886 19.942 21.1722 19.1062 21.1722 17.6573C21.1722 16.2085 20.2886 15.3805 18.7442 15.3805H16.6902V19.942Z" fill="black"/>
<path d="M23.4609 22.9832C23.4609 21.5182 24.5834 20.6187 26.5738 20.5073L28.8664 20.3719V19.7272C28.8664 18.7957 28.2375 18.2385 27.1869 18.2385C26.1915 18.2385 25.5705 18.716 25.4195 19.4645H23.7954C23.891 17.9518 25.1805 16.8373 27.2505 16.8373C29.2804 16.8373 30.578 17.912 30.578 19.5917V25.3634H28.93V23.9862H28.8904C28.4048 24.9177 27.3459 25.5067 26.2474 25.5067C24.6074 25.5067 23.4609 24.4876 23.4609 22.9832ZM28.8664 22.2269V21.5662L26.8045 21.6935C25.7775 21.7652 25.1964 22.219 25.1964 22.9355C25.1964 23.6678 25.8014 24.1455 26.7249 24.1455C27.927 24.1454 28.8664 23.3174 28.8664 22.2269Z" fill="black"/>
<path d="M32.1341 28.4444V27.0512C32.2613 27.083 32.5478 27.083 32.6912 27.083C33.4873 27.083 33.9172 26.7487 34.1798 25.8889C34.1798 25.8729 34.3312 25.3794 34.3312 25.3714L31.3062 16.9885H33.1688L35.2867 23.8031H35.3183L37.4362 16.9885H39.2511L36.1142 25.8012C35.398 27.8314 34.57 28.4842 32.8346 28.4842C32.6912 28.4842 32.2613 28.4682 32.1341 28.4444Z" fill="black"/>
</svg>
