<svg width="18" height="18" viewBox="0 0 18 18" fill="none" xmlns="http://www.w3.org/2000/svg">
<path fill-rule="evenodd" clip-rule="evenodd" d="M9.00396 0.254883C13.8356 0.254883 17.754 4.17326 17.754 9.00494C17.754 13.8366 13.8356 17.755 9.00396 17.755C4.17229 17.755 0.253906 13.8366 0.253906 9.00494C0.253906 4.17326 4.17229 0.254883 9.00396 0.254883ZM7.1869 11.847L5.04467 9.70302C4.67971 9.33784 4.67964 8.74234 5.04467 8.37724C5.40979 8.0122 6.00794 8.01448 6.37039 8.37724L7.88065 9.88868L11.6377 6.13166C12.0028 5.76655 12.5983 5.76655 12.9634 6.13166C13.3285 6.4967 13.328 7.09278 12.9634 7.45738L8.54244 11.8783C8.17785 12.2429 7.58176 12.2434 7.21672 11.8783C7.20646 11.8681 7.19657 11.8576 7.1869 11.847Z" fill="#51801A"/>
</svg>
