<svg width="17" height="16" viewBox="0 0 17 16" fill="none" xmlns="http://www.w3.org/2000/svg">
<g clip-path="url(#clip0_1744_26860)">
<path d="M11.3491 9.41291L9.11828 7.73979V4.3316C9.11828 3.98891 8.84128 3.71191 8.49859 3.71191C8.15591 3.71191 7.87891 3.98891 7.87891 4.3316V8.04966C7.87891 8.24485 7.97062 8.42891 8.12678 8.54541L10.6055 10.4044C10.717 10.4881 10.8472 10.5284 10.9767 10.5284C11.1657 10.5284 11.3516 10.4435 11.473 10.2799C11.6788 10.0066 11.623 9.61804 11.3491 9.41291Z" fill="#9DA0A4"/>
<path d="M8.5 0C4.08853 0 0.5 3.58853 0.5 8C0.5 12.4115 4.08853 16 8.5 16C12.9115 16 16.5 12.4115 16.5 8C16.5 3.58853 12.9115 0 8.5 0ZM8.5 14.7607C4.77266 14.7607 1.73934 11.7273 1.73934 8C1.73934 4.27266 4.77266 1.23934 8.5 1.23934C12.228 1.23934 15.2607 4.27266 15.2607 8C15.2607 11.7273 12.2273 14.7607 8.5 14.7607Z" fill="#9DA0A4"/>
</g>
<defs>
<clipPath id="clip0_1744_26860">
<rect width="16" height="16" fill="white" transform="translate(0.5)"/>
</clipPath>
</defs>
</svg>
