<svg width="20" height="20" viewBox="0 0 20 20" fill="none" xmlns="http://www.w3.org/2000/svg">
<path fill-rule="evenodd" clip-rule="evenodd" d="M7.92969 16.775C7.92969 15.6632 8.82934 14.7635 9.94122 14.7635C11.0531 14.7635 11.9528 15.6632 11.9528 16.775C11.9528 17.8869 11.0531 18.7866 9.94122 18.7866C8.82934 18.7866 7.92969 17.8869 7.92969 16.775ZM7.92969 10.1499C7.92969 9.03801 8.82934 8.13836 9.94122 8.13836C11.0531 8.13836 11.9528 9.03801 11.9528 10.1499V10.1776V10.2053C11.9528 11.3171 11.0531 12.2168 9.94122 12.2168C8.82934 12.2168 7.92969 11.3171 7.92969 10.2053V10.1776V10.1499ZM7.92969 3.5755C7.92969 2.46362 8.82934 1.56396 9.94122 1.56396C11.0531 1.56396 11.9528 2.46362 11.9528 3.5755C11.9528 4.68738 11.0531 5.58703 9.94122 5.58703C8.82934 5.58703 7.92969 4.68738 7.92969 3.5755Z" fill="#6D717A"/>
</svg>
