<svg width="20" height="20" viewBox="0 0 20 20" fill="none" xmlns="http://www.w3.org/2000/svg">
<path d="M3.96602 15.6752C3.96602 15.6752 4.03268 15.6752 4.05768 15.6752L6.49935 15.4502C6.84102 15.4168 7.15768 15.2668 7.39935 15.0252L16.616 5.8085C17.0493 5.37516 17.291 4.80016 17.291 4.19183C17.291 3.5835 17.0493 3.0085 16.616 2.57516L16.0243 1.9835C15.1577 1.11683 13.6493 1.11683 12.7827 1.9835L11.6077 3.1585L3.57435 11.1918C3.33268 11.4335 3.18268 11.7502 3.15768 12.0918L2.93268 14.5335C2.90768 14.8418 3.01602 15.1418 3.23268 15.3668C3.43268 15.5668 3.69102 15.6752 3.96602 15.6752ZM14.4077 2.5585C14.6743 2.5585 14.941 2.6585 15.141 2.86683L15.7327 3.4585C15.9327 3.6585 16.041 3.91683 16.041 4.19183C16.041 4.46683 15.9327 4.7335 15.7327 4.92516L14.9993 5.6585L12.941 3.60016L13.6743 2.86683C13.8743 2.66683 14.141 2.5585 14.4077 2.5585ZM4.39935 12.2085C4.39935 12.1585 4.42435 12.1168 4.45768 12.0835L12.0493 4.4835L14.1077 6.54183L6.51602 14.1335C6.51602 14.1335 6.43268 14.1918 6.39102 14.1918L4.19935 14.3918L4.39935 12.2002V12.2085ZM18.9577 18.3335C18.9577 18.6752 18.6743 18.9585 18.3327 18.9585H1.66602C1.32435 18.9585 1.04102 18.6752 1.04102 18.3335C1.04102 17.9918 1.32435 17.7085 1.66602 17.7085H18.3327C18.6743 17.7085 18.9577 17.9918 18.9577 18.3335Z" fill="#6D717A"/>
</svg>
