<svg width="20" height="21" viewBox="0 0 20 21" fill="none" xmlns="http://www.w3.org/2000/svg">
<path fill-rule="evenodd" clip-rule="evenodd" d="M10.004 1.75488C14.8356 1.75488 18.754 5.67326 18.754 10.5049C18.754 15.3366 14.8356 19.255 10.004 19.255C5.17229 19.255 1.25391 15.3366 1.25391 10.5049C1.25391 5.67326 5.17229 1.75488 10.004 1.75488ZM8.1869 13.347L6.04467 11.203C5.67971 10.8378 5.67964 10.2423 6.04467 9.87724C6.40979 9.5122 7.00794 9.51448 7.37039 9.87724L8.88065 11.3887L12.6377 7.63166C13.0028 7.26655 13.5983 7.26655 13.9634 7.63166C14.3285 7.9967 14.328 8.59278 13.9634 8.95738L9.54244 13.3783C9.17785 13.7429 8.58176 13.7434 8.21672 13.3783C8.20646 13.3681 8.19657 13.3576 8.1869 13.347Z" fill="#00BA00"/>
</svg>
