<svg width="24" height="24" viewBox="0 0 24 24" fill="none" xmlns="http://www.w3.org/2000/svg">
<g clip-path="url(#clip0_1665_22345)">
<path d="M23.2497 11.2504H13.75C13.336 11.2504 13 10.9145 13 10.5005C13 10.0865 13.336 9.75049 13.75 9.75049H23.2497C23.6637 9.75049 23.9997 10.0865 23.9997 10.5005C23.9997 10.9145 23.6637 11.2504 23.2497 11.2504Z" fill="#2A2E3A"/>
<path d="M19.4998 15C19.3077 15 19.1158 14.927 18.9697 14.7801C18.6768 14.487 18.6768 14.012 18.9697 13.7191L22.1897 10.4993L18.9697 7.27927C18.6768 6.98631 18.6768 6.51135 18.9697 6.21839C19.2629 5.92525 19.7378 5.92525 20.0308 6.21839L23.7807 9.96828C24.0736 10.2612 24.0736 10.7362 23.7807 11.0292L20.0308 14.779C19.8838 14.927 19.6919 15 19.4998 15Z" fill="#2A2E3A"/>
<path d="M7.99981 24.0002C7.78577 24.0002 7.58271 23.9702 7.37983 23.9072L1.3619 21.9023C0.543074 21.6163 0 20.8533 0 20.0004V2.00098C0 0.897982 0.897006 0.000976562 2 0.000976562C2.21386 0.000976562 2.41692 0.0310049 2.61997 0.0939912L8.63773 2.09893C9.45673 2.38494 9.99963 3.14791 9.99963 4.00079V22.0002C9.99963 23.1032 9.1028 24.0002 7.99981 24.0002ZM2 1.50093C1.72498 1.50093 1.49995 1.72596 1.49995 2.00098V20.0004C1.49995 20.2134 1.64295 20.4113 1.84693 20.4823L7.83667 22.4783C7.8797 22.4922 7.93573 22.5003 7.99981 22.5003C8.27483 22.5003 8.49967 22.2752 8.49967 22.0002V4.00079C8.49967 3.78785 8.35667 3.58991 8.1527 3.51887L2.16296 1.5229C2.11993 1.50899 2.0639 1.50093 2 1.50093Z" fill="#2A2E3A"/>
<path d="M15.2494 8.00079C14.8355 8.00079 14.4995 7.6648 14.4995 7.25081V2.75095C14.4995 2.06195 13.9386 1.50093 13.2496 1.50093H1.99998C1.58599 1.50093 1.25 1.16494 1.25 0.750953C1.25 0.336965 1.58599 0.000976562 1.99998 0.000976562H13.2496C14.7666 0.000976562 15.9994 1.23397 15.9994 2.75095V7.25081C15.9994 7.6648 15.6634 8.00079 15.2494 8.00079Z" fill="#2A2E3A"/>
<path d="M13.25 21.0003H9.24998C8.83599 21.0003 8.5 20.6643 8.5 20.2503C8.5 19.8363 8.83599 19.5003 9.24998 19.5003H13.25C13.939 19.5003 14.4998 18.9393 14.4998 18.2503V13.7505C14.4998 13.3365 14.8358 13.0005 15.2498 13.0005C15.6638 13.0005 15.9998 13.3365 15.9998 13.7505V18.2503C15.9998 19.7673 14.767 21.0003 13.25 21.0003Z" fill="#2A2E3A"/>
</g>
<defs>
<clipPath id="clip0_1665_22345">
<rect width="24" height="24" fill="white"/>
</clipPath>
</defs>
</svg>
