<svg width="24" height="24" viewBox="0 0 24 24" fill="none" xmlns="http://www.w3.org/2000/svg">
<path d="M22.8994 20.2927L21.3697 8.93264C21.2836 8.29369 20.9711 7.70991 20.4895 7.28883C20.0079 6.86775 19.3876 6.63586 18.7429 6.63586H17.0597V5.76319C17.0597 2.97305 14.7898 0.703125 11.9997 0.703125C9.20952 0.703125 6.93955 2.97305 6.93955 5.76319V6.63586H5.25636C4.61164 6.63586 3.99135 6.86775 3.5098 7.28883C3.02825 7.70986 2.71564 8.29369 2.62958 8.93264L1.09991 20.2927C0.994862 21.0729 1.21325 21.7986 1.73141 22.391C2.24957 22.9836 2.93952 23.2969 3.72669 23.2969H20.2726C21.0598 23.2969 21.7497 22.9837 22.268 22.391C22.7861 21.7984 23.0044 21.0728 22.8994 20.2927ZM8.43955 5.76319C8.43955 3.80016 10.0366 2.20312 11.9997 2.20312C13.9627 2.20312 15.5597 3.80016 15.5597 5.76319V6.63586H8.43955V5.76319ZM21.1388 21.4036C20.9074 21.6682 20.6241 21.7969 20.2726 21.7969H3.72669C3.37527 21.7969 3.09196 21.6682 2.86053 21.4036C2.62921 21.1391 2.53958 20.8412 2.58646 20.4929L4.11617 9.1328C4.19394 8.55511 4.67347 8.13586 5.25636 8.13586H6.93955V10.7299C6.93955 11.1441 7.27536 11.4799 7.68955 11.4799C8.10374 11.4799 8.43955 11.1441 8.43955 10.7299V8.13586H15.5597V10.7299C15.5597 11.1441 15.8955 11.4799 16.3097 11.4799C16.7239 11.4799 17.0597 11.1441 17.0597 10.7299V8.13586H18.7429C19.3258 8.13586 19.8053 8.55511 19.8831 9.1328L21.4128 20.4928C21.4597 20.8411 21.3701 21.1391 21.1388 21.4036Z" fill="#2A2E3A"/>
</svg>
