<svg width="24" height="24" viewBox="0 0 24 24" fill="none" xmlns="http://www.w3.org/2000/svg">
<path d="M3.49203 22.0752C3.45058 22.487 3.08355 22.7871 2.67171 22.7461C2.25972 22.7048 1.95881 22.3378 1.99984 21.9258L3.49203 22.0752ZM16.7459 16.25C18.9408 16.25 20.135 17.8435 20.742 19.1924C21.0513 19.8798 21.2379 20.5582 21.3465 21.0596C21.4012 21.3118 21.4373 21.5235 21.4598 21.6738C21.4711 21.7491 21.4789 21.8099 21.4842 21.8525C21.4868 21.8734 21.4887 21.8901 21.4901 21.9023C21.4908 21.9085 21.4906 21.9142 21.491 21.918C21.4912 21.9198 21.4919 21.9216 21.492 21.9229V21.9248L19.9998 22.0752L21.492 21.9258C21.5331 22.3378 21.2322 22.7049 20.8202 22.7461C20.4339 22.7845 20.0873 22.5228 20.0116 22.1504L19.9998 22.0752C19.9997 22.0742 19.9992 22.0716 19.9989 22.0684C19.9981 22.0618 19.9968 22.0509 19.995 22.0361C19.9912 22.0056 19.9846 21.9579 19.9754 21.8965C19.957 21.7734 19.9266 21.5942 19.8797 21.3779C19.7852 20.9418 19.628 20.3701 19.3748 19.8076C18.8568 18.6564 18.051 17.75 16.7459 17.75C13.246 17.7501 10.2459 17.7501 6.74593 17.75C5.44093 17.75 4.63503 18.6565 4.11703 19.8076C3.86392 20.3701 3.70664 20.9418 3.61214 21.3779C3.56528 21.5942 3.5349 21.7734 3.51644 21.8965C3.50722 21.9579 3.50068 22.0056 3.49691 22.0361C3.49508 22.0509 3.49374 22.0618 3.493 22.0684C3.49263 22.0717 3.49213 22.0742 3.49203 22.0752L1.99984 21.9248V21.9229C1.99997 21.9216 2.00062 21.9198 2.00081 21.918C2.00121 21.9142 2.00111 21.9085 2.00179 21.9023C2.00315 21.8901 2.00508 21.8734 2.00765 21.8525C2.01291 21.8099 2.02078 21.7491 2.03206 21.6738C2.05461 21.5235 2.0907 21.3118 2.14535 21.0596C2.25398 20.5583 2.44054 19.8797 2.74984 19.1924C3.3568 17.8435 4.55108 16.25 6.74593 16.25C10.2459 16.2501 13.246 16.2501 16.7459 16.25ZM11.7459 1C15.0596 1 17.7459 3.68629 17.7459 7C17.7459 10.3137 15.0596 13 11.7459 13C8.43223 13 5.74593 10.3137 5.74593 7C5.74593 3.68629 8.43223 1 11.7459 1ZM11.7459 2.5C9.26065 2.5 7.24593 4.51472 7.24593 7C7.24593 9.48528 9.26065 11.5 11.7459 11.5C14.2312 11.5 16.2459 9.48528 16.2459 7C16.2459 4.51472 14.2312 2.5 11.7459 2.5Z" fill="#2A2E3A"/>
</svg>
