<svg width="32" height="32" viewBox="0 0 32 32" fill="none" xmlns="http://www.w3.org/2000/svg">
<path d="M16 4C15.7203 3.54948 15.0603 3.56269 14.7989 4.02404L2.69208 25.389C1.93656 26.7222 2.89967 28.375 4.43213 28.375H27.0751C28.6291 28.375 29.5894 26.6801 28.7907 25.347L16 4Z" fill="#FF641A"/>
<path d="M28.7875 25.3457C29.5874 26.6788 28.6271 28.3748 27.0725 28.3748H15.9141C15.6379 28.3748 15.4141 28.1509 15.4141 27.8748V4.86317C15.4141 4.35607 16.0819 4.17108 16.3428 4.60591L28.7875 25.3457Z" fill="#F03800"/>
<path d="M14.0039 21.3203H16.8258V24.1422H14.0039V21.3203Z" fill="#E6F1FF"/>
<path d="M15.4141 21.3203H16.825V24.1422H15.4141V21.3203Z" fill="#D5E8FE"/>
<path d="M14.0039 12.855H16.8258V18.4987H14.0039V12.855Z" fill="#E6F1FF"/>
<path d="M15.4141 12.855H16.825V18.4987H15.4141V12.855Z" fill="#D5E8FE"/>
</svg>
