<svg width="50" height="50" viewBox="0 0 50 50" fill="none" xmlns="http://www.w3.org/2000/svg">
<path d="M11.0975 25.1985L9.92344 19.5666C9.72275 18.7899 9.13877 18.5589 8.40908 18.5283H3.02646L2.97852 18.7856C7.1708 19.802 9.94473 22.2537 11.0975 25.1985Z" fill="#F79F1A"/>
<path d="M50 38.8443C50 40.4539 48.6768 41.7587 47.0444 41.7587H2.95557C1.32324 41.7588 0 40.4539 0 38.8443V10.6731C0 9.06353 1.32324 7.75879 2.95557 7.75879H47.0444C48.6769 7.75879 50 9.06362 50 10.6731V38.8443Z" fill="white"/>
<path d="M23.5698 18.4893H20.092L17.9199 31.0578H21.392L23.5698 18.4893Z" fill="#059BBF"/>
<path d="M13.2177 31.0454L18.6874 18.498H15.0066L11.604 27.0706L11.2408 25.7763C10.5738 24.2191 8.66758 21.978 6.42969 20.5671L9.54004 31.0496L13.2177 31.0454Z" fill="#059BBF"/>
<path d="M33.4897 26.9493C33.5026 25.5224 32.5734 24.434 30.5711 23.5351C29.3542 22.9544 28.6125 22.5672 28.6214 21.978C28.6214 21.4575 29.2495 20.8983 30.6104 20.8983C31.7492 20.8811 32.5691 21.1263 33.2105 21.3801L33.5247 21.5221L33.996 18.7993C33.3066 18.5454 32.229 18.2744 30.8813 18.2744C27.4479 18.2744 25.0313 19.9779 25.0094 22.4211C24.9875 24.2278 26.7371 25.2343 28.0544 25.8364C29.4066 26.4502 29.8604 26.8429 29.8517 27.3935C29.843 28.2354 28.774 28.6193 27.7751 28.6193C26.3835 28.6193 25.6462 28.4301 24.5027 27.9604L24.0584 27.7591L23.5703 30.5755C24.3812 30.925 25.8816 31.2304 27.4393 31.2431C31.0903 31.2431 33.4636 29.5613 33.4897 26.9493Z" fill="#059BBF"/>
<path d="M37.6199 29.1746C38.0169 29.1746 41.5635 29.179 42.0697 29.179C42.1744 29.6166 42.4929 31.0629 42.4929 31.0629H45.7166L42.9028 18.5029H40.22C39.3867 18.5029 38.7675 18.7266 38.4009 19.5437L33.2402 31.0629H36.8918C36.8915 31.0629 37.4847 29.5146 37.6199 29.1746ZM40.0017 23.0881C39.9845 23.1225 40.2897 22.3612 40.4643 21.888L40.6997 22.9719C40.6997 22.9719 41.363 25.9744 41.5024 26.6024H38.6188C38.9068 25.8798 40.0017 23.0881 40.0017 23.0881Z" fill="#059BBF"/>
<path d="M47.0444 7.75879H2.95557C1.32324 7.75879 0 9.06353 0 10.6731V13.6978H50V10.6731C50 9.06353 48.6769 7.75879 47.0444 7.75879Z" fill="#059BBF"/>
<path d="M47.0444 41.7583H2.95557C1.32324 41.7583 0 40.4535 0 38.844V35.8193H50V38.844C50 40.4535 48.6769 41.7583 47.0444 41.7583Z" fill="#F79F1A"/>
<path opacity="0.15" d="M2.10127 39.2852V10.7145C2.10127 9.08203 3.42461 7.75879 5.05703 7.75879H2.95547C1.32324 7.75879 0 9.08203 0 10.7145V39.2853C0 40.9177 1.32324 42.241 2.95557 42.241H5.05713C3.42471 42.241 2.10127 40.9176 2.10127 39.2852Z" fill="#202121"/>
</svg>
