<svg width="50" height="34" viewBox="0 0 50 34" fill="none" xmlns="http://www.w3.org/2000/svg">
<g clip-path="url(#clip0_2046_17467)">
<rect width="50" height="34" rx="3" fill="#294481"/>
<path d="M3.1598 21L4.24645 14.4545H6.82884C7.32315 14.4545 7.72905 14.5494 8.04652 14.739C8.36612 14.9265 8.58984 15.1875 8.71768 15.522C8.84766 15.8544 8.87749 16.2379 8.80717 16.6726C8.73473 17.1094 8.57706 17.494 8.33416 17.8263C8.09339 18.1566 7.78018 18.4144 7.39453 18.5998C7.00888 18.7852 6.56357 18.8778 6.05859 18.8778H4.41264L4.59482 17.7688H6.01705C6.28551 17.7688 6.51456 17.723 6.70419 17.6314C6.89595 17.5376 7.0483 17.4087 7.16122 17.2447C7.27415 17.0785 7.34766 16.8878 7.38175 16.6726C7.41797 16.4531 7.40625 16.2624 7.34659 16.1005C7.28693 15.9386 7.1772 15.8129 7.0174 15.7234C6.85973 15.6317 6.64773 15.5859 6.38139 15.5859H5.44815L4.54368 21H3.1598ZM10.2166 21.0927C9.90554 21.0927 9.63601 21.0384 9.40803 20.9297C9.18217 20.8189 9.01598 20.6548 8.90945 20.4375C8.80291 20.2202 8.77628 19.9506 8.82955 19.6289C8.87642 19.3562 8.96484 19.1282 9.09482 18.945C9.22692 18.7596 9.38778 18.6104 9.57741 18.4975C9.76705 18.3846 9.97692 18.2983 10.207 18.2386C10.4393 18.179 10.679 18.1385 10.9261 18.1172C11.2116 18.0874 11.4439 18.0586 11.6229 18.0309C11.804 18.0032 11.9393 17.9638 12.0288 17.9126C12.1183 17.8594 12.1726 17.7805 12.1918 17.6761V17.657C12.2237 17.4567 12.1864 17.3011 12.0799 17.1903C11.9755 17.0774 11.8082 17.021 11.5781 17.021C11.3352 17.021 11.1286 17.0742 10.9581 17.1808C10.7898 17.2873 10.6694 17.4226 10.5969 17.5866L9.35689 17.4844C9.46768 17.1861 9.63494 16.9283 9.85866 16.7109C10.0845 16.4915 10.3562 16.3232 10.6737 16.206C10.9911 16.0866 11.3469 16.027 11.7411 16.027C12.0138 16.027 12.2685 16.0589 12.505 16.1229C12.7436 16.1868 12.9492 16.2859 13.1218 16.4201C13.2965 16.5543 13.4222 16.7269 13.4989 16.9379C13.5778 17.1467 13.5938 17.397 13.5469 17.6889L12.994 21H11.7028L11.8178 20.3192H11.7795C11.6751 20.4727 11.5472 20.608 11.396 20.7251C11.2447 20.8402 11.071 20.9308 10.875 20.9968C10.679 21.0607 10.4595 21.0927 10.2166 21.0927ZM10.7631 20.1531C10.9613 20.1531 11.1435 20.1136 11.3097 20.0348C11.478 19.9538 11.6165 19.8452 11.7251 19.7088C11.8359 19.5724 11.9063 19.418 11.9361 19.2454L12.0192 18.7244C11.9766 18.7521 11.9148 18.7766 11.8338 18.7979C11.755 18.8192 11.6687 18.8395 11.5749 18.8587C11.4833 18.8757 11.3906 18.8917 11.2969 18.9066C11.2031 18.9194 11.119 18.9322 11.0444 18.945C10.8803 18.9684 10.7333 19.0057 10.6033 19.0568C10.4734 19.108 10.3679 19.1772 10.2869 19.2646C10.206 19.3498 10.1559 19.4563 10.1367 19.5842C10.1069 19.7695 10.1506 19.9112 10.2678 20.0092C10.3871 20.1051 10.5522 20.1531 10.7631 20.1531ZM14.4146 22.8409C14.2399 22.8409 14.0801 22.8271 13.9352 22.7994C13.7903 22.7738 13.671 22.7408 13.5772 22.7003L14.0566 21.6839C14.2079 21.733 14.3453 21.7585 14.4689 21.7607C14.5946 21.7628 14.7097 21.7308 14.8141 21.6648C14.9185 21.5987 15.0144 21.4901 15.1017 21.3388L15.2232 21.131L14.3027 16.0909H15.6834L16.0989 19.7024H16.15L17.7768 16.0909H19.2694L16.46 21.5305C16.3216 21.7969 16.1575 22.0281 15.9679 22.2241C15.7804 22.4201 15.5577 22.5714 15.2999 22.6779C15.0442 22.7866 14.7491 22.8409 14.4146 22.8409ZM22.7434 17.772L22.5676 18.8523H19.5794L19.7551 17.772H22.7434ZM23.3922 21L24.4789 14.4545H25.8627L24.9679 19.859H27.774L27.5822 21H23.3922ZM29.8602 21.0927C29.5491 21.0927 29.2796 21.0384 29.0516 20.9297C28.8257 20.8189 28.6595 20.6548 28.553 20.4375C28.4465 20.2202 28.4198 19.9506 28.4731 19.6289C28.52 19.3562 28.6084 19.1282 28.7384 18.945C28.8705 18.7596 29.0313 18.6104 29.221 18.4975C29.4106 18.3846 29.6205 18.2983 29.8506 18.2386C30.0828 18.179 30.3225 18.1385 30.5697 18.1172C30.8552 18.0874 31.0874 18.0586 31.2664 18.0309C31.4475 18.0032 31.5828 17.9638 31.6723 17.9126C31.7618 17.8594 31.8161 17.7805 31.8353 17.6761V17.657C31.8673 17.4567 31.83 17.3011 31.7235 17.1903C31.6191 17.0774 31.4518 17.021 31.2217 17.021C30.9788 17.021 30.7721 17.0742 30.6017 17.1808C30.4333 17.2873 30.3129 17.4226 30.2405 17.5866L29.0004 17.4844C29.1112 17.1861 29.2785 16.9283 29.5022 16.7109C29.7281 16.4915 29.9997 16.3232 30.3172 16.206C30.6347 16.0866 30.9905 16.027 31.3847 16.027C31.6574 16.027 31.912 16.0589 32.1485 16.1229C32.3872 16.1868 32.5928 16.2859 32.7654 16.4201C32.9401 16.5543 33.0658 16.7269 33.1425 16.9379C33.2213 17.1467 33.2373 17.397 33.1904 17.6889L32.6375 21H31.3463L31.4614 20.3192H31.423C31.3186 20.4727 31.1908 20.608 31.0395 20.7251C30.8882 20.8402 30.7146 20.9308 30.5186 20.9968C30.3225 21.0607 30.1031 21.0927 29.8602 21.0927ZM30.4067 20.1531C30.6048 20.1531 30.787 20.1136 30.9532 20.0348C31.1215 19.9538 31.26 19.8452 31.3687 19.7088C31.4795 19.5724 31.5498 19.418 31.5796 19.2454L31.6627 18.7244C31.6201 18.7521 31.5583 18.7766 31.4774 18.7979C31.3985 18.8192 31.3122 18.8395 31.2185 18.8587C31.1269 18.8757 31.0342 18.8917 30.9404 18.9066C30.8467 18.9194 30.7625 18.9322 30.6879 18.945C30.5239 18.9684 30.3769 19.0057 30.2469 19.0568C30.1169 19.108 30.0115 19.1772 29.9305 19.2646C29.8495 19.3498 29.7994 19.4563 29.7803 19.5842C29.7504 19.7695 29.7941 19.9112 29.9113 20.0092C30.0306 20.1051 30.1958 20.1531 30.4067 20.1531ZM37.1231 16.0909L36.9537 17.1136H33.9942L34.1668 16.0909H37.1231ZM35.0297 14.9148H36.3912L35.6306 19.4915C35.6093 19.6172 35.6125 19.7152 35.6402 19.7855C35.6679 19.8537 35.7137 19.9016 35.7776 19.9293C35.8437 19.957 35.9225 19.9709 36.0141 19.9709C36.078 19.9709 36.143 19.9656 36.2091 19.9549C36.2751 19.9421 36.3252 19.9325 36.3593 19.9261L36.4104 20.9393C36.3337 20.9627 36.2304 20.9883 36.1004 21.016C35.9726 21.0437 35.8213 21.0607 35.6466 21.0671C35.3142 21.0799 35.0329 21.0362 34.8028 20.9361C34.5727 20.8338 34.4076 20.6772 34.3074 20.4663C34.2073 20.2553 34.186 19.9901 34.2435 19.6705L35.0297 14.9148ZM39.3635 21.0959C38.8607 21.0959 38.4442 20.9936 38.1139 20.7891C37.7836 20.5824 37.5514 20.2905 37.4172 19.9134C37.2851 19.5341 37.2627 19.0856 37.3501 18.5678C37.4353 18.0629 37.6068 17.6197 37.8646 17.2383C38.1246 16.8569 38.4506 16.5597 38.8426 16.3466C39.2346 16.1335 39.6714 16.027 40.153 16.027C40.4768 16.027 40.7698 16.0792 41.0319 16.1836C41.2961 16.2859 41.5155 16.4414 41.6903 16.6502C41.865 16.8569 41.9843 17.1158 42.0482 17.4268C42.1143 17.7379 42.1132 18.1023 42.045 18.5199L41.9843 18.8938H37.8422L37.9733 18.0501H40.8369C40.8689 17.854 40.8561 17.6804 40.7986 17.5291C40.741 17.3778 40.6452 17.2596 40.5109 17.1744C40.3767 17.087 40.2116 17.0433 40.0155 17.0433C39.8153 17.0433 39.6278 17.0923 39.453 17.1903C39.2783 17.2884 39.1313 17.4173 39.012 17.5771C38.8948 17.7347 38.8192 17.9062 38.7851 18.0916L38.6349 18.929C38.5922 19.1868 38.6008 19.4009 38.6604 19.5714C38.7222 19.7418 38.8287 19.8697 38.98 19.9549C39.1313 20.038 39.3231 20.0795 39.5553 20.0795C39.7066 20.0795 39.8483 20.0582 39.9804 20.0156C40.1146 19.973 40.2339 19.9102 40.3383 19.8271C40.4427 19.7418 40.528 19.6364 40.594 19.5107L41.8373 19.5938C41.7222 19.8963 41.5475 20.1605 41.3131 20.3864C41.0787 20.6101 40.7964 20.7848 40.4662 20.9105C40.1381 21.0341 39.7705 21.0959 39.3635 21.0959ZM42.5268 21L43.345 16.0909H44.665L44.5211 16.9474H44.5723C44.7129 16.6428 44.9015 16.4126 45.138 16.2571C45.3766 16.0994 45.6333 16.0206 45.9082 16.0206C45.9764 16.0206 46.0478 16.0249 46.1223 16.0334C46.199 16.0398 46.2672 16.0504 46.3269 16.0653L46.1223 17.2766C46.0627 17.2553 45.9775 17.2383 45.8667 17.2255C45.758 17.2106 45.6547 17.2031 45.5566 17.2031C45.3585 17.2031 45.1742 17.2468 45.0037 17.3342C44.8333 17.4194 44.6895 17.5387 44.5723 17.6921C44.4572 17.8455 44.3816 18.0224 44.3453 18.2227L43.8883 21H42.5268Z" fill="white"/>
</g>
<defs>
<clipPath id="clip0_2046_17467">
<rect width="50" height="34" fill="white"/>
</clipPath>
</defs>
</svg>
