<svg width="20" height="20" viewBox="0 0 20 20" fill="none" xmlns="http://www.w3.org/2000/svg">
<g clip-path="url(#clip0_1563_17807)">
<path d="M10 20C15.5228 20 20 15.5228 20 10C20 4.47715 15.5228 0 10 0C4.47715 0 0 4.47715 0 10C0 15.5228 4.47715 20 10 20Z" fill="#51801A"/>
<path fill-rule="evenodd" clip-rule="evenodd" d="M6.87717 14.8773L3.21984 10.9629C2.71913 10.427 2.74787 9.5791 3.28378 9.0784C3.81969 8.57769 4.66756 8.60651 5.16827 9.14233L7.98937 12.1617L12.4548 7.9895C12.495 7.95194 12.5369 7.91753 12.5803 7.88588L14.6802 5.92391C15.2161 5.4232 16.0641 5.45202 16.5647 5.98792C17.0654 6.52375 17.0366 7.3717 16.5008 7.87241L10.0871 13.8649L10.0802 13.8576L7.86165 15.9305L6.87717 14.8773Z" fill="white"/>
</g>
<defs>
<clipPath id="clip0_1563_17807">
<rect width="20" height="20" fill="white"/>
</clipPath>
</defs>
</svg>
