<svg width="50" height="40" viewBox="0 0 50 40" fill="none" xmlns="http://www.w3.org/2000/svg">
<g clip-path="url(#clip0_2046_17455)">
<path d="M13.7699 12.1594C14.3162 11.4761 14.6869 10.5586 14.5892 9.62109C13.7895 9.66088 12.8136 10.1487 12.2486 10.8325C11.7413 11.4181 11.2923 12.374 11.4094 13.2722C12.307 13.3501 13.2039 12.8235 13.7699 12.1594Z" fill="black"/>
<path d="M14.5788 13.4476C13.2751 13.3699 12.1666 14.1875 11.544 14.1875C10.9211 14.1875 9.9677 13.4867 8.93654 13.5056C7.59443 13.5253 6.34912 14.2842 5.66805 15.4911C4.26722 17.9055 5.29838 21.4869 6.66061 23.4532C7.3221 24.426 8.11944 25.4973 9.16991 25.4587C10.1625 25.4198 10.5515 24.816 11.758 24.816C12.9636 24.816 13.314 25.4587 14.3647 25.4393C15.4543 25.4198 16.1355 24.4659 16.797 23.4921C17.5559 22.3831 17.8665 21.3123 17.886 21.2535C17.8665 21.234 15.785 20.4355 15.7657 18.0412C15.746 16.0365 17.3999 15.0828 17.4777 15.0237C16.5439 13.6425 15.0846 13.4867 14.5788 13.4476Z" fill="black"/>
<path d="M24.2141 13.876C26.4431 13.876 27.9952 15.4125 27.9952 17.6495C27.9952 19.8945 26.4111 21.4389 24.1582 21.4389H21.6903V25.3636H19.9072V13.876H24.2141ZM21.6902 19.9422H23.7362C25.2886 19.9422 26.1722 19.1064 26.1722 17.6574C26.1722 16.2087 25.2886 15.3807 23.7442 15.3807H21.6902V19.9422Z" fill="black"/>
<path d="M28.4609 22.9838C28.4609 21.5189 29.5834 20.6193 31.5738 20.5079L33.8664 20.3726V19.7278C33.8664 18.7964 33.2375 18.2391 32.1869 18.2391C31.1915 18.2391 30.5705 18.7166 30.4195 19.4651H28.7954C28.891 17.9524 30.1805 16.8379 32.2505 16.8379C34.2804 16.8379 35.578 17.9126 35.578 19.5923V25.364H33.93V23.9868H33.8904C33.4048 24.9183 32.3459 25.5073 31.2474 25.5073C29.6074 25.5073 28.4609 24.4882 28.4609 22.9838ZM33.8664 22.2275V21.5668L31.8045 21.6941C30.7775 21.7658 30.1964 22.2196 30.1964 22.9361C30.1964 23.6684 30.8014 24.1461 31.7249 24.1461C32.927 24.146 33.8664 23.3181 33.8664 22.2275Z" fill="black"/>
<path d="M37.1336 28.4441V27.0509C37.2608 27.0827 37.5474 27.0827 37.6907 27.0827C38.4868 27.0827 38.9167 26.7484 39.1793 25.8887C39.1793 25.8727 39.3307 25.3791 39.3307 25.3712L36.3057 16.9883H38.1683L40.2862 23.8029H40.3178L42.4357 16.9883H44.2506L41.1137 25.801C40.3975 27.8312 39.5696 28.4839 37.8341 28.4839C37.6907 28.4839 37.2608 28.4679 37.1336 28.4441Z" fill="black"/>
<rect x="0.5" y="3.5" width="49" height="33" rx="2.5" stroke="black"/>
</g>
<defs>
<clipPath id="clip0_2046_17455">
<rect width="50" height="40" fill="white"/>
</clipPath>
</defs>
</svg>
