<svg width="54" height="34" viewBox="0 0 54 34" fill="none" xmlns="http://www.w3.org/2000/svg">
<g clip-path="url(#clip0_2046_17438)">
<path d="M34.2852 3.62012H19.6719V30.2264H34.2852V3.62012Z" fill="#FF5A00"/>
<path d="M20.6445 16.9233C20.6445 11.5177 23.1521 6.72004 27 3.62017C24.1681 1.36372 20.5959 0 16.6994 0C7.46877 0 0 7.56894 0 16.9233C0 26.2777 7.46877 33.8466 16.6994 33.8466C20.5959 33.8466 24.1681 32.4829 27 30.2265C23.1467 27.1704 20.6445 22.3289 20.6445 16.9233Z" fill="#EB001B"/>
<path d="M54 16.9233C54 26.2777 46.5312 33.8466 37.3006 33.8466C33.4041 33.8466 29.8319 32.4829 27 30.2265C30.8965 27.1211 33.3555 22.3289 33.3555 16.9233C33.3555 11.5177 30.8479 6.72004 27 3.62017C29.8265 1.36372 33.3987 0 37.2952 0C46.5312 0 54 7.61823 54 16.9233Z" fill="#F79E1B"/>
</g>
<defs>
<clipPath id="clip0_2046_17438">
<rect width="54" height="34" fill="white"/>
</clipPath>
</defs>
</svg>
