<svg width="144" height="49" viewBox="0 0 144 49" fill="none" xmlns="http://www.w3.org/2000/svg">
<g clip-path="url(#clip0_2046_17427)">
<path d="M111.314 18.2002H103.543C103.086 18.2002 102.629 18.6573 102.4 19.1145L99.2002 39.2288C99.2002 39.6859 99.4288 39.9145 99.8859 39.9145H104C104.457 39.9145 104.686 39.6859 104.686 39.2288L105.6 33.5145C105.6 33.0573 106.057 32.6002 106.743 32.6002H109.257C114.514 32.6002 117.486 30.0859 118.172 25.0573C118.629 23.0002 118.172 21.1716 117.257 20.0288C115.886 18.8859 113.829 18.2002 111.314 18.2002ZM112.229 25.7431C111.772 28.4859 109.714 28.4859 107.657 28.4859H106.286L107.2 23.2288C107.2 23.0002 107.429 22.7716 107.886 22.7716H108.343C109.714 22.7716 111.086 22.7716 111.772 23.6859C112.229 23.9145 112.229 24.6002 112.229 25.7431Z" fill="#139AD6"/>
<path d="M55.3145 18.2002H47.5431C47.0859 18.2002 46.6288 18.6573 46.4002 19.1145L43.2002 39.2288C43.2002 39.6859 43.4288 39.9145 43.8859 39.9145H47.5431C48.0002 39.9145 48.4573 39.4573 48.6859 39.0002L49.6002 33.5145C49.6002 33.0573 50.0573 32.6002 50.7431 32.6002H53.2573C58.5145 32.6002 61.4859 30.0859 62.1716 25.0573C62.6288 23.0002 62.1716 21.1716 61.2573 20.0288C59.8859 18.8859 58.0573 18.2002 55.3145 18.2002ZM56.2288 25.7431C55.7716 28.4859 53.7145 28.4859 51.6573 28.4859H50.5145L51.4288 23.2288C51.4288 23.0002 51.6573 22.7716 52.1145 22.7716H52.5716C53.9431 22.7716 55.3145 22.7716 56.0002 23.6859C56.2288 23.9145 56.4573 24.6002 56.2288 25.7431Z" fill="#263B80"/>
<path d="M78.8575 25.5148H75.2003C74.9717 25.5148 74.5146 25.7433 74.5146 25.9719L74.286 27.1148L74.0575 26.6576C73.1432 25.5148 71.5432 25.0576 69.7146 25.0576C65.6003 25.0576 61.9432 28.2576 61.2574 32.6005C60.8003 34.8862 61.486 36.9433 62.6289 38.3148C63.7717 39.6862 65.3717 40.1433 67.4289 40.1433C70.8575 40.1433 72.686 38.0862 72.686 38.0862L72.4575 39.229C72.4575 39.6862 72.686 39.9148 73.1432 39.9148H76.5717C77.0289 39.9148 77.486 39.4576 77.7146 39.0005L79.7717 26.2005C79.5432 25.9719 79.086 25.5148 78.8575 25.5148ZM73.6003 32.829C73.1432 34.8862 71.5432 36.4862 69.2574 36.4862C68.1146 36.4862 67.2003 36.029 66.7432 35.5719C66.286 34.8862 66.0574 33.9719 66.0574 32.829C66.286 30.7719 68.1146 29.1719 70.1717 29.1719C71.3146 29.1719 72.0003 29.629 72.686 30.0862C73.3717 30.7719 73.6003 31.9148 73.6003 32.829Z" fill="#263B80"/>
<path d="M134.628 25.5148H130.971C130.742 25.5148 130.285 25.7433 130.285 25.9719L130.057 27.1148L129.828 26.6576C128.914 25.5148 127.314 25.0576 125.485 25.0576C121.371 25.0576 117.714 28.2576 117.028 32.6005C116.571 34.8862 117.257 36.9433 118.399 38.3148C119.542 39.6862 121.142 40.1433 123.199 40.1433C126.628 40.1433 128.457 38.0862 128.457 38.0862L128.228 39.229C128.228 39.6862 128.457 39.9148 128.914 39.9148H132.342C132.799 39.9148 133.257 39.4576 133.485 39.0005L135.542 26.2005C135.314 25.9719 135.085 25.5148 134.628 25.5148ZM129.371 32.829C128.914 34.8862 127.314 36.4862 125.028 36.4862C123.885 36.4862 122.971 36.029 122.514 35.5719C122.057 34.8862 121.828 33.9719 121.828 32.829C122.057 30.7719 123.885 29.1719 125.942 29.1719C127.085 29.1719 127.771 29.629 128.457 30.0862C129.371 30.7719 129.599 31.9148 129.371 32.829Z" fill="#139AD6"/>
<path d="M98.7426 25.5146H94.8569C94.3997 25.5146 94.1711 25.7432 93.9426 25.9718L88.914 33.7432L86.6283 26.4289C86.3997 25.9718 86.1712 25.7432 85.4854 25.7432H81.8283C81.3711 25.7432 81.1426 26.2004 81.1426 26.6575L85.2569 38.7718L81.3711 44.2575C81.1426 44.7146 81.3711 45.4004 81.8283 45.4004H85.4854C85.9426 45.4004 86.1711 45.1718 86.3997 44.9432L98.9711 26.8861C99.6569 26.2004 99.1997 25.5146 98.7426 25.5146Z" fill="#263B80"/>
<path d="M138.971 18.8857L135.771 39.4571C135.771 39.9143 136 40.1428 136.457 40.1428H139.657C140.114 40.1428 140.571 39.6857 140.8 39.2285L144 19.1142C144 18.6571 143.771 18.4285 143.314 18.4285H139.657C139.429 18.2 139.2 18.4285 138.971 18.8857Z" fill="#139AD6"/>
<path d="M26.2857 11.3425C24.6857 9.51389 21.7143 8.59961 17.6 8.59961H6.17143C5.48571 8.59961 4.8 9.28532 4.57143 9.97103L0 39.9139C0 40.5996 0.457143 41.0568 0.914286 41.0568H8L9.82857 29.8568V30.3139C10.0571 29.6282 10.7429 28.9425 11.4286 28.9425H14.8571C21.4857 28.9425 26.5143 26.1996 28.1143 18.6568C28.1143 18.4282 28.1143 18.1996 28.1143 17.971C27.8857 17.971 27.8857 17.971 28.1143 17.971C28.3429 14.9996 27.8857 13.171 26.2857 11.3425Z" fill="#263B80"/>
<path d="M27.8859 17.9717C27.8859 18.2003 27.8859 18.4288 27.8859 18.6574C26.2859 26.4288 21.2573 28.9431 14.6287 28.9431H11.2002C10.5145 28.9431 9.82874 29.6288 9.60017 30.3145L7.31445 44.2574C7.31445 44.7145 7.54302 45.1717 8.22874 45.1717H14.1716C14.8573 45.1717 15.543 44.7145 15.543 44.0288V43.8003L16.6859 36.7145V36.2574C16.6859 35.5717 17.3716 35.1145 18.0573 35.1145H18.9716C24.6859 35.1145 29.2573 32.8288 30.4002 25.9717C30.8573 23.2288 30.6287 20.7145 29.2573 19.1145C29.0287 18.6574 28.5716 18.2003 27.8859 17.9717Z" fill="#139AD6"/>
<path d="M26.2853 17.2853C26.0567 17.2853 25.8281 17.0567 25.5996 17.0567C25.371 17.0567 25.1424 17.0567 24.9138 16.8282C23.9996 16.5996 23.0853 16.5996 21.9424 16.5996H13.0281C12.7996 16.5996 12.571 16.5996 12.3424 16.8282C11.8853 17.0567 11.6567 17.5139 11.6567 17.971L9.82812 29.8568V30.3139C10.0567 29.6282 10.7424 28.9425 11.4281 28.9425H14.8567C21.4853 28.9425 26.5138 26.1996 28.1138 18.6568C28.1138 18.4282 28.1138 18.1996 28.3424 17.971C27.8853 17.7425 27.6567 17.5139 27.1996 17.5139C26.5138 17.2853 26.5138 17.2853 26.2853 17.2853Z" fill="#232C65"/>
</g>
<defs>
<clipPath id="clip0_2046_17427">
<rect width="144" height="49" fill="white"/>
</clipPath>
</defs>
</svg>
