<svg width="20" height="21" viewBox="0 0 20 21" fill="none" xmlns="http://www.w3.org/2000/svg">
<path d="M17.8125 3.625H2.1875C0.981328 3.625 0 4.60633 0 5.8125V15.1875C0 16.3937 0.981328 17.375 2.1875 17.375H17.8125C19.0187 17.375 20 16.3937 20 15.1875V5.8125C20 4.60633 19.0187 3.625 17.8125 3.625ZM2.1875 4.875H17.8125C18.3294 4.875 18.75 5.29559 18.75 5.8125V7.0625H1.25V5.8125C1.25 5.29559 1.67059 4.875 2.1875 4.875ZM17.8125 16.125H2.1875C1.67059 16.125 1.25 15.7044 1.25 15.1875V8.3125H18.75V15.1875C18.75 15.7044 18.3294 16.125 17.8125 16.125Z" fill="#9DA0A4"/>
<path d="M4.375 14.25H3.75C3.40484 14.25 3.125 13.9702 3.125 13.625V13C3.125 12.6548 3.40484 12.375 3.75 12.375H4.375C4.72016 12.375 5 12.6548 5 13V13.625C5 13.9702 4.72016 14.25 4.375 14.25Z" fill="#9DA0A4"/>
</svg>
