<svg width="124" height="33" viewBox="0 0 124 33" fill="none" xmlns="http://www.w3.org/2000/svg">
<path d="M46.2113 6.74902H39.3723C38.9043 6.74902 38.5063 7.08902 38.4333 7.55102L35.6673 25.088C35.6123 25.434 35.8803 25.746 36.2313 25.746H39.4963C39.9643 25.746 40.3623 25.406 40.4353 24.943L41.1813 20.213C41.2533 19.75 41.6523 19.41 42.1193 19.41H44.2843C48.7893 19.41 51.3893 17.23 52.0683 12.91C52.3743 11.02 52.0813 9.53502 51.1963 8.49502C50.2243 7.35302 48.5003 6.74902 46.2113 6.74902ZM47.0003 13.154C46.6263 15.608 44.7513 15.608 42.9383 15.608H41.9063L42.6303 11.025C42.6733 10.748 42.9133 10.544 43.1933 10.544H43.6663C44.9013 10.544 46.0663 10.544 46.6683 11.248C47.0273 11.668 47.1373 12.292 47.0003 13.154Z" fill="#253B80"/>
<path d="M66.654 13.0746H63.379C63.1 13.0746 62.859 13.2786 62.816 13.5556L62.671 14.4716L62.442 14.1396C61.733 13.1106 60.152 12.7666 58.574 12.7666C54.955 12.7666 51.864 15.5076 51.262 19.3526C50.949 21.2706 51.394 23.1046 52.482 24.3836C53.48 25.5596 54.908 26.0496 56.607 26.0496C59.523 26.0496 61.14 24.1746 61.14 24.1746L60.994 25.0846C60.939 25.4326 61.207 25.7446 61.556 25.7446H64.506C64.975 25.7446 65.371 25.4046 65.445 24.9416L67.215 13.7326C67.271 13.3876 67.004 13.0746 66.654 13.0746ZM62.089 19.4486C61.773 21.3196 60.288 22.5756 58.394 22.5756C57.443 22.5756 56.683 22.2706 56.195 21.6926C55.711 21.1186 55.527 20.3016 55.681 19.3916C55.976 17.5366 57.486 16.2396 59.351 16.2396C60.281 16.2396 61.037 16.5486 61.535 17.1316C62.034 17.7206 62.232 18.5426 62.089 19.4486Z" fill="#253B80"/>
<path d="M84.0955 13.0752H80.8045C80.4905 13.0752 80.1955 13.2312 80.0175 13.4922L75.4785 20.1782L73.5545 13.7532C73.4335 13.3512 73.0625 13.0752 72.6425 13.0752H69.4085C69.0155 13.0752 68.7425 13.4592 68.8675 13.8292L72.4925 24.4672L69.0845 29.2782C68.8165 29.6572 69.0865 30.1782 69.5495 30.1782H72.8365C73.1485 30.1782 73.4405 30.0262 73.6175 29.7702L84.5635 13.9702C84.8255 13.5922 84.5565 13.0752 84.0955 13.0752Z" fill="#253B80"/>
<path d="M94.9916 6.74902H88.1516C87.6846 6.74902 87.2866 7.08902 87.2136 7.55102L84.4476 25.088C84.3926 25.434 84.6606 25.746 85.0096 25.746H88.5196C88.8456 25.746 89.1246 25.508 89.1756 25.184L89.9606 20.213C90.0326 19.75 90.4316 19.41 90.8986 19.41H93.0626C97.5686 19.41 100.168 17.23 100.848 12.91C101.155 11.02 100.86 9.53502 99.9746 8.49502C99.0036 7.35302 97.2806 6.74902 94.9916 6.74902ZM95.7806 13.154C95.4076 15.608 93.5326 15.608 91.7186 15.608H90.6876L91.4126 11.025C91.4556 10.748 91.6936 10.544 91.9746 10.544H92.4476C93.6816 10.544 94.8476 10.544 95.4496 11.248C95.8086 11.668 95.9176 12.292 95.7806 13.154Z" fill="#179BD7"/>
<path d="M115.434 13.0746H112.161C111.88 13.0746 111.641 13.2786 111.599 13.5556L111.454 14.4716L111.224 14.1396C110.515 13.1106 108.935 12.7666 107.357 12.7666C103.738 12.7666 100.648 15.5076 100.046 19.3526C99.7339 21.2706 100.177 23.1046 101.265 24.3836C102.265 25.5596 103.691 26.0496 105.39 26.0496C108.306 26.0496 109.923 24.1746 109.923 24.1746L109.777 25.0846C109.722 25.4326 109.99 25.7446 110.341 25.7446H113.29C113.757 25.7446 114.155 25.4046 114.228 24.9416L115.999 13.7326C116.053 13.3876 115.785 13.0746 115.434 13.0746ZM110.869 19.4486C110.555 21.3196 109.068 22.5756 107.174 22.5756C106.225 22.5756 105.463 22.2706 104.975 21.6926C104.491 21.1186 104.309 20.3016 104.461 19.3916C104.758 17.5366 106.266 16.2396 108.131 16.2396C109.061 16.2396 109.817 16.5486 110.315 17.1316C110.816 17.7206 111.014 18.5426 110.869 19.4486Z" fill="#179BD7"/>
<path d="M119.295 7.23005L116.488 25.088C116.433 25.434 116.701 25.746 117.05 25.746H119.872C120.341 25.746 120.739 25.406 120.811 24.943L123.579 7.40705C123.634 7.06105 123.366 6.74805 123.017 6.74805H119.857C119.578 6.74905 119.338 6.95305 119.295 7.23005Z" fill="#179BD7"/>
<path d="M7.26555 29.1544L7.78855 25.8324L6.62355 25.8054H1.06055L4.92655 1.29241C4.93855 1.21841 4.97755 1.14941 5.03455 1.10041C5.09155 1.05141 5.16455 1.02441 5.24055 1.02441H14.6205C17.7345 1.02441 19.8835 1.67241 21.0055 2.95141C21.5315 3.55141 21.8665 4.17841 22.0285 4.86841C22.1985 5.59241 22.2015 6.45741 22.0355 7.51241L22.0235 7.58941V8.26541L22.5495 8.56341C22.9925 8.79841 23.3445 9.06741 23.6145 9.37541C24.0645 9.88841 24.3555 10.5404 24.4785 11.3134C24.6055 12.1084 24.5635 13.0544 24.3555 14.1254C24.1155 15.3574 23.7275 16.4304 23.2035 17.3084C22.7215 18.1174 22.1075 18.7884 21.3785 19.3084C20.6825 19.8024 19.8555 20.1774 18.9205 20.4174C18.0145 20.6534 16.9815 20.7724 15.8485 20.7724H15.1185C14.5965 20.7724 14.0895 20.9604 13.6915 21.2974C13.2925 21.6414 13.0285 22.1114 12.9475 22.6254L12.8925 22.9244L11.9685 28.7794L11.9265 28.9944C11.9155 29.0624 11.8965 29.0964 11.8685 29.1194C11.8435 29.1404 11.8075 29.1544 11.7725 29.1544H7.26555Z" fill="#253B80"/>
<path d="M23.0481 7.66699C23.0201 7.84599 22.9881 8.02899 22.9521 8.21699C21.7151 14.568 17.4831 16.762 12.0781 16.762H9.32614C8.66514 16.762 8.10814 17.242 8.00514 17.894L6.59614 26.83L6.19714 29.363C6.13014 29.791 6.46014 30.177 6.89214 30.177H11.7731C12.3511 30.177 12.8421 29.757 12.9331 29.187L12.9811 28.939L13.9001 23.107L13.9591 22.787C14.0491 22.215 14.5411 21.795 15.1191 21.795H15.8491C20.5781 21.795 24.2801 19.875 25.3621 14.319C25.8141 11.998 25.5801 10.06 24.3841 8.69699C24.0221 8.28599 23.5731 7.94499 23.0481 7.66699Z" fill="#179BD7"/>
<path d="M21.7539 7.15103C21.5649 7.09603 21.3699 7.04603 21.1699 7.00103C20.9689 6.95703 20.7629 6.91803 20.5509 6.88403C19.8089 6.76403 18.9959 6.70703 18.1249 6.70703H10.7729C10.5919 6.70703 10.4199 6.74803 10.2659 6.82203C9.92688 6.98503 9.67488 7.30603 9.61388 7.69903L8.04988 17.605L8.00488 17.894C8.10788 17.242 8.66488 16.762 9.32588 16.762H12.0779C17.4829 16.762 21.7149 14.567 22.9519 8.21703C22.9889 8.02903 23.0199 7.84603 23.0479 7.66703C22.7349 7.50103 22.3959 7.35903 22.0309 7.23803C21.9409 7.20803 21.8479 7.17903 21.7539 7.15103Z" fill="#222D65"/>
<path d="M9.61399 7.699C9.67499 7.306 9.92699 6.985 10.266 6.823C10.421 6.749 10.592 6.708 10.773 6.708H18.125C18.996 6.708 19.809 6.765 20.551 6.885C20.763 6.919 20.969 6.958 21.17 7.002C21.37 7.047 21.565 7.097 21.754 7.152C21.848 7.18 21.941 7.209 22.032 7.238C22.397 7.359 22.736 7.502 23.049 7.667C23.417 5.32 23.046 3.722 21.777 2.275C20.378 0.682 17.853 0 14.622 0H5.24199C4.58199 0 4.01899 0.48 3.91699 1.133L0.00998882 25.898C-0.0670112 26.388 0.310989 26.83 0.804989 26.83H6.59599L8.04999 17.605L9.61399 7.699Z" fill="#253B80"/>
</svg>
