<svg width="36" height="36" viewBox="0 0 36 36" fill="none" xmlns="http://www.w3.org/2000/svg">
<g clip-path="url(#clip0_1901_27158)">
<path d="M35.9645 25.7154C35.7596 23.6076 34.6803 21.6892 32.9254 20.3137C32.2486 19.7832 31.48 19.3398 30.6323 18.9867V9.48283C30.6323 9.28188 30.5252 9.09619 30.3511 8.99571L15.5974 0.477701C15.4234 0.377225 15.2089 0.377225 15.0349 0.477701L0.28125 8.99571C0.107156 9.09619 0 9.28188 0 9.48283V26.5189C0 26.7199 0.107156 26.9056 0.28125 27.006L15.0349 35.5241C15.1219 35.5743 15.2191 35.5994 15.3162 35.5994C15.4133 35.5994 15.5104 35.5743 15.5974 35.5241L30.3511 27.006C30.4668 26.9392 30.5519 26.8345 30.5967 26.713C30.9805 27.2081 31.2462 27.7632 31.3717 28.3482C31.8357 30.5094 30.4379 32.6107 27.7239 33.832C27.4633 33.9493 27.332 34.2433 27.4187 34.5156C27.4942 34.7526 27.7137 34.9076 27.9543 34.9075C27.9902 34.9075 28.0266 34.904 28.063 34.8969C30.6669 34.3859 32.798 33.1746 34.226 31.3938C35.5434 29.7512 36.1607 27.7346 35.9645 25.7154ZM15.3162 17.3514L11.2036 14.977L24.8323 7.10845L28.9448 9.48283L15.3162 17.3514ZM6.92501 12.5068L20.5537 4.63823L23.7073 6.45897L10.0786 14.3275L6.92501 12.5068ZM9.51616 15.3018L9.51609 20.7112L6.36258 18.8905L6.36251 13.481L9.51616 15.3018ZM15.3162 1.61437L19.4287 3.98876L5.80001 11.8572L1.6875 9.48283L15.3162 1.61437ZM1.125 10.4572L5.23751 12.8315L5.23758 19.2153C5.23758 19.4162 5.34473 19.6019 5.51883 19.7024L9.79734 22.1726C9.88432 22.2228 9.98149 22.2479 10.0786 22.2479C10.1757 22.2479 10.2729 22.2228 10.3598 22.1726C10.5339 22.0721 10.6411 21.8864 10.6411 21.6854L10.6412 15.9513L14.7537 18.3257V34.0627L1.125 26.1942V10.4572ZM15.8787 34.0627V18.3257L29.5073 10.4572V18.5851C28.3374 18.2322 27.0461 18.0303 25.6589 17.9876V16.1684C25.6589 15.9499 25.5324 15.7511 25.3345 15.6587C25.1365 15.5663 24.9029 15.5968 24.7354 15.737L18.2322 21.1799C18.0997 21.2908 18.0256 21.4565 18.0311 21.6292C18.0366 21.802 18.1212 21.9626 18.2606 22.0648L24.7637 26.8358C24.9347 26.9613 25.1616 26.9799 25.3507 26.8841C25.5397 26.7883 25.659 26.5943 25.659 26.3823V24.4912C27.1486 24.5712 28.4571 24.9719 29.4697 25.6622C29.4825 25.6709 29.4947 25.6802 29.5074 25.6891V26.1942L15.8787 34.0627ZM31.4252 32.4093C31.5642 32.2277 31.6913 32.0412 31.8065 31.8498C32.5141 30.6737 32.7442 29.3812 32.4718 28.1121C32.1856 26.7788 31.3445 25.5786 30.1032 24.7325C28.7775 23.8288 27.0461 23.3511 25.0964 23.3511C24.7858 23.3511 24.5339 23.603 24.5339 23.9136V25.2719L19.5045 21.5819L24.5339 17.3725V18.5413C24.5339 18.852 24.7858 19.1038 25.0964 19.1038C31.8097 19.1038 34.5435 22.7239 34.8448 25.824C35.0655 28.0959 34.0309 30.7427 31.4252 32.4093Z" fill="#51801A"/>
</g>
<defs>
<clipPath id="clip0_1901_27158">
<rect width="36" height="36" fill="white"/>
</clipPath>
</defs>
</svg>
