<svg width="36" height="36" viewBox="0 0 36 36" fill="none" xmlns="http://www.w3.org/2000/svg">
<path d="M4.88806 26.7086C2.90075 23.7453 1.98837 20.1476 2.32081 16.574C2.38887 15.7888 2.52612 14.9653 2.7275 14.1328C2.91256 13.4049 3.14431 12.704 3.41881 12.0459C4.20406 10.1058 5.3645 8.36321 6.86806 6.86528C8.16406 5.56421 9.64512 4.5174 11.2707 3.75409C12.0183 3.40196 12.7968 3.10778 13.5854 2.8794C14.3077 2.6679 15.0288 2.51321 15.7297 2.41871C15.755 2.41534 15.7797 2.41028 15.8039 2.40296C19.8764 1.83259 23.9354 2.83946 27.2334 5.24134C27.5562 5.47534 27.8701 5.72171 28.1739 5.97878L26.9864 6.04234C26.6765 6.05865 26.438 6.32359 26.4549 6.63409C26.4712 6.93446 26.7198 7.16678 27.0162 7.16678C27.0264 7.16678 27.0365 7.16678 27.0472 7.16621L29.561 7.03178C29.615 7.02896 29.6656 7.00928 29.7162 6.99071C29.7297 6.98621 29.7444 6.98565 29.7573 6.98003C29.795 6.96259 29.8259 6.93615 29.8591 6.91084C29.8867 6.89059 29.9159 6.87428 29.939 6.85009C29.9424 6.84671 29.9474 6.84503 29.9508 6.84109C29.9682 6.82196 29.975 6.79665 29.9891 6.77528C30.0144 6.73871 30.0397 6.70328 30.056 6.66109C30.0661 6.63409 30.0667 6.60653 30.0729 6.5784C30.0813 6.53959 30.0965 6.50359 30.0965 6.46253C30.0965 6.45521 30.0926 6.44846 30.092 6.44059C30.092 6.43665 30.0937 6.43328 30.0937 6.42934L29.9502 3.92396C29.9328 3.61403 29.6566 3.37553 29.3562 3.39465C29.0463 3.41265 28.8089 3.67815 28.8275 3.98865L28.8916 5.11365C28.5693 4.84196 28.238 4.57928 27.896 4.33178C24.3444 1.74484 19.9721 0.668776 15.5817 1.29878C15.5592 1.30215 15.5373 1.30665 15.5154 1.31284C14.7796 1.41521 14.0253 1.5789 13.2727 1.7994C12.4289 2.04409 11.5947 2.35909 10.7943 2.73596C9.05 3.5544 7.4615 4.67659 6.07381 6.0699C4.4645 7.67415 3.22081 9.54221 2.38043 11.6184C2.08737 12.3221 1.83818 13.0747 1.6385 13.8622C1.42193 14.756 1.27512 15.6358 1.20312 16.4733C0.847622 20.3006 1.82525 24.1576 3.95712 27.3352C4.06512 27.4972 4.24343 27.5844 4.42456 27.5844C4.532 27.5844 4.64112 27.5535 4.73731 27.4893C4.9955 27.3161 5.06412 26.9668 4.89087 26.7086H4.88806Z" fill="#51801A"/>
<path d="M31.2656 8.51045C31.0074 8.6837 30.9387 9.03301 31.112 9.2912C33.0993 12.2544 34.0117 15.8522 33.6792 19.4258C33.6112 20.211 33.4739 21.0345 33.2726 21.867C33.0875 22.5949 32.8557 23.2958 32.5812 23.9539C31.796 25.8939 30.6356 27.6366 29.132 29.1345C27.836 30.4356 26.3549 31.4824 24.7293 32.2457C23.9817 32.5978 23.2032 32.892 22.4146 33.1204C21.6924 33.3319 20.9712 33.4866 20.2704 33.5811C20.2451 33.5844 20.2203 33.5895 20.1961 33.5968C16.1219 34.1655 12.0646 33.1603 8.76668 30.7584C8.43874 30.5211 8.12712 30.2753 7.82562 30.0205L9.01362 29.9546C9.32412 29.9372 9.56206 29.6723 9.54406 29.3618C9.52718 29.0518 9.25549 28.8105 8.95174 28.8313L6.44131 28.9703C6.13081 28.9877 5.89287 29.2526 5.91087 29.5631L6.04924 32.0736C6.06556 32.3734 6.31362 32.6051 6.61006 32.6051C6.62074 32.6051 6.63087 32.6051 6.64156 32.6046C6.95206 32.5877 7.18999 32.3222 7.17199 32.0117L7.11012 30.8884C7.42962 31.1578 7.75868 31.4183 8.10518 31.6691C10.9942 33.7729 14.4254 34.8782 17.9669 34.8782C18.7797 34.8782 19.5993 34.8197 20.4189 34.7021C20.4414 34.6988 20.4633 34.6943 20.4852 34.6881C21.221 34.5857 21.9753 34.422 22.7279 34.2015C23.5717 33.9568 24.4059 33.6418 25.2063 33.2649C26.9506 32.4465 28.5391 31.3243 29.9268 29.931C31.5361 28.3268 32.7798 26.4587 33.6202 24.3825C33.9132 23.6788 34.1624 22.9262 34.3621 22.1387C34.5787 21.2449 34.7255 20.3651 34.7975 19.5276C35.153 15.7003 34.1754 11.8433 32.0435 8.6657C31.8708 8.40751 31.5209 8.33776 31.2633 8.51214L31.2656 8.51045Z" fill="#51801A"/>
<path d="M27.0451 13.0113C27.0451 12.9494 27.0338 12.8931 27.0113 12.8425C27.0057 12.82 27.0001 12.8031 26.9888 12.7863C26.9663 12.73 26.9326 12.685 26.8932 12.64C26.8876 12.6344 26.882 12.6288 26.8707 12.6231C26.8426 12.5894 26.8088 12.5613 26.7695 12.5388L18.3095 7.66188C18.1407 7.56062 17.9213 7.56062 17.747 7.66188L9.23071 12.5781C9.05634 12.6794 8.94946 12.865 8.94946 13.0619V22.6131C8.94946 22.6356 8.96071 22.6581 8.96071 22.6806C8.96634 22.72 8.97196 22.7594 8.98884 22.7988C9.00009 22.8325 9.01134 22.8606 9.03384 22.8888C9.05071 22.9225 9.06759 22.9506 9.09571 22.9788C9.11821 23.0069 9.14634 23.0294 9.17446 23.0519C9.19696 23.0688 9.20821 23.0913 9.23071 23.1025L17.6907 27.985C17.702 27.9963 17.7188 27.9963 17.7301 28.0075C17.747 28.0131 17.7582 28.0188 17.7751 28.0244C17.837 28.0469 17.9045 28.0638 17.972 28.0638C18.0395 28.0638 18.1013 28.0469 18.1688 28.0244C18.1801 28.0188 18.197 28.0131 18.2082 28.0075C18.2251 28.0019 18.2363 27.9963 18.2532 27.9906L26.7695 23.0688C26.792 23.0575 26.8032 23.035 26.8257 23.0181C26.8538 22.9956 26.882 22.9788 26.9045 22.9506C26.9326 22.9225 26.9495 22.8888 26.972 22.855C26.9888 22.8269 27.0001 22.7988 27.0113 22.765C27.0282 22.7256 27.0338 22.6863 27.0395 22.6469C27.0395 22.6244 27.0507 22.6075 27.0507 22.5794V13.0281C27.0507 13.0225 27.0451 13.0169 27.0451 13.0113ZM18.0282 8.79813L25.3632 13.0281L22.562 14.6481L15.227 10.4125L18.0282 8.79813ZM17.4095 26.5281L10.0745 22.2925V14.0406L17.4095 18.2706V26.5281ZM17.9663 17.2975L10.637 13.0619L14.102 11.065L21.437 15.295L17.9663 17.2975ZM25.9257 22.2588L18.5345 26.5281V18.2706L21.9995 16.2681V17.8038C21.9995 18.1131 22.247 18.3663 22.562 18.3663C22.8713 18.3663 23.1245 18.1131 23.1245 17.8038V15.6213L25.9257 14.0013V22.2588Z" fill="#51801A"/>
</svg>
