<svg width="25" height="24" viewBox="0 0 25 24" fill="none" xmlns="http://www.w3.org/2000/svg">
<path fill-rule="evenodd" clip-rule="evenodd" d="M4.58821 3C5.90522 3 7.06823 3.85897 7.45554 5.11774L7.49624 5.25H19.5508C20.9042 5.25 21.9513 6.43616 21.7835 7.77907L21.3883 10.9401C21.2611 11.9581 20.4612 12.7613 19.4436 12.8925L9.4354 14.1839C9.31675 14.3625 9.1696 14.5248 8.9962 14.6635C8.54583 15.0238 8.8006 15.75 9.37727 15.75H19.75C20.1642 15.75 20.5 16.0858 20.5 16.5C20.5 16.9142 20.1642 17.25 19.75 17.25H9.37727C7.38268 17.25 6.5016 14.7382 8.05915 13.4922C8.25467 13.3358 8.33478 13.0757 8.26113 12.8364L6.02187 5.55887C5.82821 4.92948 5.24672 4.5 4.58821 4.5H3.25C2.83579 4.5 2.5 4.16421 2.5 3.75C2.5 3.33579 2.83579 3 3.25 3H4.58821ZM9.75265 12.6305L19.2517 11.4049C19.5909 11.3611 19.8575 11.0934 19.8999 10.754L20.295 7.593C20.351 7.14538 20.0019 6.75 19.5508 6.75H7.95775L9.69482 12.3953C9.71875 12.4732 9.73803 12.5517 9.75265 12.6305Z" fill="white"/>
<path d="M7 19.5C7 18.6716 7.67157 18 8.5 18C9.32845 18 10 18.6716 10 19.5C10 20.3284 9.32845 21 8.5 21C7.67157 21 7 20.3284 7 19.5Z" fill="white"/>
<path d="M17.5 18C16.6716 18 16 18.6716 16 19.5C16 20.3284 16.6716 21 17.5 21C18.3284 21 19 20.3284 19 19.5C19 18.6716 18.3284 18 17.5 18Z" fill="white"/>
</svg>
