<svg width="80" height="80" viewBox="0 0 80 80" fill="none" xmlns="http://www.w3.org/2000/svg">
<g clip-path="url(#clip0_307_7186)">
<path d="M77.4607 54.8523C75.8269 56.4821 73.6121 57.3956 71.3042 57.3914H8.69558C6.3877 57.3955 4.17292 56.4821 2.53906 54.8523L30.9217 26.4697L35.7216 29.9479C38.2645 31.8265 41.7353 31.8265 44.2782 29.9479L49.0782 26.4697L77.4607 54.8523Z" fill="#FFA000"/>
<path d="M78.3304 5.32185L49.0783 26.4697L44.2783 29.9479C41.7354 31.8265 38.2646 31.8265 35.7218 29.9479L30.9218 26.4697L1.63477 5.35674C3.26373 3.0787 5.89509 1.7305 8.69568 1.7393H71.3043C74.0844 1.74175 76.6957 3.07316 78.3304 5.32185Z" fill="#FFD54F"/>
<path d="M1.63491 5.35645L30.9219 26.4694L2.53931 54.852C0.909532 53.2182 -0.00400014 51.0034 7.59434e-05 48.6955V10.4346C-0.00758709 8.61128 0.564858 6.8328 1.63491 5.35645Z" fill="#FFC107"/>
<path d="M79.9998 10.4348V48.6957C80.0039 51.0036 79.0905 53.2184 77.4607 54.8522L49.0781 26.4696L78.3302 5.32178C79.4163 6.80531 80.0009 8.59634 79.9998 10.4348Z" fill="#FFC107"/>
<path d="M39.6667 42C29.9255 42 22 49.9255 22 59.6667C22 69.4078 29.9255 77.3333 39.6667 77.3333C49.4078 77.3333 57.3333 69.4078 57.3333 59.6667C57.3333 49.9255 49.4078 42 39.6667 42Z" fill="#4CAF50"/>
<path d="M48.5062 55.3392L38.9933 66.211C38.4987 66.7791 37.7947 67.1134 37.0391 67.1405H36.9494C36.2292 67.1405 35.5361 66.8552 35.0279 66.3442L29.592 60.9083C28.5292 59.8456 28.5292 58.1278 29.592 57.0651C30.6547 56.0024 32.3724 56.0024 33.4351 57.0651L36.8163 60.4462L44.4184 51.7624C45.405 50.6372 47.1227 50.5176 48.2507 51.5069C49.3813 52.4935 49.4955 54.2085 48.5062 55.3392Z" fill="white"/>
<path d="M39.6667 42C29.9255 42 22 49.9255 22 59.6667C22 69.4078 29.9255 77.3333 39.6667 77.3333H39.6721V65.4342L38.9926 66.2115C38.498 66.7795 37.794 67.1138 37.0384 67.141H36.9487C36.2285 67.141 35.5354 66.8556 35.0271 66.3447L29.5912 60.9088C28.5285 59.8461 28.5285 58.1283 29.5912 57.0656C30.1212 56.5356 30.817 56.2692 31.5128 56.2692C32.2086 56.2692 32.9044 56.5356 33.4344 57.0656L36.8155 60.4467L39.6721 57.1852V42C39.6694 42 39.6694 42 39.6667 42Z" fill="#429846"/>
<path d="M31.5135 56.269C30.8178 56.269 30.122 56.5354 29.592 57.0654C28.5292 58.1281 28.5292 59.8459 29.592 60.9086L35.0279 66.3445C35.5388 66.8555 36.2292 67.1408 36.9494 67.1408H37.0391C37.792 67.1137 38.4987 66.7794 38.9933 66.2113L39.6728 65.434V57.1823L36.8163 60.4438L33.4351 57.0627C32.9051 56.5354 32.2093 56.269 31.5135 56.269Z" fill="#DEDEDE"/>
</g>
<defs>
<clipPath id="clip0_307_7186">
<rect width="80" height="80" fill="white"/>
</clipPath>
</defs>
</svg>
