<svg width="80" height="80" viewBox="0 0 80 80" fill="none" xmlns="http://www.w3.org/2000/svg">
<g clip-path="url(#clip0_307_7262)">
<path d="M52.8465 77.1532C48.4699 72.7765 48.3365 68.5332 48.3332 68.3232C48.3265 67.4098 47.5832 66.6665 46.6665 66.6665H33.2665C32.3465 66.6665 31.5999 67.4232 31.5999 68.3432C31.5999 68.5232 31.5399 72.7665 27.1532 77.1532C26.6765 77.6298 26.5332 78.3432 26.7932 78.9698C27.0499 79.5965 27.6599 79.9998 28.3332 79.9998H51.6665C52.3399 79.9998 52.9499 79.5965 53.2065 78.9698C53.4632 78.3465 53.3199 77.6298 52.8465 77.1532Z" fill="#90A4AE"/>
<path d="M74.1667 13.3335H5.83333C2.61667 13.3335 0 15.9502 0 19.1668V64.1668C0 67.3835 2.61667 70.0002 5.83333 70.0002H74.1667C77.3833 70.0002 80 67.3835 80 64.1668V19.1668C80 15.9502 77.3833 13.3335 74.1667 13.3335Z" fill="#607D8B"/>
<path d="M73.3337 56.6667H6.66699V20H73.3337V56.6667Z" fill="white"/>
<path d="M43.1204 33.1133L42.5004 33.4V32.5C42.5004 31.12 41.3804 30 40.0004 30C38.6204 30 37.5004 31.12 37.5004 32.5V33.4L36.8804 33.1133C35.6337 32.54 34.1404 33.08 33.5637 34.3367C32.9837 35.59 33.5304 37.0767 34.7837 37.6567L35.8937 38.1667L35.0004 39.1733C34.087 40.21 34.1804 41.79 35.2137 42.7033C35.6937 43.1267 36.287 43.3333 36.877 43.3333C37.567 43.3333 38.2537 43.0467 38.747 42.4933L40.0004 41.0767L41.2537 42.4933C41.747 43.0467 42.4337 43.3333 43.127 43.3333C43.717 43.3333 44.3104 43.1267 44.7837 42.7033C45.8204 41.7933 45.9137 40.21 44.997 39.1733L44.1004 38.1667L45.2137 37.6567C46.467 37.0767 47.0137 35.59 46.4337 34.3367C45.857 33.08 44.3637 32.5333 43.1204 33.1133Z" fill="#2196F3"/>
<path d="M39.9999 70H31.3632C30.9699 71.67 29.9265 74.3833 27.1532 77.1533C26.6765 77.63 26.5332 78.3433 26.7932 78.97C27.0499 79.5967 27.6599 80 28.3332 80H39.9999V70Z" fill="#7D8F97"/>
<path d="M40 13.3335H5.83333C2.61667 13.3335 0 15.9502 0 19.1668V64.1668C0 67.3835 2.61667 70.0002 5.83333 70.0002H31.3633H40V56.6668H6.66667V20.0002H40V13.3335Z" fill="#546D79"/>
<path d="M40.0003 20H6.66699V56.6667H40.0003V41.0767L38.747 42.4933C38.2537 43.0467 37.567 43.3333 36.877 43.3333C36.287 43.3333 35.6937 43.1267 35.2203 42.7033C34.1837 41.7933 34.0903 40.21 35.007 39.1733L35.9003 38.1667L34.7903 37.6567C33.537 37.0767 32.9903 35.59 33.5703 34.3367C33.9903 33.42 34.9003 32.8833 35.8437 32.8833C36.1937 32.8833 36.5503 32.9567 36.887 33.1133L37.507 33.4V32.5C37.5003 31.12 38.6203 30 40.0003 30V20Z" fill="#DEDEDE"/>
<path d="M40.0004 30C38.6204 30 37.5004 31.12 37.5004 32.5V33.4L36.8804 33.1133C36.5437 32.96 36.187 32.8833 35.837 32.8833C34.8904 32.8833 33.9837 33.42 33.5637 34.3367C32.9837 35.59 33.5304 37.0767 34.7837 37.6567L35.8937 38.1667L35.0004 39.1733C34.087 40.21 34.1804 41.79 35.2137 42.7033C35.6937 43.1267 36.287 43.3333 36.877 43.3333C37.567 43.3333 38.2537 43.0467 38.747 42.4933L40.0004 41.0767V30Z" fill="#1D83D4"/>
<path d="M23.1204 33.1133L22.5004 33.4V32.5C22.5004 31.12 21.3804 30 20.0004 30C18.6204 30 17.5004 31.12 17.5004 32.5V33.4L16.8804 33.1133C15.6337 32.54 14.1404 33.08 13.5637 34.3367C12.9837 35.59 13.5304 37.0767 14.7837 37.6567L15.8937 38.1667L15.0004 39.1733C14.087 40.21 14.1804 41.79 15.2137 42.7033C15.6937 43.1267 16.287 43.3333 16.877 43.3333C17.567 43.3333 18.2537 43.0467 18.7504 42.4933L20.0004 41.0767L21.2537 42.4933C21.747 43.0467 22.4337 43.3333 23.1237 43.3333C23.7137 43.3333 24.307 43.1267 24.7804 42.7033C25.817 41.7933 25.9104 40.21 24.9937 39.1733L24.1004 38.1667L25.2137 37.6567C26.467 37.0767 27.0137 35.59 26.4337 34.3367C25.857 33.08 24.3637 32.5333 23.1204 33.1133Z" fill="#2196F3"/>
<path d="M20 30C18.62 30 17.5 31.12 17.5 32.5V33.4L16.88 33.1133C16.5433 32.9567 16.19 32.8833 15.84 32.8833C14.8933 32.8833 13.9866 33.42 13.5666 34.3367C12.9866 35.59 13.5333 37.0767 14.7866 37.6567L15.8966 38.1667L15.0033 39.1733C14.09 40.21 14.1833 41.79 15.2166 42.7033C15.6933 43.1267 16.2866 43.3333 16.8766 43.3333C17.5666 43.3333 18.2533 43.0467 18.75 42.4933L20 41.0767V30Z" fill="#1D83D4"/>
<path d="M66.437 34.3367C65.8604 33.08 64.3637 32.5333 63.1204 33.1133L62.5004 33.4V32.5C62.5004 31.12 61.3804 30 60.0004 30C58.6204 30 57.5004 31.12 57.5004 32.5V33.4L56.8804 33.1133C55.6404 32.54 54.1404 33.08 53.5637 34.3367C52.9837 35.59 53.5304 37.0767 54.7837 37.6567L55.8937 38.1667L55.0004 39.1733C54.087 40.21 54.1804 41.79 55.2137 42.7033C55.6937 43.1267 56.287 43.3333 56.8737 43.3333C57.5637 43.3333 58.2504 43.0467 58.747 42.4933L60.0004 41.0767L61.2537 42.4933C61.747 43.0467 62.4337 43.3333 63.127 43.3333C63.717 43.3333 64.307 43.1267 64.7837 42.7033C65.8204 41.7933 65.9137 40.21 64.997 39.1733L64.1004 38.1667L65.2137 37.6567C66.467 37.0767 67.0137 35.59 66.437 34.3367Z" fill="#2196F3"/>
<path d="M60.0004 30C58.6204 30 57.5004 31.12 57.5004 32.5V33.4L56.8804 33.1133C56.5437 32.96 56.1904 32.8833 55.8404 32.8833C54.897 32.8833 53.9837 33.42 53.5637 34.3367C52.9837 35.59 53.5304 37.0767 54.7837 37.6567L55.8937 38.1667L55.0004 39.1733C54.087 40.21 54.1804 41.79 55.2137 42.7033C55.6937 43.1267 56.287 43.3333 56.8737 43.3333C57.5637 43.3333 58.2504 43.0467 58.747 42.4933L60.0004 41.0767V30Z" fill="#1D83D4"/>
</g>
<defs>
<clipPath id="clip0_307_7262">
<rect width="80" height="80" fill="white"/>
</clipPath>
</defs>
</svg>
