<svg width="80" height="80" viewBox="0 0 80 80" fill="none" xmlns="http://www.w3.org/2000/svg">
<g clip-path="url(#clip0_307_7206)">
<path d="M33.6729 11.9337C32.3514 13.2188 30.1786 13.2552 28.8935 11.9337L26.737 9.5962C22.8933 5.64363 16.5488 5.55504 12.5963 9.39875C8.64371 13.2425 8.55512 19.5869 12.3988 23.5395L18.7895 30.1112C20.0746 31.4327 20.0452 33.5397 18.7237 34.8248C17.4022 36.1099 15.2952 36.0805 14.0101 34.759L7.61942 28.1873C1.21247 21.5989 1.3601 11.0263 7.9485 4.61934C14.5369 -1.78761 25.1095 -1.63998 31.5164 4.94843L33.6729 7.28593C34.9581 8.60743 34.9944 10.6486 33.6729 11.9337Z" fill="#90A4AE"/>
<path d="M45.8333 66.6668H7.5C3.36667 66.6668 0 63.3002 0 59.1668V30.8335C0 26.7002 3.36667 23.3335 7.5 23.3335H45.8333C49.9667 23.3335 53.3333 26.7002 53.3333 30.8335V59.1668C53.3333 63.3002 49.9667 66.6668 45.8333 66.6668Z" fill="#FFC107"/>
<path d="M7.9485 4.61934C1.3601 11.0263 1.21247 21.5989 7.61942 28.1873L12.2672 32.9667L17.0466 28.3189L12.3988 23.5395C8.55512 19.5869 8.64371 13.2425 12.5963 9.39875L7.9485 4.61934Z" fill="#7D8F97"/>
<path d="M26.6667 23.3335H16.6667H10H7.5C3.36667 23.3335 0 26.7002 0 30.8335V59.1668C0 63.3002 3.36667 66.6668 7.5 66.6668H26.6667V23.3335Z" fill="#DEA806"/>
<path d="M58.3332 36.6665C46.3865 36.6665 36.6665 46.3865 36.6665 58.3332C36.6665 70.2798 46.3865 79.9998 58.3332 79.9998C70.2798 79.9998 79.9998 70.2798 79.9998 58.3332C79.9998 46.3865 70.2798 36.6665 58.3332 36.6665Z" fill="#A22B38"/>
<rect x="46.0005" y="65.7988" width="28" height="7" rx="3.5" transform="rotate(-45 46.0005 65.7988)" fill="white"/>
<rect x="50.9497" y="46" width="28" height="7" rx="3.5" transform="rotate(45 50.9497 46)" fill="white"/>
<path d="M58 37C55.2422 37 52.5115 37.5561 49.9636 38.6366C47.4158 39.7171 45.1008 41.3007 43.1508 43.2972C41.2007 45.2937 39.6539 47.6638 38.5985 50.2723C37.5432 52.8808 37 55.6766 37 58.5C37 61.3234 37.5432 64.1192 38.5985 66.7277C39.6539 69.3362 41.2007 71.7063 43.1508 73.7028C45.1008 75.6993 47.4158 77.2829 49.9636 78.3634C52.5115 79.4439 55.2422 80 58 80L58 58.5L58 37Z" fill="#82252F" fill-opacity="0.5"/>
</g>
<defs>
<clipPath id="clip0_307_7206">
<rect width="80" height="80" fill="white"/>
</clipPath>
</defs>
</svg>
